<?xml version="1.0" encoding="UTF-8"?>
<svg xmlns="http://www.w3.org/2000/svg" version="1.1" xmlns:xlink="http://www.w3.org/1999/xlink" viewBox="0 0 500 500">
  <defs>
    <style>
      .cls-1 {
        opacity: .64;
      }

      .cls-1, .cls-2, .cls-3, .cls-4, .cls-5, .cls-6, .cls-7, .cls-8, .cls-9, .cls-10, .cls-11, .cls-12, .cls-13, .cls-14, .cls-15, .cls-16, .cls-17, .cls-18, .cls-19, .cls-20, .cls-21, .cls-22, .cls-23, .cls-24, .cls-25, .cls-26, .cls-27, .cls-28, .cls-29, .cls-30, .cls-31, .cls-32, .cls-33, .cls-34, .cls-35, .cls-36, .cls-37, .cls-38, .cls-39, .cls-40, .cls-41, .cls-42, .cls-43, .cls-44, .cls-45, .cls-46, .cls-47, .cls-48, .cls-49, .cls-50, .cls-51, .cls-52, .cls-53, .cls-54, .cls-55, .cls-56, .cls-57, .cls-58, .cls-59, .cls-60, .cls-61, .cls-62, .cls-63, .cls-64, .cls-65, .cls-66, .cls-67, .cls-68, .cls-69, .cls-70, .cls-71, .cls-72, .cls-73, .cls-74, .cls-75, .cls-76, .cls-77, .cls-78, .cls-79, .cls-80, .cls-81, .cls-82, .cls-83, .cls-84, .cls-85, .cls-86, .cls-87, .cls-88, .cls-89, .cls-90, .cls-91, .cls-92, .cls-93, .cls-94, .cls-95, .cls-96, .cls-97, .cls-98, .cls-99, .cls-100, .cls-101, .cls-102, .cls-103, .cls-104, .cls-105, .cls-106, .cls-107, .cls-108, .cls-109, .cls-110, .cls-111, .cls-112, .cls-113, .cls-114, .cls-115, .cls-116, .cls-117, .cls-118, .cls-119, .cls-120, .cls-121, .cls-122, .cls-123, .cls-124, .cls-125, .cls-126, .cls-127, .cls-128, .cls-129, .cls-130, .cls-131, .cls-132, .cls-133, .cls-134, .cls-135, .cls-136, .cls-137, .cls-138, .cls-139, .cls-140, .cls-141, .cls-142, .cls-143, .cls-144, .cls-145, .cls-146, .cls-147, .cls-148, .cls-149, .cls-150, .cls-151, .cls-152, .cls-153, .cls-154, .cls-155, .cls-156, .cls-157, .cls-158, .cls-159, .cls-160, .cls-161, .cls-162, .cls-163, .cls-164, .cls-165, .cls-166, .cls-167, .cls-168, .cls-169, .cls-170, .cls-171, .cls-172, .cls-173, .cls-174, .cls-175, .cls-176, .cls-177, .cls-178, .cls-179, .cls-180, .cls-181, .cls-182, .cls-183, .cls-184, .cls-185, .cls-186, .cls-187, .cls-188, .cls-189, .cls-190, .cls-191, .cls-192, .cls-193, .cls-194, .cls-195, .cls-196 {
        fill: #e7e6e6;
      }

      .cls-2 {
        opacity: .58;
      }

      .cls-3 {
        opacity: .05;
      }

      .cls-197 {
        fill: #73addf;
      }

      .cls-198 {
        opacity: .06;
      }

      .cls-198, .cls-199, .cls-200, .cls-201, .cls-202, .cls-203, .cls-204, .cls-205, .cls-206, .cls-207, .cls-208, .cls-209, .cls-210, .cls-211, .cls-212, .cls-213, .cls-214, .cls-215, .cls-216, .cls-217, .cls-218, .cls-219, .cls-220, .cls-221, .cls-222, .cls-223, .cls-224, .cls-225, .cls-226, .cls-227, .cls-228, .cls-229, .cls-230, .cls-231, .cls-232, .cls-233, .cls-234, .cls-235, .cls-236, .cls-237, .cls-238, .cls-239, .cls-240, .cls-241, .cls-242, .cls-243, .cls-244, .cls-245, .cls-246, .cls-247, .cls-248, .cls-249, .cls-250, .cls-251, .cls-252, .cls-253, .cls-254, .cls-255, .cls-256, .cls-257, .cls-258, .cls-259, .cls-260, .cls-261, .cls-262, .cls-263, .cls-264, .cls-265, .cls-266, .cls-267, .cls-268, .cls-269, .cls-270, .cls-271, .cls-272, .cls-273, .cls-274, .cls-275, .cls-276, .cls-277, .cls-278, .cls-279, .cls-280, .cls-281, .cls-282, .cls-283, .cls-284, .cls-285, .cls-286, .cls-287, .cls-288, .cls-289, .cls-290 {
        mix-blend-mode: multiply;
      }

      .cls-198, .cls-199, .cls-200, .cls-202, .cls-205, .cls-206, .cls-209, .cls-210, .cls-211, .cls-212, .cls-213, .cls-215, .cls-216, .cls-217, .cls-218, .cls-219, .cls-220, .cls-224, .cls-227, .cls-228, .cls-229, .cls-231, .cls-232, .cls-236, .cls-238, .cls-239, .cls-242, .cls-243, .cls-244, .cls-245, .cls-246, .cls-247, .cls-249, .cls-251, .cls-252, .cls-254, .cls-257, .cls-258, .cls-259, .cls-260, .cls-261, .cls-263, .cls-264, .cls-265, .cls-268, .cls-271, .cls-275, .cls-276, .cls-277, .cls-278, .cls-279, .cls-280, .cls-281, .cls-282, .cls-284, .cls-285, .cls-287, .cls-288, .cls-289, .cls-290 {
        fill: #fff;
      }

      .cls-4 {
        opacity: .74;
      }

      .cls-199 {
        opacity: .33;
      }

      .cls-5 {
        opacity: .47;
      }

      .cls-6 {
        opacity: .67;
      }

      .cls-200 {
        opacity: .57;
      }

      .cls-291 {
        opacity: .72;
      }

      .cls-201 {
        opacity: .66;
      }

      .cls-201, .cls-292, .cls-204, .cls-207, .cls-214, .cls-221, .cls-222, .cls-223, .cls-225, .cls-226, .cls-230, .cls-233, .cls-234, .cls-235, .cls-237, .cls-240, .cls-241, .cls-248, .cls-250, .cls-253, .cls-255, .cls-262, .cls-266, .cls-267, .cls-269, .cls-270, .cls-272, .cls-273, .cls-286 {
        fill: #cdcccc;
      }

      .cls-7 {
        opacity: .83;
      }

      .cls-202 {
        opacity: .49;
      }

      .cls-8 {
        opacity: .02;
      }

      .cls-203 {
        fill: url(#linear-gradient-2);
      }

      .cls-9 {
        opacity: .08;
      }

      .cls-293, .cls-283 {
        fill: #b4b4b4;
      }

      .cls-10 {
        opacity: .4;
      }

      .cls-11 {
        opacity: .53;
      }

      .cls-204 {
        opacity: .82;
      }

      .cls-205 {
        opacity: .02;
      }

      .cls-12 {
        opacity: .02;
      }

      .cls-206 {
        opacity: .48;
      }

      .cls-13 {
        opacity: .04;
      }

      .cls-14 {
        opacity: .33;
      }

      .cls-15 {
        opacity: .31;
      }

      .cls-16 {
        opacity: .89;
      }

      .cls-294 {
        fill: #2b2724;
      }

      .cls-17 {
        opacity: .82;
      }

      .cls-18 {
        opacity: .09;
      }

      .cls-19 {
        opacity: .22;
      }

      .cls-20 {
        opacity: .32;
      }

      .cls-208 {
        fill: #b8b8b8;
      }

      .cls-21 {
        opacity: .41;
      }

      .cls-295 {
        fill: #675a4d;
      }

      .cls-22 {
        opacity: .65;
      }

      .cls-23 {
        opacity: .16;
      }

      .cls-296 {
        fill: #d9d9d9;
      }

      .cls-24 {
        opacity: .54;
      }

      .cls-25 {
        opacity: .57;
      }

      .cls-26 {
        opacity: .3;
      }

      .cls-209 {
        opacity: .24;
      }

      .cls-210 {
        opacity: .1;
      }

      .cls-27 {
        opacity: .66;
      }

      .cls-28 {
        opacity: .23;
      }

      .cls-211 {
        opacity: .6;
      }

      .cls-29 {
        opacity: .46;
      }

      .cls-30 {
        opacity: .91;
      }

      .cls-31 {
        opacity: .19;
      }

      .cls-212 {
        opacity: .54;
      }

      .cls-32 {
        opacity: .3;
      }

      .cls-33 {
        opacity: .73;
      }

      .cls-213 {
        opacity: .55;
      }

      .cls-34 {
        opacity: .34;
      }

      .cls-214 {
        opacity: .73;
      }

      .cls-215, .cls-96 {
        opacity: .58;
      }

      .cls-35 {
        opacity: .96;
      }

      .cls-36 {
        opacity: .68;
      }

      .cls-37 {
        opacity: .2;
      }

      .cls-38 {
        opacity: .19;
      }

      .cls-39 {
        opacity: .45;
      }

      .cls-40 {
        opacity: .81;
      }

      .cls-297 {
        fill: #c5c5c4;
      }

      .cls-41 {
        opacity: .69;
      }

      .cls-42 {
        opacity: .93;
      }

      .cls-216 {
        opacity: .35;
      }

      .cls-43 {
        opacity: .44;
      }

      .cls-44 {
        opacity: .65;
      }

      .cls-45 {
        opacity: .87;
      }

      .cls-46 {
        opacity: .95;
      }

      .cls-47 {
        opacity: .79;
      }

      .cls-48 {
        opacity: .84;
      }

      .cls-49 {
        opacity: .96;
      }

      .cls-50 {
        opacity: .54;
      }

      .cls-51 {
        opacity: .79;
      }

      .cls-52 {
        opacity: .39;
      }

      .cls-217 {
        opacity: .3;
      }

      .cls-218 {
        opacity: .95;
      }

      .cls-219 {
        opacity: 0;
      }

      .cls-53 {
        opacity: .79;
      }

      .cls-54 {
        opacity: .79;
      }

      .cls-55 {
        opacity: .99;
      }

      .cls-220 {
        opacity: .7;
      }

      .cls-221 {
        opacity: .4;
      }

      .cls-222 {
        opacity: .17;
      }

      .cls-56 {
        opacity: .27;
      }

      .cls-57 {
        opacity: .16;
      }

      .cls-58 {
        opacity: .17;
      }

      .cls-59 {
        opacity: .47;
      }

      .cls-223 {
        opacity: .73;
      }

      .cls-60 {
        opacity: .88;
      }

      .cls-224 {
        opacity: .55;
      }

      .cls-225 {
        opacity: .77;
      }

      .cls-61 {
        opacity: .81;
      }

      .cls-226 {
        opacity: .91;
      }

      .cls-227 {
        opacity: .23;
      }

      .cls-228 {
        opacity: .25;
      }

      .cls-62 {
        opacity: .63;
      }

      .cls-63 {
        opacity: .85;
      }

      .cls-64 {
        opacity: .84;
      }

      .cls-65 {
        opacity: .03;
      }

      .cls-66 {
        opacity: .01;
      }

      .cls-67 {
        opacity: .03;
      }

      .cls-229 {
        opacity: .39;
      }

      .cls-68 {
        opacity: .6;
      }

      .cls-298 {
        fill: #659348;
      }

      .cls-69 {
        opacity: .19;
      }

      .cls-70 {
        opacity: .62;
      }

      .cls-71 {
        opacity: .61;
      }

      .cls-230 {
        opacity: .29;
      }

      .cls-231 {
        opacity: .14;
      }

      .cls-299 {
        fill: #cac9c9;
      }

      .cls-72 {
        opacity: .11;
      }

      .cls-232 {
        opacity: .97;
      }

      .cls-73 {
        opacity: .18;
      }

      .cls-74 {
        opacity: .84;
      }

      .cls-233 {
        opacity: .78;
      }

      .cls-75 {
        opacity: .11;
      }

      .cls-76 {
        opacity: .3;
      }

      .cls-77 {
        opacity: .8;
      }

      .cls-234 {
        opacity: .58;
      }

      .cls-78 {
        opacity: .46;
      }

      .cls-300 {
        fill: #74563e;
      }

      .cls-235 {
        opacity: .35;
      }

      .cls-79 {
        opacity: .8;
      }

      .cls-301 {
        fill: #a2695a;
      }

      .cls-80 {
        opacity: .22;
      }

      .cls-236 {
        opacity: .07;
      }

      .cls-81 {
        opacity: .87;
      }

      .cls-82 {
        opacity: .68;
      }

      .cls-237 {
        opacity: .87;
      }

      .cls-83 {
        opacity: .55;
      }

      .cls-84 {
        opacity: .51;
      }

      .cls-238 {
        opacity: .52;
      }

      .cls-302 {
        fill: #5a4330;
      }

      .cls-85 {
        opacity: .35;
      }

      .cls-239 {
        opacity: .06;
      }

      .cls-86 {
        opacity: .79;
      }

      .cls-240 {
        opacity: .4;
      }

      .cls-87 {
        opacity: .2;
      }

      .cls-303 {
        isolation: isolate;
      }

      .cls-241 {
        opacity: .14;
      }

      .cls-88 {
        opacity: .15;
      }

      .cls-89 {
        opacity: .84;
      }

      .cls-90 {
        opacity: .3;
      }

      .cls-91 {
        opacity: .97;
      }

      .cls-242 {
        opacity: .22;
      }

      .cls-92 {
        opacity: .77;
      }

      .cls-93 {
        opacity: .27;
      }

      .cls-94 {
        opacity: .39;
      }

      .cls-243 {
        opacity: .33;
      }

      .cls-304 {
        fill: #a18d79;
      }

      .cls-244 {
        opacity: 0;
      }

      .cls-95 {
        opacity: .76;
      }

      .cls-97 {
        opacity: .25;
      }

      .cls-98 {
        opacity: .2;
      }

      .cls-99 {
        opacity: .19;
      }

      .cls-100 {
        opacity: .78;
      }

      .cls-101 {
        opacity: .03;
      }

      .cls-245 {
        opacity: .92;
      }

      .cls-246 {
        opacity: .94;
      }

      .cls-102 {
        opacity: .12;
      }

      .cls-103 {
        opacity: .39;
      }

      .cls-247 {
        opacity: .12;
      }

      .cls-248 {
        opacity: .72;
      }

      .cls-249 {
        opacity: .82;
      }

      .cls-104 {
        opacity: .61;
      }

      .cls-105 {
        opacity: .63;
      }

      .cls-250 {
        opacity: .46;
      }

      .cls-106 {
        opacity: .22;
      }

      .cls-251, .cls-173 {
        opacity: .55;
      }

      .cls-305 {
        fill: #64625c;
      }

      .cls-107 {
        opacity: .58;
      }

      .cls-108 {
        opacity: .4;
      }

      .cls-252 {
        opacity: .07;
      }

      .cls-306 {
        fill: #89a427;
      }

      .cls-307 {
        fill: #928075;
      }

      .cls-308 {
        fill: #3c2c22;
      }

      .cls-109 {
        opacity: .71;
      }

      .cls-253 {
        opacity: .51;
      }

      .cls-254 {
        opacity: .12;
      }

      .cls-110 {
        opacity: .79;
      }

      .cls-111 {
        opacity: .59;
      }

      .cls-309 {
        fill: #5d8840;
      }

      .cls-112 {
        opacity: 0;
      }

      .cls-113 {
        opacity: .54;
      }

      .cls-310 {
        fill: #9b7768;
      }

      .cls-114 {
        opacity: .89;
      }

      .cls-255 {
        opacity: .96;
      }

      .cls-115 {
        opacity: .56;
      }

      .cls-116 {
        opacity: .66;
      }

      .cls-117 {
        opacity: .11;
      }

      .cls-118 {
        opacity: .24;
      }

      .cls-119 {
        opacity: .15;
      }

      .cls-120 {
        opacity: .01;
      }

      .cls-121 {
        opacity: .83;
      }

      .cls-122 {
        opacity: .74;
      }

      .cls-123 {
        opacity: 0;
      }

      .cls-257 {
        opacity: .21;
      }

      .cls-124 {
        opacity: .6;
      }

      .cls-125 {
        opacity: .82;
      }

      .cls-126 {
        opacity: .32;
      }

      .cls-258 {
        opacity: .58;
      }

      .cls-127 {
        opacity: .07;
      }

      .cls-128 {
        opacity: .04;
      }

      .cls-259 {
        opacity: .1;
      }

      .cls-129 {
        opacity: .83;
      }

      .cls-260 {
        opacity: .11;
      }

      .cls-130 {
        opacity: .32;
      }

      .cls-261 {
        opacity: .83;
      }

      .cls-131 {
        opacity: .47;
      }

      .cls-132 {
        opacity: .23;
      }

      .cls-133 {
        opacity: .19;
      }

      .cls-311 {
        fill: #d29e6e;
      }

      .cls-262 {
        opacity: .4;
      }

      .cls-263 {
        opacity: .68;
      }

      .cls-264 {
        opacity: .57;
      }

      .cls-134 {
        opacity: .74;
      }

      .cls-135 {
        opacity: .65;
      }

      .cls-265 {
        opacity: .3;
      }

      .cls-266 {
        opacity: .38;
      }

      .cls-136 {
        opacity: .66;
      }

      .cls-137 {
        opacity: .5;
      }

      .cls-138 {
        opacity: .42;
      }

      .cls-139 {
        opacity: .21;
      }

      .cls-140 {
        opacity: .96;
      }

      .cls-141 {
        opacity: .72;
      }

      .cls-142 {
        opacity: .13;
      }

      .cls-267 {
        opacity: .72;
      }

      .cls-143 {
        opacity: .32;
      }

      .cls-144 {
        opacity: .67;
      }

      .cls-145 {
        opacity: .39;
      }

      .cls-146 {
        opacity: .65;
      }

      .cls-312 {
        fill: #b58667;
      }

      .cls-268 {
        opacity: .25;
      }

      .cls-147 {
        opacity: .7;
      }

      .cls-148 {
        opacity: .26;
      }

      .cls-269 {
        opacity: .8;
      }

      .cls-149 {
        opacity: .13;
      }

      .cls-270 {
        opacity: .29;
      }

      .cls-150 {
        opacity: .39;
      }

      .cls-151 {
        opacity: .66;
      }

      .cls-152 {
        opacity: .52;
      }

      .cls-153 {
        opacity: .92;
      }

      .cls-154 {
        opacity: .03;
      }

      .cls-271 {
        opacity: .28;
      }

      .cls-155 {
        opacity: .6;
      }

      .cls-272 {
        opacity: .67;
      }

      .cls-273 {
        opacity: .15;
      }

      .cls-156 {
        opacity: .3;
      }

      .cls-274 {
        fill: url(#linear-gradient);
      }

      .cls-275 {
        opacity: .27;
      }

      .cls-157 {
        opacity: .91;
      }

      .cls-158 {
        opacity: .48;
      }

      .cls-159 {
        opacity: .94;
      }

      .cls-160 {
        opacity: .06;
      }

      .cls-161 {
        opacity: .24;
      }

      .cls-162 {
        opacity: .9;
      }

      .cls-163 {
        opacity: .27;
      }

      .cls-164 {
        opacity: .75;
      }

      .cls-165 {
        opacity: .4;
      }

      .cls-313 {
        fill: #3b3328;
      }

      .cls-166 {
        opacity: .98;
      }

      .cls-167 {
        opacity: .9;
      }

      .cls-168 {
        opacity: .33;
      }

      .cls-169 {
        opacity: .26;
      }

      .cls-276 {
        opacity: .25;
      }

      .cls-314 {
        fill: #c6b5a5;
      }

      .cls-170 {
        opacity: .67;
      }

      .cls-277 {
        opacity: .75;
      }

      .cls-171 {
        opacity: .13;
      }

      .cls-172 {
        opacity: .56;
      }

      .cls-174 {
        opacity: .43;
      }

      .cls-175 {
        opacity: .45;
      }

      .cls-176 {
        opacity: .58;
      }

      .cls-278 {
        opacity: .09;
      }

      .cls-177 {
        opacity: .08;
      }

      .cls-178 {
        opacity: .45;
      }

      .cls-179 {
        opacity: .19;
      }

      .cls-180 {
        opacity: .76;
      }

      .cls-279 {
        opacity: .96;
      }

      .cls-181 {
        opacity: .14;
      }

      .cls-315 {
        clip-path: url(#clippath);
      }

      .cls-316 {
        opacity: .91;
      }

      .cls-182 {
        opacity: .6;
      }

      .cls-183 {
        opacity: .24;
      }

      .cls-280 {
        opacity: .52;
      }

      .cls-281 {
        opacity: .31;
      }

      .cls-282 {
        opacity: .41;
      }

      .cls-184 {
        opacity: .15;
      }

      .cls-185 {
        opacity: .94;
      }

      .cls-186 {
        opacity: .93;
      }

      .cls-187 {
        opacity: .29;
      }

      .cls-188 {
        opacity: .4;
      }

      .cls-284 {
        opacity: .69;
      }

      .cls-189 {
        opacity: .4;
      }

      .cls-285 {
        opacity: .36;
      }

      .cls-190 {
        opacity: .28;
      }

      .cls-286 {
        opacity: .37;
      }

      .cls-287 {
        opacity: .16;
      }

      .cls-191 {
        opacity: .37;
      }

      .cls-192 {
        opacity: .37;
      }

      .cls-193 {
        opacity: .09;
      }

      .cls-194 {
        opacity: .68;
      }

      .cls-288 {
        opacity: .09;
      }

      .cls-195 {
        opacity: .84;
      }

      .cls-289 {
        opacity: .97;
      }

      .cls-196 {
        opacity: .77;
      }

      .cls-290 {
        opacity: .01;
      }
    </style>
    <linearGradient id="linear-gradient" x1="349.73" y1="301.72" x2="369.09" y2="301.72" gradientUnits="userSpaceOnUse">
      <stop offset="0" stop-color="#d6cfc3"/>
      <stop offset="1" stop-color="#fff"/>
    </linearGradient>
    <clipPath id="clippath">
      <polygon class="cls-314" points="323.67 307.74 256.46 307.74 245.63 361.3 334.51 361.3 323.67 307.74"/>
    </clipPath>
    <linearGradient id="linear-gradient-2" x1="121.08" y1="166.42" x2="238.71" y2="166.42" xlink:href="#linear-gradient"/>
  </defs>
  <!-- Generator: Adobe Illustrator 28.6.0, SVG Export Plug-In . SVG Version: 1.2.0 Build 709)  -->
  <g class="cls-303">
    <g id="Calque_1">
      <g>
        <path class="cls-306" d="M438.57,311.38s-.02,0-.03,0H69.74s-.02,0-.03,0c-19.65,0-35.57,15.93-35.57,35.57s15.93,35.57,35.57,35.57h368.86c19.65,0,35.57-15.92,35.57-35.57s-15.92-35.57-35.57-35.57Z"/>
        <g>
          <path class="cls-207" d="M465.07,323.27c-16.53-1.43-43.96-2.39-62.32-2.39-27.82,0-24.28,2.21-24.28,4.91s-3.54,4.91,24.28,4.91c19.76,0,50-1.11,65.88-2.72-1.06-1.67-2.25-3.24-3.56-4.71Z"/>
          <g>
            <path class="cls-302" d="M383.61,323.29c-6.32,0-11.44,1.04-11.44,2.33s5.13,2.32,11.44,2.32,11.45-1.04,11.45-2.32-5.12-2.33-11.45-2.33Z"/>
            <g>
              <rect class="cls-300" x="378.84" y="264.28" width="9.81" height="61.34"/>
              <path class="cls-298" d="M383.74,212.76c-16.94,0-30.67,34.58-30.67,51.52s13.73,30.67,30.67,30.67,30.67-13.73,30.67-30.67-13.73-51.52-30.67-51.52Z"/>
              <path class="cls-309" d="M353.74,256.96c-.43,2.66-.66,5.13-.66,7.32,0,16.94,13.73,30.67,30.67,30.67,4.33,0,8.45-.91,12.18-2.52-19.33-3.54-35.39-17.37-42.18-35.46Z"/>
            </g>
          </g>
        </g>
        <rect class="cls-304" x="84.57" y="198.45" width="284.61" height="148.11"/>
        <polygon class="cls-304" points="449.35 233.05 369.17 233.05 369.17 198.45 449.35 227.06 449.35 233.05"/>
        <rect class="cls-305" x="440.55" y="233.05" width="5.87" height="113.9"/>
        <g>
          <polygon class="cls-223" points="378.38 201.74 369.17 198.45 369.17 233.05 378.38 233.05 378.38 201.74"/>
          <polygon class="cls-248" points="388.98 233.05 388.98 205.52 379.77 202.23 379.77 233.05 388.98 233.05"/>
          <polygon class="cls-255" points="399.57 233.05 399.57 209.3 390.36 206.01 390.36 233.05 399.57 233.05"/>
          <polygon class="cls-225" points="410.16 233.05 410.16 213.08 400.95 209.79 400.95 233.05 410.16 233.05"/>
          <polygon class="cls-223" points="420.75 233.05 420.75 216.86 411.54 213.57 411.54 233.05 420.75 233.05"/>
          <polygon class="cls-266" points="431.34 233.05 431.34 220.63 422.13 217.35 422.13 233.05 431.34 233.05"/>
          <polygon class="cls-262" points="441.94 233.05 441.94 224.41 432.73 221.13 432.73 233.05 441.94 233.05"/>
          <polygon class="cls-272" points="449.35 233.05 449.35 227.06 443.32 224.91 443.32 233.05 449.35 233.05"/>
        </g>
        <path class="cls-274" d="M335.94,256.96l33.23,15.23-.08,73.74-34.59.56,10.58-21.86,1.35-38.27s-7.65-18.82-8.07-19.44-3.87-9.1-3.87-9.1l1.44-.85Z"/>
        <rect class="cls-301" x="407.49" y="170.19" width="3.54" height="85.13" transform="translate(71.36 526.73) rotate(-70.37)"/>
        <polygon class="cls-310" points="404.9 198.45 64.74 198.45 90.47 104.07 379.17 104.07 404.9 198.45"/>
        <g>
          <rect class="cls-273" x="84.57" y="198.45" width="9.21" height="148.5"/>
          <rect class="cls-248" x="95.16" y="198.45" width="9.21" height="148.5"/>
          <rect class="cls-255" x="105.75" y="198.45" width="9.21" height="148.5"/>
          <rect class="cls-225" x="116.34" y="198.45" width="9.21" height="148.5"/>
          <rect class="cls-223" x="126.93" y="198.45" width="9.21" height="148.5"/>
          <rect class="cls-266" x="137.53" y="198.45" width="9.21" height="148.5"/>
          <rect class="cls-262" x="148.12" y="198.45" width="9.21" height="148.5"/>
          <rect class="cls-272" x="158.71" y="198.45" width="9.21" height="148.5"/>
          <rect class="cls-221" x="169.3" y="198.45" width="9.21" height="148.5"/>
          <rect class="cls-201" x="179.9" y="198.45" width="9.21" height="148.5"/>
          <rect class="cls-226" x="190.49" y="198.45" width="9.21" height="148.5"/>
          <rect class="cls-204" x="201.08" y="198.45" width="9.21" height="148.5"/>
          <rect class="cls-241" x="211.67" y="198.45" width="9.21" height="148.5"/>
          <rect class="cls-233" x="222.26" y="198.45" width="9.21" height="148.5"/>
          <rect class="cls-222" x="232.86" y="198.45" width="9.21" height="148.5"/>
          <rect class="cls-240" x="243.45" y="198.45" width="9.21" height="148.5"/>
          <rect class="cls-286" x="254.04" y="198.45" width="9.21" height="148.5"/>
          <rect class="cls-214" x="264.63" y="198.45" width="9.21" height="148.5"/>
          <rect class="cls-235" x="275.23" y="198.45" width="9.21" height="148.5"/>
          <rect class="cls-253" x="285.82" y="198.45" width="9.21" height="148.5"/>
          <rect class="cls-234" x="296.41" y="198.45" width="9.21" height="148.5"/>
          <rect class="cls-230" x="307" y="198.45" width="9.21" height="148.5"/>
          <rect class="cls-237" x="317.59" y="198.45" width="9.21" height="148.5"/>
          <rect class="cls-269" x="328.19" y="198.45" width="9.21" height="148.5"/>
          <rect class="cls-267" x="338.78" y="198.45" width="9.21" height="148.5"/>
          <rect class="cls-250" x="349.37" y="198.45" width="9.21" height="148.5"/>
          <rect class="cls-270" x="359.96" y="198.45" width="9.21" height="148.5"/>
        </g>
        <path class="cls-208" d="M345.09,299.01c0,29.87-24.22,54.09-54.09,54.09s-54.09-24.21-54.09-54.09,24.22-54.09,54.09-54.09,54.09,24.22,54.09,54.09Z"/>
        <rect class="cls-306" x="213.56" y="345.96" width="177.99" height="35.13"/>
        <path class="cls-197" d="M474.09,345.93H88.78c.78,4.62.52,9.44-.75,13.94h383.66c1.56-4.01,2.45-8.35,2.45-12.91,0-.35-.04-.68-.05-1.02Z"/>
        <g class="cls-256">
          <rect class="cls-297" x="84.57" y="234.59" width="284.61" height="3.54"/>
        </g>
        <path class="cls-312" d="M284.35,355.28h24.05c3.64,0,7.12.74,10.33,2.06,21.27-10.32,35.97-32.05,35.97-57.28,0-35.18-28.52-63.7-63.7-63.7s-63.7,28.52-63.7,63.7c0,27.52,17.49,50.9,41.94,59.8,4.38-2.88,9.57-4.59,15.11-4.59ZM236.91,300.06c0-29.88,24.22-54.09,54.09-54.09s54.09,24.22,54.09,54.09-24.22,54.09-54.09,54.09-54.09-24.22-54.09-54.09Z"/>
        <rect class="cls-312" x="288.34" y="245.97" width="5.31" height="100.98"/>
        <rect class="cls-312" x="288.34" y="245.97" width="5.31" height="108.18" transform="translate(-126.94 293.68) rotate(-45)"/>
        <rect class="cls-312" x="236.91" y="297.41" width="108.18" height="5.31"/>
        <rect class="cls-312" x="236.91" y="297.41" width="108.18" height="5.31" transform="translate(-126.95 293.68) rotate(-45)"/>
        <g>
          <path class="cls-308" d="M300.84,300.06c0,5.44-4.41,9.85-9.85,9.85s-9.85-4.41-9.85-9.85,4.41-9.85,9.85-9.85,9.85,4.41,9.85,9.85Z"/>
          <path class="cls-307" d="M295.02,300.06c0,2.22-1.8,4.02-4.02,4.02s-4.02-1.8-4.02-4.02,1.8-4.02,4.02-4.02,4.02,1.8,4.02,4.02Z"/>
          <path class="cls-294" d="M292.4,300.06c0,.77-.63,1.4-1.4,1.4s-1.4-.63-1.4-1.4.63-1.4,1.4-1.4,1.4.63,1.4,1.4Z"/>
        </g>
        <g>
          <polygon class="cls-314" points="323.67 307.74 256.46 307.74 245.63 361.3 334.51 361.3 323.67 307.74"/>
          <g class="cls-315">
            <g class="cls-256">
              <path class="cls-130" d="M202.78,232.96h-20.75v-7.71h20.75v7.71Z"/>
              <path class="cls-96" d="M226.13,225.25h-20.75v7.71h20.75v-7.71Z"/>
              <path class="cls-30" d="M249.48,225.25h-20.75v7.71h20.75v-7.71Z"/>
              <path class="cls-125" d="M272.84,225.25h-20.76v7.71h20.76v-7.71Z"/>
              <path class="cls-132" d="M296.2,225.25h-20.76v7.71h20.76v-7.71Z"/>
              <path class="cls-90" d="M319.56,225.25h-20.76v7.71h20.76v-7.71Z"/>
              <path class="cls-120" d="M342.91,225.25h-20.75v7.71h20.75v-7.71Z"/>
              <path class="cls-187" d="M366.26,225.25h-20.75v7.71h20.75v-7.71Z"/>
              <path class="cls-184" d="M389.61,225.25h-20.75v7.71h20.75v-7.71Z"/>
              <path class="cls-106" d="M214.66,234.35h-20.76v7.71h20.76v-7.71Z"/>
              <path class="cls-124" d="M238.01,234.35h-7.23c-2.15,0-4.15-.01-6.3-.01s-4.46.01-7.22.01v7.71h20.75v-7.71Z"/>
              <path class="cls-126" d="M261.37,234.35h-20.75v7.71h20.75v-7.71Z"/>
              <path class="cls-175" d="M284.72,234.35h-20.75v7.71h13.53c2.15,0,4.46-.01,7.22-.01v-7.7Z"/>
              <path class="cls-118" d="M308.07,234.35h-20.75v7.71h20.75v-7.71Z"/>
              <path class="cls-166" d="M331.43,234.35h-20.75v7.71h20.75v-7.71Z"/>
              <path class="cls-151" d="M354.79,234.35h-20.75v7.71h20.75v-7.71Z"/>
              <path class="cls-107" d="M378.14,234.35h-20.75v7.71h20.75v-7.71Z"/>
              <path class="cls-129" d="M202.78,243.67h-20.75v7.71h20.75v-7.71Z"/>
              <path class="cls-39" d="M226.13,243.67h-20.75v7.71h20.75v-7.71Z"/>
              <path class="cls-61" d="M249.48,243.67h-20.75v7.71h20.75v-7.71Z"/>
              <path class="cls-19" d="M272.84,243.67h-20.76v7.71h20.76v-7.71Z"/>
              <path class="cls-165" d="M296.2,243.67h-20.76v7.71h20.76v-7.71Z"/>
              <path class="cls-79" d="M319.56,243.67h-20.76v7.71h20.76v-7.71Z"/>
              <path class="cls-1" d="M342.91,243.67h-20.75v7.71h20.75v-7.71Z"/>
              <path class="cls-69" d="M366.26,243.67h-20.75v7.71h20.75v-7.71Z"/>
              <path class="cls-22" d="M389.61,243.67h-20.75v7.71h20.75v-7.71Z"/>
              <path class="cls-110" d="M214.66,252.76h-20.76v7.71h20.76v-7.71Z"/>
              <path class="cls-72" d="M238.01,252.76h-20.75v7.71h20.75v-7.71Z"/>
              <path class="cls-78" d="M261.37,252.76h-7.23c-2.15,0-4.15,0-6.3,0s-4.46,0-7.22,0v7.71h20.75v-7.71Z"/>
              <path class="cls-48" d="M284.72,252.76h-20.75v7.71h20.75v-7.71Z"/>
              <path class="cls-122" d="M308.07,252.76h-20.75v7.71h20.75v-7.71Z"/>
              <path class="cls-43" d="M331.43,252.76h-20.75v7.71h20.75v-7.71Z"/>
              <path class="cls-85" d="M354.79,252.76h-20.75v7.71h20.75v-7.71Z"/>
              <path class="cls-4" d="M378.14,252.76h-20.75v7.71h20.75v-7.71Z"/>
              <path class="cls-40" d="M202.78,262.09h-20.75v7.71h20.75v-7.71Z"/>
              <path class="cls-121" d="M226.13,262.09h-20.75v7.71h20.75v-7.71Z"/>
              <path class="cls-2" d="M249.48,262.09h-20.75v7.71h20.75v-7.71Z"/>
              <path class="cls-18" d="M272.84,262.09h-20.76v7.71h20.76v-7.71Z"/>
              <path class="cls-194" d="M296.2,262.09h-20.76v7.71h20.76v-7.71Z"/>
              <path class="cls-162" d="M319.56,262.09h-20.76v7.71h20.76v-7.71Z"/>
              <path class="cls-135" d="M342.91,262.09h-20.75v7.71h20.75v-7.71Z"/>
              <path class="cls-149" d="M366.26,262.09h-20.75v7.71h20.75v-7.71Z"/>
              <path class="cls-152" d="M389.61,262.09h-20.75v7.71h20.75v-7.71Z"/>
              <path class="cls-133" d="M214.66,271.19h-20.76v7.7h20.76v-7.7Z"/>
              <path class="cls-51" d="M238.01,271.19h-20.75v7.7h20.75v-7.7Z"/>
              <path class="cls-188" d="M261.37,271.19h-20.75v7.7h20.75v-7.7Z"/>
              <path class="cls-113" d="M284.72,271.18c-2.77,0-5.07,0-7.22,0h-13.53v7.7h20.75v-7.71Z"/>
              <path class="cls-176" d="M308.07,271.19h-20.75v7.7h20.75v-7.7Z"/>
              <path class="cls-158" d="M331.43,271.19h-20.75v7.7h20.75v-7.7Z"/>
              <path class="cls-169" d="M354.79,271.19h-20.75v7.7h20.75v-7.7Z"/>
              <path class="cls-168" d="M378.14,271.19h-20.75v7.7h20.75v-7.7Z"/>
              <path class="cls-35" d="M202.78,280.52h-20.75v7.71h20.75v-7.71Z"/>
              <path class="cls-38" d="M226.13,280.52h-20.75v7.71h20.75v-7.71Z"/>
              <path class="cls-81" d="M249.48,280.52h-7.22c-2.15,0-4.15,0-6.3,0s-4.46,0-7.22,0v7.71h20.75v-7.71Z"/>
              <path class="cls-186" d="M272.84,280.52h-20.76v7.71h20.76v-7.71Z"/>
              <path class="cls-26" d="M296.2,280.52h-20.76v7.71h20.76v-7.71Z"/>
              <path class="cls-3" d="M319.56,280.52h-20.76v7.71h20.76v-7.71Z"/>
              <path class="cls-101" d="M342.91,280.52h-20.75v7.71h20.75v-7.71Z"/>
              <path class="cls-36" d="M366.26,280.52h-20.75v7.71h20.75v-7.71Z"/>
              <path class="cls-24" d="M389.61,280.52h-20.75v7.71h20.75v-7.71Z"/>
              <path class="cls-100" d="M214.66,289.6h-20.76v7.72h20.76v-7.72Z"/>
              <path class="cls-56" d="M238.01,289.6h-20.75v7.72h20.75v-7.72Z"/>
              <path class="cls-16" d="M261.37,289.6h-20.75v7.72h20.75v-7.72Z"/>
              <path class="cls-105" d="M284.72,289.6h-20.75v7.72c2.77,0,5.07,0,7.23,0s4.15,0,6.3,0,4.46,0,7.22,0v-7.71Z"/>
              <path class="cls-66" d="M308.07,289.6h-20.75v7.72h20.75v-7.72Z"/>
              <path class="cls-128" d="M331.43,289.6h-20.75v7.72h20.75v-7.72Z"/>
              <path class="cls-71" d="M354.79,289.6h-20.75v7.72h20.75v-7.72Z"/>
              <path class="cls-82" d="M378.14,289.6h-20.75v7.72h20.75v-7.72Z"/>
              <path class="cls-14" d="M202.78,298.94h-20.75v7.71h20.75v-7.71Z"/>
              <path class="cls-153" d="M226.13,298.94h-20.75v7.71h20.75v-7.71Z"/>
              <path class="cls-68" d="M249.48,298.93c-2.77,0-5.06,0-7.22,0h-13.53v7.71h20.75v-7.72Z"/>
              <path class="cls-5" d="M272.84,298.94h-20.76v7.71h20.76v-7.71Z"/>
              <path class="cls-109" d="M296.2,298.94h-20.76v7.71h20.76v-7.71Z"/>
              <path class="cls-143" d="M319.56,298.94h-20.76v7.71h20.76v-7.71Z"/>
              <path class="cls-74" d="M342.91,298.94h-20.75v7.71h20.75v-7.71Z"/>
              <path class="cls-94" d="M366.26,298.94h-20.75v7.71h20.75v-7.71Z"/>
              <path class="cls-88" d="M389.61,298.94h-20.75v7.71h20.75v-7.71Z"/>
              <path class="cls-87" d="M214.66,308.02h-20.76v7.72h20.76v-7.72Z"/>
              <path class="cls-13" d="M238.01,308.02h-20.75v7.72h20.75v-7.72Z"/>
              <path class="cls-70" d="M261.37,308.02h-20.75v7.72h20.75v-7.72Z"/>
              <path class="cls-155" d="M284.72,308.02h-20.75v7.72h20.75v-7.72Z"/>
              <path class="cls-116" d="M308.07,308.02h-20.75v7.72h20.75v-7.72Z"/>
              <path class="cls-89" d="M331.43,308.02h-20.75v7.72h20.75v-7.72Z"/>
              <path class="cls-170" d="M354.79,308.02h-20.75v7.72h20.75v-7.72Z"/>
              <path class="cls-45" d="M378.14,308.02h-20.75v7.72h20.75v-7.72Z"/>
              <path class="cls-179" d="M202.78,317.36h-20.75v7.71h20.75v-7.71Z"/>
              <path class="cls-145" d="M226.13,317.36h-20.75v7.71h20.75v-7.71Z"/>
              <path class="cls-8" d="M249.48,317.36h-20.75v7.71h20.75v-7.71Z"/>
              <path class="cls-12" d="M272.84,317.36h-20.76v7.71h20.76v-7.71Z"/>
              <path class="cls-112" d="M296.2,317.36h-20.76v7.71h20.76v-7.71Z"/>
              <path class="cls-62" d="M319.56,317.36h-20.76v7.71h20.76v-7.71Z"/>
              <path class="cls-27" d="M342.91,317.36h-20.75v7.71h20.75v-7.71Z"/>
              <path class="cls-177" d="M366.26,317.36h-20.75v7.71h20.75v-7.71Z"/>
              <path class="cls-171" d="M389.61,317.36h-20.75v7.71h20.75v-7.71Z"/>
              <path class="cls-164" d="M214.66,326.45h-20.76v7.72h20.76v-7.72Z"/>
              <path class="cls-174" d="M238.01,326.45h-20.75v7.72h20.75v-7.72Z"/>
              <path class="cls-98" d="M261.37,326.45h-20.75v7.72h20.75v-7.72Z"/>
              <path class="cls-111" d="M284.72,326.45h-20.75v7.72h20.75v-7.72Z"/>
              <path class="cls-146" d="M308.07,326.45h-20.75v7.72h20.75v-7.72Z"/>
              <path class="cls-191" d="M331.43,326.45h-20.75v7.72h20.75v-7.72Z"/>
              <path class="cls-189" d="M354.79,326.45h-20.75v7.72h20.75v-7.72Z"/>
              <path class="cls-167" d="M378.14,326.45h-20.75v7.72h20.75v-7.72Z"/>
              <path class="cls-54" d="M202.78,335.78h-20.75v7.71h20.75v-7.71Z"/>
              <path class="cls-7" d="M226.13,335.78h-20.75v7.71h20.75v-7.71Z"/>
              <path class="cls-50" d="M249.48,335.78h-20.75v7.71h20.75v-7.71Z"/>
              <path class="cls-46" d="M272.84,335.78h-20.76v7.71h20.76v-7.71Z"/>
              <path class="cls-192" d="M296.2,335.78h-20.76v7.71h20.76v-7.71Z"/>
              <path class="cls-159" d="M319.56,335.78h-20.76v7.71h20.76v-7.71Z"/>
              <path class="cls-180" d="M342.91,335.78h-20.75v7.71h20.75v-7.71Z"/>
              <path class="cls-123" d="M366.26,335.78h-20.75v7.71h20.75v-7.71Z"/>
              <path class="cls-153" d="M389.61,335.78h-20.75v7.71h20.75v-7.71Z"/>
              <path class="cls-21" d="M214.66,344.86h-20.76v7.72h20.76v-7.72Z"/>
              <path class="cls-42" d="M238.01,344.86h-20.75v7.72h20.75v-7.72Z"/>
              <path class="cls-49" d="M261.37,344.86h-20.75v7.72h20.75v-7.72Z"/>
              <path class="cls-144" d="M284.72,344.86h-20.75v7.72h20.75v-7.72Z"/>
              <path class="cls-67" d="M308.07,344.86h-20.75v7.72h20.75v-7.72Z"/>
              <path class="cls-93" d="M331.43,344.86h-20.75v7.72h20.75v-7.72Z"/>
              <path class="cls-23" d="M354.79,344.86h-20.75v7.72h20.75v-7.72Z"/>
              <path class="cls-141" d="M378.14,344.86h-20.75v7.72h20.75v-7.72Z"/>
              <path class="cls-183" d="M202.78,354.2h-20.75v7.71h20.75v-7.71Z"/>
              <path class="cls-193" d="M226.13,354.2h-20.75v7.71h20.75v-7.71Z"/>
              <path class="cls-137" d="M249.48,354.2h-20.75v7.71c2.77,0,5.07,0,7.22,0s4.15,0,6.3,0h7.22v-7.71Z"/>
              <path class="cls-196" d="M272.84,354.2h-20.76v7.71h20.76v-7.71Z"/>
              <path class="cls-178" d="M296.2,354.2h-13.53c-2.15,0-4.46,0-7.23,0v7.71h20.76v-7.71Z"/>
              <path class="cls-6" d="M319.56,354.2h-20.76v7.71h20.76v-7.71Z"/>
              <path class="cls-156" d="M342.91,354.2h-20.75v7.71h20.75v-7.71Z"/>
              <path class="cls-182" d="M366.26,354.2h-20.75v7.71h20.75v-7.71Z"/>
              <path class="cls-185" d="M389.61,354.2h-20.75v7.71h20.75v-7.71Z"/>
              <path class="cls-102" d="M214.66,363.29h-20.76v7.71h20.76v-7.71Z"/>
              <path class="cls-117" d="M238.01,363.29h-20.75v7.71h20.75v-7.71Z"/>
              <path class="cls-44" d="M261.37,363.29h-20.75v7.71h20.75v-7.71Z"/>
              <path class="cls-108" d="M284.72,363.29h-20.75v7.71h20.75v-7.71Z"/>
              <path class="cls-157" d="M308.07,363.29h-20.75v7.71h20.75v-7.71Z"/>
              <path class="cls-181" d="M331.43,363.29h-20.75v7.71h20.75v-7.71Z"/>
              <path class="cls-25" d="M354.79,363.29h-20.75v7.71h20.75v-7.71Z"/>
              <path class="cls-97" d="M378.14,363.29h-20.75v7.71h20.75v-7.71Z"/>
              <path class="cls-172" d="M202.78,372.63h-20.75v7.71h20.75v-7.71Z"/>
              <path class="cls-41" d="M226.13,372.63h-20.75v7.71h20.75v-7.71Z"/>
              <path class="cls-55" d="M249.48,372.63h-20.75v7.71h20.75v-7.71Z"/>
              <path class="cls-115" d="M272.84,372.63h-20.76v7.71h20.76c0-3.09,0-4.62,0-7.71Z"/>
              <path class="cls-195" d="M296.2,372.63h-20.76v7.71c2.77,0,5.08,0,7.23,0s4.15,0,6.3,0h7.23v-7.71Z"/>
              <path class="cls-95" d="M319.56,372.63h-20.76v7.71h20.76v-7.71Z"/>
              <path class="cls-86" d="M342.91,372.63h-20.75v7.71h20.75c0-3.09,0-4.62,0-7.71Z"/>
              <path class="cls-34" d="M366.26,372.63h-20.75v7.71h20.75c0-3.09,0-4.62,0-7.71Z"/>
              <path class="cls-77" d="M389.61,372.63h-20.75v7.71h20.75v-7.71Z"/>
              <path class="cls-103" d="M214.66,381.71h-20.76v7.72h20.76v-7.72Z"/>
              <path class="cls-52" d="M238.01,381.71h-20.75v7.72h20.75v-7.72Z"/>
              <path class="cls-84" d="M261.37,381.71h-20.75v7.72h20.75v-7.72Z"/>
              <path class="cls-80" d="M284.72,381.71h-20.75v7.72h20.75v-7.72Z"/>
              <path class="cls-76" d="M308.07,381.71h-20.75v7.72h20.75v-7.72Z"/>
              <path class="cls-150" d="M331.43,381.71h-20.75v7.72h20.75v-7.72Z"/>
              <path class="cls-53" d="M354.79,381.71h-20.75v7.72h20.75v-7.72Z"/>
              <path class="cls-47" d="M378.14,381.71h-20.75v7.72h20.75v-7.72Z"/>
              <path class="cls-173" d="M202.78,391.05h-20.75v7.71h20.75v-7.71Z"/>
              <path class="cls-10" d="M226.13,391.05h-20.75v7.71h20.75v-7.71Z"/>
              <path class="cls-73" d="M249.48,391.05c-2.77,0-5.06,0-7.22,0h-13.53v7.71h20.75v-7.71Z"/>
              <path class="cls-58" d="M272.84,391.05h-20.76v7.71h20.76v-7.71Z"/>
              <path class="cls-190" d="M296.2,391.05h-7.23c-2.15,0-4.15,0-6.3,0s-4.46,0-7.23,0v7.71h20.76v-7.71Z"/>
              <path class="cls-136" d="M319.56,391.05h-20.76v7.71h20.76v-7.71Z"/>
              <path class="cls-127" d="M342.91,391.05h-20.75v7.71h20.75v-7.71Z"/>
              <path class="cls-20" d="M366.26,391.05h-20.75v7.71h20.75v-7.71Z"/>
              <path class="cls-57" d="M389.61,391.05h-20.75v7.71h20.75v-7.71Z"/>
              <path class="cls-160" d="M214.66,400.13h-20.76v7.72h20.76v-7.72Z"/>
              <path class="cls-11" d="M238.01,400.13h-20.75v7.72h20.75v-7.72Z"/>
              <path class="cls-131" d="M261.37,400.13c-2.77,0-5.07,0-7.23,0s-4.15,0-6.3,0h-7.22v7.72h20.75v-7.72Z"/>
              <path class="cls-31" d="M284.72,400.13h-20.75v7.72h20.75v-7.72Z"/>
              <path class="cls-9" d="M308.08,400.13h-20.75v7.72h20.75v-7.72Z"/>
              <path class="cls-65" d="M331.43,400.13h-20.75v7.72h20.75v-7.72Z"/>
              <path class="cls-138" d="M354.79,400.13h-20.75v7.72h20.75v-7.72Z"/>
              <path class="cls-64" d="M378.14,400.13h-20.75v7.72h20.75v-7.72Z"/>
              <path class="cls-139" d="M202.78,409.47c-2.77,0-5.07,0-7.23,0s-4.15,0-6.3,0h-7.23v7.71h20.75v-7.71Z"/>
              <path class="cls-161" d="M226.13,409.47c-2.77,0-5.07,0-7.22,0s-4.15,0-6.31,0h-7.22v7.71h20.75v-7.71Z"/>
              <path class="cls-99" d="M249.48,409.47c-2.77,0-5.06,0-7.22,0s-4.15,0-6.3,0h-7.22v7.71h20.75v-7.71Z"/>
              <path class="cls-17" d="M272.84,409.47c-2.77,0-5.07,0-7.23,0s-4.15,0-6.3,0h-7.23v7.71h20.76v-7.71Z"/>
              <path class="cls-15" d="M296.2,409.47c-2.77,0-5.08,0-7.23,0s-4.15,0-6.3,0h-7.23v7.71h20.76v-7.71Z"/>
              <path class="cls-104" d="M319.56,409.47c-2.77,0-5.07,0-7.22,0s-4.15,0-6.3,0h-7.23v7.71h20.76v-7.71Z"/>
              <path class="cls-163" d="M342.91,409.47c-2.76,0-5.07,0-7.22,0s-4.15,0-6.3,0h-7.23v7.71h20.75v-7.71Z"/>
              <path class="cls-134" d="M366.26,409.47c-2.77,0-5.07,0-7.22,0s-4.16,0-6.31,0h-7.22v7.71h20.75v-7.71Z"/>
              <path class="cls-37" d="M389.61,409.47c-2.77,0-5.07,0-7.22,0s-4.15,0-6.3,0h-7.23v7.71h20.75v-7.71Z"/>
              <path class="cls-59" d="M214.66,418.55h-20.76v7.71h20.76v-7.71Z"/>
              <path class="cls-91" d="M238.01,418.56c-2.77,0-5.08,0-7.23,0h-13.52v7.71h20.75v-7.71Z"/>
              <path class="cls-83" d="M261.37,418.55h-20.75v7.71h20.75v-7.71Z"/>
              <path class="cls-148" d="M284.72,418.55h-20.75v7.71h13.53c2.15,0,4.46,0,7.22,0v-7.71Z"/>
              <path class="cls-60" d="M308.07,418.55h-20.75v7.71h20.75v-7.71Z"/>
              <path class="cls-92" d="M331.43,418.55h-20.75v7.71h20.75v-7.71Z"/>
              <path class="cls-119" d="M354.79,418.55h-20.75v7.71h20.75v-7.71Z"/>
              <path class="cls-32" d="M378.14,418.55h-20.75v7.71h20.75v-7.71Z"/>
              <path class="cls-154" d="M202.78,427.89h-20.75v7.71h20.75v-7.71Z"/>
              <path class="cls-142" d="M226.13,427.89h-20.75v7.71h20.75v-7.71Z"/>
              <path class="cls-147" d="M249.48,427.89h-20.75v7.71h20.75v-7.71Z"/>
              <path class="cls-28" d="M272.84,427.89h-20.76v7.71h20.76v-7.71Z"/>
              <path class="cls-75" d="M296.2,427.89h-20.76v7.71h20.76v-7.71Z"/>
              <path class="cls-114" d="M319.56,427.89h-20.76v7.71h20.76v-7.71Z"/>
              <path class="cls-29" d="M342.91,427.89h-20.75v7.71h20.75v-7.71Z"/>
              <path class="cls-63" d="M366.26,427.89h-20.75v7.71h20.75v-7.71Z"/>
              <path class="cls-33" d="M389.61,427.89h-20.75v7.71h20.75v-7.71Z"/>
              <g class="cls-291">
                <path class="cls-140" d="M389.61,289.6h-8.92v7.71h8.92v-7.71Z"/>
                <path class="cls-140" d="M389.61,308.02h-8.92v7.71h8.92v-7.71Z"/>
                <path class="cls-140" d="M389.61,326.45h-8.92v7.7h8.92v-7.7Z"/>
                <path class="cls-140" d="M389.61,234.35h-8.92v7.71h8.92v-7.71Z"/>
                <path class="cls-140" d="M389.61,271.18h-8.92v7.71h8.92v-7.71Z"/>
                <path class="cls-140" d="M389.61,252.76h-8.92v7.71h8.92v-7.71Z"/>
                <path class="cls-140" d="M389.61,418.55h-8.92v7.71h8.92v-7.71Z"/>
                <path class="cls-140" d="M389.61,400.13h-8.92v7.71h8.92v-7.71Z"/>
                <path class="cls-140" d="M389.61,344.86h-8.92v7.71h8.92v-7.71Z"/>
                <path class="cls-140" d="M389.61,363.28h-8.92v7.71h8.92v-7.71Z"/>
                <path class="cls-140" d="M389.61,381.7h-8.92v7.71h8.92v-7.71Z"/>
              </g>
              <g class="cls-316">
                <path class="cls-140" d="M190.95,289.6h-8.92v7.71h8.92v-7.71Z"/>
                <path class="cls-140" d="M190.95,308.02h-8.92v7.71h8.92v-7.71Z"/>
                <path class="cls-140" d="M190.95,326.45h-8.92v7.7h8.92v-7.7Z"/>
                <path class="cls-140" d="M190.95,234.35h-8.92v7.71h8.92v-7.71Z"/>
                <path class="cls-140" d="M190.95,271.18h-8.92v7.71h8.92v-7.71Z"/>
                <path class="cls-140" d="M190.95,252.76h-8.92v7.71h8.92v-7.71Z"/>
                <path class="cls-140" d="M190.95,418.55h-8.92v7.71h8.92v-7.71Z"/>
                <path class="cls-140" d="M190.95,400.13h-8.92v7.71h8.92v-7.71Z"/>
                <path class="cls-140" d="M190.95,344.86h-8.92v7.71h8.92v-7.71Z"/>
                <path class="cls-140" d="M190.95,363.28h-8.92v7.71h8.92v-7.71Z"/>
                <path class="cls-140" d="M190.95,381.7h-8.92v7.71h8.92v-7.71Z"/>
              </g>
            </g>
          </g>
        </g>
        <rect class="cls-295" x="84.57" y="198.45" width="6.84" height="147.47"/>
        <rect class="cls-295" x="362.25" y="198.45" width="6.84" height="147.47"/>
        <g class="cls-256">
          <g>
            <path class="cls-311" d="M84.44,198.45h-19.71c1.38-5.07,2.07-7.61,3.46-12.69h19.3c-1.22,5.07-1.83,7.61-3.05,12.69Z"/>
            <path class="cls-311" d="M107.33,198.45h-9.85c-2.96,0-5.91,0-9.85,0,1.2-5.07,1.8-7.61,3-12.68h19.29c-1.04,5.07-1.54,7.61-2.58,12.69Z"/>
            <path class="cls-311" d="M130.23,198.45h-19.71c1.01-5.07,1.51-7.61,2.52-12.68,3.86,0,6.76,0,9.66,0h9.65c-.85,5.07-1.27,7.61-2.12,12.69Z"/>
            <path class="cls-311" d="M153.12,198.45h-19.71c.83-5.07,1.23-7.61,2.06-12.69h19.32c-.66,5.07-1,7.61-1.66,12.69Z"/>
            <path class="cls-311" d="M176,198.45h-19.71c.64-5.07.95-7.61,1.59-12.68,3.86,0,6.76,0,9.66,0s5.8,0,9.66,0c-.48,5.07-.72,7.61-1.2,12.68Z"/>
            <path class="cls-311" d="M198.89,198.45c-3.94,0-6.9,0-9.86,0s-5.92,0-9.86,0c.45-5.07.68-7.61,1.13-12.68,3.86,0,6.75,0,9.65,0s5.8,0,9.66,0c-.29,5.07-.43,7.61-.72,12.68Z"/>
            <path class="cls-311" d="M221.78,198.45h-19.71c.27-5.07.4-7.61.67-12.68,3.86,0,6.76,0,9.66,0s5.79,0,9.65,0c-.11,5.07-.16,7.61-.27,12.68Z"/>
            <path class="cls-311" d="M244.67,198.45h-19.71c.08-5.07.12-7.61.2-12.68,3.86,0,6.76,0,9.66,0s5.79,0,9.65,0c.08,5.07.12,7.61.2,12.68Z"/>
            <path class="cls-311" d="M267.57,198.45h-19.72c-.11-5.07-.15-7.61-.26-12.69h19.31c.27,5.07.4,7.61.67,12.69Z"/>
            <path class="cls-311" d="M290.45,198.45h-19.71c-.29-5.07-.43-7.61-.72-12.69h19.3c.45,5.07.68,7.61,1.13,12.69Z"/>
            <path class="cls-311" d="M313.34,198.45h-19.71c-.48-5.07-.72-7.61-1.19-12.69h19.31c.64,5.07.96,7.61,1.6,12.69Z"/>
            <path class="cls-311" d="M336.23,198.45h-19.71c-.66-5.07-1-7.61-1.66-12.69,3.86,0,6.76,0,9.66,0h9.65c.82,5.07,1.24,7.61,2.06,12.68Z"/>
            <path class="cls-311" d="M359.12,198.45h-19.71c-.85-5.07-1.27-7.61-2.12-12.69h19.31c1.01,5.07,1.52,7.61,2.52,12.69Z"/>
            <path class="cls-311" d="M382.01,198.45h-19.71c-1.04-5.07-1.55-7.61-2.59-12.69h19.31c1.2,5.07,1.79,7.61,2.99,12.69Z"/>
            <path class="cls-311" d="M404.9,198.45h-19.71c-1.22-5.07-1.84-7.61-3.06-12.69h19.31c1.38,5.07,2.07,7.61,3.46,12.69Z"/>
            <path class="cls-311" d="M87.73,184.84c-3.86,0-6.74,0-9.63,0s-5.78,0-9.64,0c1.38-5.07,2.07-7.61,3.46-12.69h18.86c-1.22,5.07-1.82,7.61-3.05,12.69Z"/>
            <path class="cls-311" d="M110.11,184.84h-19.27c1.2-5.07,1.78-7.61,2.98-12.69h18.88c-1.04,5.07-1.55,7.61-2.59,12.69Z"/>
            <path class="cls-311" d="M132.51,184.84h-9.64c-2.89,0-5.79,0-9.65,0,1.01-5.07,1.51-7.61,2.52-12.69,3.78,0,6.61,0,9.44,0h9.44c-.85,5.07-1.27,7.61-2.12,12.69Z"/>
            <path class="cls-311" d="M154.9,184.84h-19.29c.83-5.07,1.23-7.61,2.06-12.69h9.44c2.83,0,5.67,0,9.45,0-.66,5.08-.99,7.61-1.66,12.68Z"/>
            <path class="cls-311" d="M177.29,184.84h-19.28c.64-5.07.96-7.61,1.6-12.69h18.88c-.48,5.07-.71,7.61-1.19,12.69Z"/>
            <path class="cls-311" d="M199.67,184.84h-19.28c.45-5.07.67-7.61,1.12-12.69,3.78,0,6.62,0,9.45,0s5.66,0,9.44,0c-.29,5.07-.44,7.61-.73,12.69Z"/>
            <path class="cls-311" d="M222.06,184.84h-19.28c.27-5.07.39-7.61.66-12.68,3.78,0,6.61,0,9.44,0s5.67,0,9.45,0c-.11,5.07-.16,7.61-.27,12.69Z"/>
            <path class="cls-311" d="M244.46,184.84h-19.28c.08-5.07.12-7.61.2-12.69h18.88c.08,5.07.12,7.61.2,12.69Z"/>
            <path class="cls-311" d="M266.85,184.84h-19.28c-.11-5.07-.16-7.61-.26-12.69h18.88c.27,5.07.4,7.61.67,12.69Z"/>
            <path class="cls-311" d="M289.23,184.84h-19.28c-.29-5.07-.45-7.61-.74-12.69h18.88c.45,5.07.68,7.61,1.13,12.69Z"/>
            <path class="cls-311" d="M311.62,184.84h-19.27c-.48-5.07-.72-7.61-1.2-12.69h18.88c.64,5.07.95,7.61,1.59,12.69Z"/>
            <path class="cls-311" d="M334.01,184.84h-19.27c-.66-5.07-.99-7.61-1.66-12.69h18.88c.82,5.07,1.23,7.61,2.05,12.69Z"/>
            <path class="cls-311" d="M356.41,184.84h-19.28c-.85-5.07-1.27-7.61-2.12-12.69h18.88c1.01,5.07,1.51,7.61,2.52,12.69Z"/>
            <path class="cls-311" d="M378.79,184.84h-19.27c-1.04-5.07-1.56-7.61-2.59-12.69h18.88c1.2,5.07,1.79,7.61,2.99,12.69Z"/>
            <path class="cls-311" d="M401.19,184.84h-19.29c-1.22-5.07-1.84-7.61-3.06-12.69h18.89c1.38,5.07,2.08,7.61,3.46,12.69Z"/>
            <path class="cls-311" d="M91.01,171.22c-3.77,0-6.6,0-9.42,0s-5.65,0-9.42,0c1.38-5.07,2.07-7.61,3.45-12.69h18.44c-1.22,5.08-1.83,7.61-3.06,12.69Z"/>
            <path class="cls-311" d="M112.89,171.22c-3.77,0-6.59,0-9.42,0h-9.42c1.2-5.07,1.8-7.61,3-12.69h18.44c-1.04,5.08-1.55,7.61-2.59,12.68Z"/>
            <path class="cls-311" d="M134.79,171.22h-18.85c1.01-5.07,1.52-7.61,2.53-12.69h18.44c-.85,5.08-1.27,7.61-2.12,12.69Z"/>
            <path class="cls-311" d="M156.69,171.22c-3.77,0-6.6,0-9.43,0h-9.43c.83-5.07,1.24-7.61,2.07-12.69h9.22c2.77,0,5.54,0,9.23,0-.66,5.08-.99,7.61-1.66,12.69Z"/>
            <path class="cls-311" d="M178.57,171.22h-9.42c-2.83,0-5.65,0-9.42,0,.64-5.08.96-7.61,1.6-12.69h18.45c-.48,5.08-.72,7.61-1.2,12.69Z"/>
            <path class="cls-311" d="M200.46,171.22c-3.77,0-6.6,0-9.43,0s-5.66,0-9.43,0c.45-5.08.68-7.61,1.13-12.69,3.69,0,6.46,0,9.23,0h9.22c-.29,5.08-.43,7.61-.72,12.69Z"/>
            <path class="cls-311" d="M222.35,171.22h-9.42c-2.83,0-5.65,0-9.42,0,.27-5.07.4-7.61.66-12.68,3.69,0,6.45,0,9.22,0s5.54,0,9.23,0c-.11,5.08-.16,7.61-.27,12.69Z"/>
            <path class="cls-311" d="M244.24,171.22h-18.85c.08-5.07.12-7.61.2-12.69h18.45c.08,5.08.11,7.61.19,12.69Z"/>
            <path class="cls-311" d="M266.13,171.22h-18.85c-.11-5.07-.16-7.61-.26-12.69h18.45c.27,5.08.4,7.61.66,12.69Z"/>
            <path class="cls-311" d="M288.02,171.22c-3.77,0-6.6,0-9.42,0s-5.66,0-9.43,0c-.29-5.07-.44-7.61-.73-12.68h18.45c.45,5.08.67,7.61,1.13,12.68Z"/>
            <path class="cls-311" d="M309.91,171.22c-3.77,0-6.6,0-9.42,0s-5.66,0-9.43,0c-.48-5.07-.72-7.61-1.19-12.69h18.45c.64,5.08.95,7.61,1.59,12.69Z"/>
            <path class="cls-311" d="M331.8,171.22h-18.85c-.66-5.07-1-7.61-1.66-12.69h18.45c.83,5.08,1.23,7.61,2.05,12.69Z"/>
            <path class="cls-311" d="M353.69,171.22h-18.85c-.85-5.07-1.27-7.61-2.12-12.69h18.45c1.01,5.08,1.51,7.61,2.52,12.69Z"/>
            <path class="cls-311" d="M375.58,171.22h-18.84c-1.04-5.07-1.56-7.61-2.6-12.69h18.45c1.2,5.08,1.79,7.61,2.99,12.69Z"/>
            <path class="cls-311" d="M397.47,171.22h-9.42c-2.83,0-5.65,0-9.42,0-1.22-5.07-1.83-7.61-3.06-12.68h18.45c1.38,5.08,2.07,7.61,3.45,12.69Z"/>
            <path class="cls-311" d="M94.28,157.6c-3.68,0-6.43,0-9.2,0h-9.21c1.38-5.07,2.07-7.61,3.46-12.68h9.01c2.7,0,5.41,0,9.01,0-1.22,5.07-1.85,7.61-3.07,12.68Z"/>
            <path class="cls-311" d="M115.67,157.6c-3.68,0-6.45,0-9.21,0h-9.21c1.2-5.07,1.8-7.61,3-12.68,3.6,0,6.31,0,9.01,0h9.01c-1.04,5.07-1.56,7.61-2.6,12.69Z"/>
            <path class="cls-311" d="M137.07,157.6h-18.42c1.01-5.07,1.52-7.61,2.53-12.68,3.6,0,6.31,0,9.01,0s5.4,0,9.01,0c-.85,5.07-1.28,7.61-2.13,12.68Z"/>
            <path class="cls-311" d="M158.46,157.6h-9.21c-2.76,0-5.53,0-9.21,0,.83-5.07,1.24-7.61,2.07-12.68h18.03c-.66,5.07-1.01,7.61-1.67,12.69Z"/>
            <path class="cls-311" d="M179.86,157.6c-3.68,0-6.45,0-9.22,0s-5.52,0-9.2,0c.64-5.07.96-7.61,1.6-12.69h18.02c-.48,5.07-.72,7.61-1.2,12.69Z"/>
            <path class="cls-311" d="M201.24,157.6c-3.68,0-6.45,0-9.22,0s-5.52,0-9.21,0c.45-5.07.68-7.61,1.14-12.68,3.6,0,6.3,0,9.01,0h9.01c-.29,5.07-.44,7.61-.73,12.69Z"/>
            <path class="cls-311" d="M222.64,157.6c-3.68,0-6.45,0-9.22,0s-5.52,0-9.21,0c.27-5.07.4-7.61.67-12.69,3.6,0,6.31,0,9.02,0s5.4,0,9,0c-.11,5.07-.16,7.61-.26,12.69Z"/>
            <path class="cls-311" d="M244.03,157.6c-3.68,0-6.45,0-9.21,0s-5.53,0-9.22,0c.08-5.07.12-7.61.2-12.68h18.03c.08,5.07.12,7.61.2,12.68Z"/>
            <path class="cls-311" d="M265.42,157.6c-3.68,0-6.45,0-9.22,0h-9.2c-.11-5.07-.16-7.61-.26-12.68h9c2.7,0,5.41,0,9.02,0,.27,5.07.4,7.61.66,12.68Z"/>
            <path class="cls-311" d="M286.81,157.6c-3.68,0-6.44,0-9.21,0h-9.21c-.29-5.07-.44-7.61-.73-12.68h18.02c.45,5.07.68,7.61,1.13,12.68Z"/>
            <path class="cls-311" d="M308.2,157.6h-18.42c-.48-5.07-.72-7.61-1.2-12.68,3.6,0,6.3,0,9.01,0s5.41,0,9.01,0c.64,5.07.96,7.61,1.6,12.68Z"/>
            <path class="cls-311" d="M329.6,157.6c-3.68,0-6.45,0-9.22,0h-9.2c-.66-5.07-1.01-7.61-1.67-12.69h18.02c.83,5.07,1.25,7.61,2.08,12.68Z"/>
            <path class="cls-311" d="M350.98,157.6c-3.68,0-6.44,0-9.2,0h-9.22c-.85-5.07-1.27-7.61-2.12-12.68h18.01c1.01,5.07,1.53,7.61,2.53,12.68Z"/>
            <path class="cls-311" d="M372.37,157.6c-3.68,0-6.44,0-9.21,0h-9.21c-1.04-5.07-1.55-7.61-2.59-12.68h18.02c1.2,5.07,1.79,7.61,2.99,12.68Z"/>
            <path class="cls-311" d="M393.76,157.6h-18.42c-1.22-5.07-1.83-7.61-3.06-12.68h18.02c1.38,5.07,2.07,7.61,3.46,12.68Z"/>
            <path class="cls-311" d="M97.57,143.99c-3.6,0-6.29,0-8.99,0h-8.99c1.38-5.08,2.07-7.61,3.45-12.69h17.59c-1.22,5.08-1.83,7.61-3.06,12.69Z"/>
            <path class="cls-311" d="M118.46,143.99c-3.6,0-6.29,0-8.99,0h-9c1.2-5.08,1.79-7.61,2.99-12.69h17.59c-1.04,5.08-1.55,7.61-2.59,12.69Z"/>
            <path class="cls-311" d="M139.36,143.99h-9c-2.7,0-5.39,0-8.99,0,1.01-5.08,1.51-7.61,2.52-12.68h17.59c-.85,5.08-1.27,7.61-2.12,12.69Z"/>
            <path class="cls-311" d="M160.24,143.99c-3.6,0-6.3,0-9,0h-9c.83-5.08,1.23-7.61,2.06-12.69,7.03,0,10.55,0,17.59,0-.66,5.08-1,7.61-1.66,12.69Z"/>
            <path class="cls-311" d="M181.13,143.99h-17.99c.64-5.08.95-7.61,1.59-12.68,7.03,0,10.56,0,17.59,0-.48,5.08-.72,7.61-1.2,12.69Z"/>
            <path class="cls-311" d="M202.02,143.99c-3.6,0-6.29,0-8.99,0s-5.4,0-8.99,0c.45-5.08.67-7.61,1.12-12.68h17.6c-.29,5.08-.44,7.61-.74,12.69Z"/>
            <path class="cls-311" d="M222.92,143.99h-9c-2.7,0-5.39,0-8.99,0,.27-5.08.39-7.61.66-12.69,7.04,0,10.56,0,17.59,0-.11,5.08-.16,7.61-.26,12.68Z"/>
            <path class="cls-311" d="M243.81,143.99h-17.99c.08-5.08.12-7.61.2-12.69h17.6c.08,5.08.11,7.61.19,12.69Z"/>
            <path class="cls-311" d="M264.7,143.99h-17.99c-.11-5.08-.16-7.61-.27-12.69h17.59c.27,5.08.4,7.61.67,12.69Z"/>
            <path class="cls-311" d="M285.59,143.99h-17.98c-.29-5.08-.44-7.61-.73-12.69h17.59c.45,5.08.67,7.61,1.12,12.69Z"/>
            <path class="cls-311" d="M306.49,143.99h-17.99c-.48-5.08-.72-7.61-1.2-12.69h17.59c.64,5.08.96,7.61,1.6,12.69Z"/>
            <path class="cls-311" d="M327.38,143.99h-17.98c-.66-5.08-1-7.61-1.67-12.69h17.59c.83,5.08,1.23,7.61,2.06,12.69Z"/>
            <path class="cls-311" d="M348.27,143.99h-17.99c-.85-5.08-1.27-7.61-2.12-12.69h17.59c1.01,5.08,1.51,7.61,2.52,12.69Z"/>
            <path class="cls-311" d="M369.16,143.99h-17.99c-1.04-5.08-1.55-7.61-2.59-12.69h17.59c1.2,5.08,1.8,7.61,3,12.69Z"/>
            <path class="cls-311" d="M390.05,143.99h-17.99c-1.22-5.08-1.83-7.61-3.05-12.69h17.58c1.38,5.08,2.08,7.61,3.46,12.69Z"/>
            <path class="cls-311" d="M100.85,130.37h-17.55c1.38-5.07,2.07-7.61,3.45-12.69h17.15c-1.22,5.07-1.83,7.61-3.06,12.69Z"/>
            <path class="cls-311" d="M121.24,130.37h-17.56c1.2-5.07,1.8-7.61,3-12.68h17.15c-1.04,5.07-1.56,7.61-2.59,12.68Z"/>
            <path class="cls-311" d="M141.64,130.37h-17.57c1.01-5.07,1.51-7.61,2.52-12.69,6.86,0,10.3,0,17.16,0-.85,5.07-1.27,7.61-2.12,12.69Z"/>
            <path class="cls-311" d="M162.03,130.37c-7.02,0-10.54,0-17.57,0,.83-5.07,1.23-7.61,2.06-12.69h17.16c-.66,5.07-.99,7.61-1.66,12.68Z"/>
            <path class="cls-311" d="M182.42,130.37c-7.02,0-10.53,0-17.56,0,.64-5.07.95-7.61,1.59-12.68h17.16c-.48,5.07-.72,7.61-1.2,12.69Z"/>
            <path class="cls-311" d="M202.81,130.37h-17.56c.45-5.07.67-7.61,1.13-12.69h17.16c-.29,5.07-.44,7.61-.73,12.69Z"/>
            <path class="cls-311" d="M223.21,130.37c-7.02,0-10.53,0-17.56,0,.27-5.07.4-7.61.66-12.68h17.16c-.11,5.07-.16,7.61-.27,12.68Z"/>
            <path class="cls-311" d="M243.6,130.37h-17.56c.08-5.07.12-7.61.2-12.68h17.16c.08,5.07.12,7.61.2,12.68Z"/>
            <path class="cls-311" d="M263.99,130.37c-7.02,0-10.53,0-17.56,0-.11-5.07-.16-7.61-.27-12.68h17.16c.27,5.07.4,7.61.66,12.69Z"/>
            <path class="cls-311" d="M284.38,130.37h-17.56c-.29-5.07-.44-7.61-.73-12.69h17.16c.45,5.07.67,7.61,1.12,12.69Z"/>
            <path class="cls-311" d="M304.77,130.37c-7.02,0-10.53,0-17.55,0-.48-5.07-.72-7.61-1.2-12.69h17.16c.64,5.07.95,7.61,1.59,12.68Z"/>
            <path class="cls-311" d="M325.16,130.37c-7.02,0-10.53,0-17.56,0-.66-5.07-.99-7.61-1.66-12.68h17.15c.82,5.07,1.24,7.61,2.06,12.69Z"/>
            <path class="cls-311" d="M345.56,130.37h-17.56c-.85-5.07-1.27-7.61-2.12-12.69h17.15c1.01,5.07,1.52,7.61,2.53,12.69Z"/>
            <path class="cls-311" d="M365.95,130.37c-7.02,0-10.54,0-17.56,0-1.04-5.07-1.55-7.61-2.59-12.69h17.16c1.2,5.07,1.79,7.61,2.99,12.68Z"/>
            <path class="cls-311" d="M386.34,130.37h-17.56c-1.22-5.07-1.83-7.61-3.05-12.69h17.16c1.38,5.07,2.07,7.61,3.45,12.69Z"/>
            <path class="cls-311" d="M104.14,116.75h-17.13c1.38-5.07,2.08-7.61,3.46-12.69h16.73c-1.22,5.07-1.83,7.61-3.06,12.69Z"/>
            <path class="cls-311" d="M124.03,116.75c-6.85,0-10.27,0-17.12,0,1.2-5.07,1.78-7.61,2.98-12.69h16.73c-1.04,5.07-1.55,7.61-2.59,12.68Z"/>
            <path class="cls-311" d="M143.92,116.75c-6.85,0-10.28,0-17.13,0,1.01-5.07,1.51-7.61,2.52-12.69h16.73c-.85,5.07-1.27,7.61-2.12,12.68Z"/>
            <path class="cls-311" d="M163.82,116.75h-17.14c.83-5.07,1.24-7.61,2.07-12.68h16.73c-.66,5.07-1,7.61-1.66,12.68Z"/>
            <path class="cls-311" d="M183.71,116.75c-6.85,0-10.27,0-17.12,0,.64-5.07.95-7.61,1.59-12.69h16.73c-.48,5.07-.72,7.61-1.2,12.69Z"/>
            <path class="cls-311" d="M203.6,116.75h-17.13c.45-5.07.68-7.61,1.13-12.69h16.73c-.29,5.07-.43,7.61-.73,12.69Z"/>
            <path class="cls-311" d="M223.49,116.75c-6.85,0-10.28,0-17.13,0,.27-5.07.4-7.61.67-12.68h16.73c-.11,5.07-.16,7.61-.27,12.69Z"/>
            <path class="cls-311" d="M243.38,116.75h-17.13c.08-5.07.12-7.61.2-12.69h16.73c.08,5.07.12,7.61.2,12.69Z"/>
            <path class="cls-311" d="M263.27,116.75h-17.13c-.11-5.07-.16-7.61-.26-12.69h16.73c.27,5.07.4,7.61.66,12.69Z"/>
            <path class="cls-311" d="M283.16,116.75h-17.13c-.29-5.07-.43-7.61-.72-12.69h16.73c.45,5.07.68,7.61,1.13,12.69Z"/>
            <path class="cls-311" d="M303.05,116.75c-6.85,0-10.27,0-17.12,0-.48-5.07-.72-7.61-1.2-12.68h16.73c.64,5.07.95,7.61,1.59,12.69Z"/>
            <path class="cls-311" d="M322.95,116.75c-6.85,0-10.28,0-17.13,0-.66-5.07-1-7.61-1.66-12.69h16.73c.82,5.07,1.24,7.61,2.06,12.68Z"/>
            <path class="cls-311" d="M342.84,116.75h-17.13c-.85-5.07-1.27-7.61-2.12-12.69h16.73c1.01,5.07,1.52,7.61,2.52,12.69Z"/>
            <path class="cls-311" d="M362.73,116.75h-17.13c-1.04-5.07-1.56-7.61-2.59-12.69h16.73c1.2,5.07,1.79,7.61,2.99,12.69Z"/>
            <path class="cls-311" d="M382.63,116.75h-17.13c-1.22-5.07-1.83-7.61-3.05-12.69h16.72c1.38,5.07,2.08,7.61,3.46,12.69Z"/>
          </g>
        </g>
        <rect class="cls-283" x="84.57" y="198.45" width="284.61" height="8.18"/>
        <g>
          <rect class="cls-295" x="114.96" y="244.25" width="48.54" height="56.9"/>
          <rect class="cls-299" x="118" y="247.52" width="42.47" height="50.36"/>
          <rect class="cls-313" x="119.52" y="249.1" width="39.04" height="46.87"/>
          <rect class="cls-299" x="129.77" y="249.1" width="3.54" height="46.87"/>
          <rect class="cls-299" x="146.35" y="249.1" width="3.54" height="46.87"/>
          <g>
            <rect class="cls-299" x="118" y="256.54" width="42.47" height="3.54"/>
            <rect class="cls-299" x="118" y="270.57" width="42.47" height="3.54"/>
            <rect class="cls-299" x="118" y="284.6" width="42.47" height="3.54"/>
          </g>
        </g>
        <path class="cls-306" d="M66.74,363.53s29.05-40.13,60.41-25.22c31.36,14.91,43.55,5.1,52.76,3.13,9.21-1.96,65.73,22.08,65.73,22.08H66.74Z"/>
        <path class="cls-306" d="M474.14,346.95c0-1.36-.09-2.69-.24-4.01-10.27,1.21-21.68,7.8-47.82-4.62-31.36-14.91-60.41,25.22-60.41,25.22h104.36c2.61-4.95,4.11-10.59,4.11-16.58Z"/>
        <polygon class="cls-203" points="155.48 130.4 234.64 171.02 238.71 202.44 121.08 160.91 155.48 130.4"/>
        <g>
          <g>
            <polygon class="cls-296" points="152.16 61.56 126.57 61.56 122.45 136.06 156.28 136.06 152.16 61.56"/>
            <polygon class="cls-292" points="122.45 136.06 121.08 160.91 157.65 160.91 156.28 136.06 122.45 136.06"/>
          </g>
          <polygon class="cls-293" points="126.08 70.4 152.65 70.4 152.59 69.38 126.14 69.38 126.08 70.4"/>
          <g class="cls-256">
            <path class="cls-247" d="M126.83,126.76c-1.49,0-2.71,0-3.87,0l-.2,3.64h3.91c.06-1.46.1-2.18.16-3.64Z"/>
            <path class="cls-206" d="M124.45,100h8.87c.03-1.46.05-2.18.08-3.64-3.53,0-5.46,0-8.75,0l-.2,3.64Z"/>
            <path class="cls-227" d="M124.69,95.59h3.45c.06-1.46.1-2.18.16-3.64-1.31,0-2.39,0-3.41,0l-.2,3.65Z"/>
            <path class="cls-205" d="M132.8,122.46h-9.6l-.2,3.64h9.72c.03-1.46.06-2.18.09-3.64Z"/>
            <path class="cls-261" d="M150.77,95.59h3.27l-.2-3.65h-3.22c.06,1.46.09,2.19.15,3.65Z"/>
            <path class="cls-288" d="M125.17,86.89c.99,0,2.05,0,3.34,0,.07-1.46.09-2.18.16-3.64h-3.29l-.2,3.64Z"/>
            <path class="cls-284" d="M134.54,100c3.87,0,5.79,0,9.67,0-.03-1.46-.03-2.18-.06-3.64-3.82,0-5.72,0-9.54,0-.03,1.46-.04,2.18-.06,3.64Z"/>
            <path class="cls-239" d="M129.34,95.59h9.51c0-1.46.01-2.19.02-3.65h-9.39c-.06,1.46-.09,2.19-.15,3.65Z"/>
            <path class="cls-257" d="M124.93,91.3h8.57c.03-1.46.06-2.19.09-3.64h-8.46l-.2,3.64Z"/>
            <path class="cls-264" d="M150.92,130.4c-.06-1.46-.09-2.18-.14-3.64-4.26,0-6.38,0-10.64,0,0,1.46,0,2.19,0,3.64h10.77Z"/>
            <path class="cls-276" d="M155.96,130.4l-.2-3.64h-3.66c.06,1.46.09,2.19.15,3.64h3.7Z"/>
            <path class="cls-252" d="M155.53,122.46h-9.6c.03,1.46.04,2.18.08,3.64h9.73l-.2-3.64Z"/>
            <path class="cls-279" d="M150.39,86.89h3.17l-.2-3.64h-3.12c.06,1.46.09,2.18.15,3.64Z"/>
            <path class="cls-271" d="M129.01,104.29h9.82c0-1.46,0-2.18.01-3.64-3.88,0-5.82,0-9.7,0-.06,1.46-.08,2.19-.13,3.64Z"/>
            <path class="cls-243" d="M140.1,113c4.06,0,6.09,0,10.15,0-.06-1.46-.09-2.19-.15-3.65-4.01,0-6.01,0-10.01,0,0,1.46,0,2.19.01,3.65Z"/>
            <path class="cls-220" d="M140.06,100.65c0,1.46.02,2.19.02,3.64h9.83c-.06-1.46-.09-2.18-.14-3.64-3.88,0-5.83,0-9.71,0Z"/>
            <path class="cls-282" d="M130.47,65.85c-.06,1.46-.08,2.18-.13,3.64,3.43,0,5.15,0,8.58,0,0-1.46,0-2.18,0-3.64h-8.45Z"/>
            <path class="cls-278" d="M151.51,113h3.49l-.2-3.64h-3.44c.06,1.46.08,2.19.15,3.64Z"/>
            <path class="cls-224" d="M151.14,104.29h3.38l-.2-3.64h-3.33c.06,1.46.09,2.19.15,3.64Z"/>
            <path class="cls-259" d="M123.96,108.7h9.14c.03-1.46.06-2.19.09-3.64h-9.03l-.2,3.64Z"/>
            <path class="cls-245" d="M150.58,121.7c-.06-1.46-.08-2.19-.14-3.65h-10.33c0,1.46,0,2.19,0,3.65,4.18,0,6.27,0,10.46,0Z"/>
            <path class="cls-254" d="M138.82,118.05h-10.33c-.06,1.46-.08,2.19-.14,3.65,4.18,0,6.27,0,10.46,0,0-1.46,0-2.19,0-3.65Z"/>
            <path class="cls-244" d="M144.47,113.76c-4.07,0-6.12,0-10.18,0-.03,1.46-.04,2.19-.07,3.64,4.13,0,6.19,0,10.31,0-.03-1.46-.03-2.19-.06-3.64Z"/>
            <path class="cls-199" d="M155.05,113.76h-9.31c.03,1.46.04,2.19.07,3.64,3.82,0,5.89,0,9.44,0l-.2-3.64Z"/>
            <path class="cls-218" d="M133,113.76h-9.32l-.2,3.64c3.55,0,5.62,0,9.43,0,.03-1.46.05-2.19.08-3.64Z"/>
            <path class="cls-238" d="M127.56,109.35h-3.63l-.2,3.64h3.68c.06-1.46.08-2.18.15-3.64Z"/>
            <path class="cls-215" d="M124.21,104.29h3.57c.06-1.46.09-2.18.15-3.64h-3.51l-.2,3.64Z"/>
            <path class="cls-210" d="M155.48,121.7l-.2-3.65h-3.56c.07,1.46.09,2.19.16,3.65h3.6Z"/>
            <path class="cls-277" d="M127.19,118.05h-3.75l-.2,3.65c1.13,0,2.33,0,3.79,0,.07-1.46.09-2.19.16-3.65Z"/>
            <path class="cls-228" d="M125.72,152.85c-1.62,0-2.95,0-4.2,0l-.2,3.64h4.24c.07-1.46.09-2.19.16-3.64Z"/>
            <path class="cls-275" d="M156.93,147.8l-.2-3.65h-3.86c.07,1.46.08,2.19.14,3.65h3.92Z"/>
            <path class="cls-246" d="M126.14,69.49c.93,0,1.91,0,3.11,0,.06-1.46.09-2.18.15-3.64h-3.06l-.2,3.64Z"/>
            <path class="cls-209" d="M132.22,148.57c-4.23,0-6.53,0-10.46,0l-.2,3.64h10.57c.03-1.46.06-2.18.09-3.64Z"/>
            <path class="cls-285" d="M149.65,69.49h2.95l-.2-3.64h-2.92c.06,1.46.11,2.18.17,3.64Z"/>
            <path class="cls-217" d="M144.82,73.9h8.02l-.2-3.64h-7.9c.03,1.46.05,2.19.08,3.64Z"/>
            <path class="cls-242" d="M138.75,152.85h-11.58c-.06,1.46-.08,2.19-.13,3.65h11.71c0-1.46,0-2.19,0-3.65Z"/>
            <path class="cls-290" d="M134.09,65.2c.03-1.46.05-2.18.08-3.64h-7.61l-.2,3.64c2.88,0,4.62,0,7.72,0Z"/>
            <path class="cls-251" d="M133.5,157.26c-.03,1.46-.04,2.18-.07,3.64h11.86c-.02-1.46-.03-2.19-.06-3.64h-11.73Z"/>
            <path class="cls-216" d="M145.08,148.56c-4.57,0-6.85,0-11.42,0-.03,1.46-.04,2.18-.07,3.63,4.62,0,6.93,0,11.55,0-.03-1.46-.04-2.18-.07-3.64Z"/>
            <path class="cls-200" d="M146.71,157.26c.03,1.46.05,2.18.08,3.64h10.86l-.2-3.64h-10.74Z"/>
            <path class="cls-249" d="M121.28,157.26l-.2,3.64h10.87c.03-1.46.04-2.19.07-3.64h-10.73Z"/>
            <path class="cls-219" d="M156.97,148.56c-3.94,0-6.23,0-10.45,0,.03,1.46.04,2.18.08,3.64h10.58l-.2-3.64Z"/>
            <path class="cls-236" d="M152.36,65.2l-.2-3.64h-7.6c.03,1.46.05,2.18.08,3.64,3.11,0,4.85,0,7.72,0Z"/>
            <path class="cls-281" d="M151.93,156.5c-.06-1.46-.1-2.19-.15-3.64h-11.58c0,1.46,0,2.19,0,3.64h11.72Z"/>
            <path class="cls-280" d="M157.41,156.5l-.2-3.65h-3.97c.06,1.46.09,2.19.15,3.65h4.02Z"/>
            <path class="cls-289" d="M156.01,131.16h-9.88c.03,1.46.05,2.18.08,3.64,4.04,0,6.23,0,10,0l-.2-3.64Z"/>
            <path class="cls-211" d="M156.45,139.1l-.17-3.04-.03-.61h-3.78c.07,1.46.1,2.19.17,3.64h3.81Z"/>
            <path class="cls-202" d="M150.02,78.19h3.05l-.2-3.64h-3.01c.07,1.46.09,2.19.16,3.64Z"/>
            <path class="cls-287" d="M126.46,135.45h-3.97l-.03.61-.17,3.04h4.02c.06-1.46.09-2.19.16-3.64Z"/>
            <path class="cls-258" d="M145.04,82.6h8.28l-.2-3.64c-3.06,0-4.87,0-8.16,0,.03,1.46.05,2.19.08,3.64Z"/>
            <path class="cls-268" d="M132.61,131.16h-9.88l-.2,3.64c3.77,0,5.96,0,10.01,0,.03-1.46.05-2.18.08-3.64Z"/>
            <path class="cls-231" d="M140,74.55c0,1.46,0,2.19.01,3.64h8.88c-.06-1.46-.08-2.18-.13-3.64h-8.76Z"/>
            <path class="cls-260" d="M144.77,131.16c-4.32,0-6.48,0-10.81,0-.03,1.46-.04,2.18-.07,3.64h10.93c-.02-1.46-.02-2.19-.05-3.64Z"/>
            <path class="cls-265" d="M144.92,139.86c-4.44,0-6.66,0-11.11,0-.03,1.46-.04,2.19-.07,3.64,4.5,0,6.74,0,11.24,0-.03-1.46-.04-2.19-.07-3.65Z"/>
            <path class="cls-232" d="M132.42,139.86h-10.18l-.2,3.64c3.87,0,6.13,0,10.29,0,.03-1.46.06-2.19.09-3.64Z"/>
            <path class="cls-213" d="M151.59,147.8c-.06-1.46-.08-2.19-.14-3.65h-11.27c0,1.46,0,2.19.01,3.65,4.56,0,6.83,0,11.39,0Z"/>
            <path class="cls-198" d="M126.08,144.15h-4.08l-.2,3.65h4.13c.07-1.46.08-2.19.15-3.65Z"/>
            <path class="cls-229" d="M125.41,82.6h8.29c.03-1.46.05-2.19.08-3.64-3.31,0-5.1,0-8.18,0l-.2,3.64Z"/>
            <path class="cls-212" d="M156.49,139.86h-10.17c.03,1.46.05,2.19.08,3.64,4.16,0,6.42,0,10.29,0l-.2-3.64Z"/>
            <path class="cls-263" d="M125.65,78.19h3.22c.06-1.46.1-2.19.16-3.64h-3.17l-.2,3.64Z"/>
          </g>
        </g>
      </g>
    </g>
  </g>
</svg>