<?xml version="1.0" encoding="UTF-8"?>
<svg xmlns="http://www.w3.org/2000/svg" version="1.1" xmlns:xlink="http://www.w3.org/1999/xlink" viewBox="0 0 500 500">
  <defs>
    <style>
      .cls-1 {
        fill: #bababa;
      }

      .cls-1, .cls-2, .cls-3, .cls-4, .cls-5, .cls-6, .cls-7, .cls-8, .cls-9, .cls-10, .cls-11, .cls-12, .cls-13, .cls-14, .cls-15, .cls-16, .cls-17, .cls-18, .cls-19, .cls-20, .cls-21, .cls-22, .cls-23, .cls-24, .cls-25, .cls-26, .cls-27, .cls-28 {
        mix-blend-mode: multiply;
      }

      .cls-2 {
        fill: #9a9999;
      }

      .cls-3 {
        fill: #747474;
      }

      .cls-4 {
        fill: #847b7c;
      }

      .cls-29 {
        fill: #624f35;
      }

      .cls-5 {
        fill: #cdcccc;
      }

      .cls-6 {
        fill: #a6a6a6;
      }

      .cls-30 {
        fill: #1f1a13;
      }

      .cls-7 {
        fill: #a8a8a8;
      }

      .cls-8 {
        fill: #787070;
      }

      .cls-31 {
        fill: #659348;
      }

      .cls-9 {
        fill: #615a5a;
      }

      .cls-10 {
        fill: #b6b6b5;
      }

      .cls-32 {
        fill: #74563e;
      }

      .cls-11 {
        fill: #e7e6e6;
      }

      .cls-12 {
        fill: #919191;
      }

      .cls-33 {
        fill: #5a4330;
      }

      .cls-34 {
        isolation: isolate;
      }

      .cls-13 {
        fill: #8a8a8a;
      }

      .cls-14 {
        fill: #504b4b;
      }

      .cls-35, .cls-20 {
        fill: #4e4d4d;
      }

      .cls-15 {
        fill: #423d3d;
      }

      .cls-16 {
        fill: #b5a8a9;
      }

      .cls-36 {
        fill: #89a427;
      }

      .cls-37 {
        fill: #927650;
      }

      .cls-17 {
        fill: #b8acac;
      }

      .cls-18 {
        fill: #e9e8e8;
      }

      .cls-38 {
        fill: #5d8840;
      }

      .cls-19 {
        fill: #9e9e9e;
      }

      .cls-21 {
        fill: #968c8c;
      }

      .cls-22 {
        fill: #5a5454;
      }

      .cls-23 {
        fill: #6e6767;
      }

      .cls-24 {
        fill: #898081;
      }

      .cls-39 {
        fill: #4e3e2a;
      }

      .cls-25 {
        fill: #808181;
      }

      .cls-26 {
        fill: url(#linear-gradient);
      }

      .cls-40 {
        fill: #3b3328;
      }

      .cls-27 {
        fill: #c8c7c7;
      }

      .cls-28 {
        fill: #696262;
      }
    </style>
    <linearGradient id="linear-gradient" x1="294.52" y1="180.14" x2="294.52" y2="253.52" gradientUnits="userSpaceOnUse">
      <stop offset="0" stop-color="#d6cfc3"/>
      <stop offset="1" stop-color="#fff"/>
    </linearGradient>
  </defs>
  <!-- Generator: Adobe Illustrator 28.6.0, SVG Export Plug-In . SVG Version: 1.2.0 Build 709)  -->
  <g class="cls-34">
    <g id="Calque_1">
      <g>
        <path class="cls-36" d="M424.22,293.67s-.02,0-.03,0H90.27s-.01,0-.02,0c-17.79,0-32.21,14.42-32.21,32.21s14.42,32.21,32.21,32.21h333.98c17.79,0,32.21-14.42,32.21-32.21s-14.41-32.21-32.21-32.21Z"/>
        <g>
          <path class="cls-5" d="M134.18,299.99c-16.59,0-14.49,1.32-14.49,2.93s-2.1,2.93,14.49,2.93,45.61-1.31,45.61-2.93-29.02-2.93-45.61-2.93Z"/>
          <g>
            <path class="cls-33" d="M125.13,301.65c-4.45,0-8.07.74-8.07,1.64s3.61,1.64,8.07,1.64,8.08-.74,8.08-1.64-3.61-1.64-8.08-1.64Z"/>
            <rect class="cls-32" x="122.49" y="269.09" width="5.47" height="34.2"/>
            <polygon class="cls-32" points="127.97 290.89 127.97 294 130.75 290.89 135.08 281.18 129.64 289.57 127.97 290.89"/>
            <polygon class="cls-32" points="115.36 281.18 119.7 290.89 122.49 294 122.49 290.89 120.81 289.57 115.36 281.18"/>
            <path class="cls-31" d="M108.12,279.87c0,9.45,7.65,6.33,17.1,6.33s17.1,3.12,17.1-6.33-17.1-58.42-17.1-58.42c0,0-17.1,48.97-17.1,58.42Z"/>
            <path class="cls-38" d="M109.55,271.59c-.88,3.67-1.43,6.61-1.43,8.28,0,9.45,7.65,6.33,17.1,6.33,8.67,0,15.82,2.6,16.93-4.28-.82.04-1.64.07-2.47.07-11.25,0-21.72-3.9-30.13-10.39Z"/>
          </g>
        </g>
        <rect class="cls-39" x="83.94" y="226.07" width="8.25" height="101.1"/>
        <rect class="cls-30" x="54.51" y="212.3" width="118.69" height="12.82" transform="translate(-67.52 51.67) rotate(-19.86)"/>
        <rect class="cls-30" x="135.87" y="171.68" width="316.38" height="7.84"/>
        <g>
          <rect class="cls-37" x="162.69" y="179.52" width="263.66" height="144.8"/>
          <rect class="cls-25" x="162.69" y="183.57" width="13.94" height="140.76"/>
          <rect class="cls-19" x="176.64" y="179.52" width="13.94" height="72.55"/>
          <rect class="cls-27" x="176.64" y="243.5" width="13.94" height="72.55"/>
          <rect class="cls-13" x="190.58" y="235.63" width="13.94" height="33.16"/>
          <rect class="cls-13" x="190.58" y="179.52" width="13.94" height="44.74"/>
          <rect class="cls-13" x="190.58" y="279.77" width="13.94" height="44.55"/>
          <rect class="cls-1" x="204.52" y="205.66" width="13.94" height="118.66"/>
          <rect class="cls-2" x="218.47" y="179.52" width="13.94" height="129.61"/>
          <rect class="cls-10" x="232.41" y="193.8" width="13.94" height="130.52"/>
          <rect class="cls-11" x="246.35" y="222.55" width="13.94" height="102.35"/>
          <rect class="cls-10" x="260.3" y="179.52" width="13.94" height="144.8"/>
          <rect class="cls-18" x="274.24" y="188.37" width="13.94" height="127.68"/>
          <rect class="cls-12" x="288.18" y="196.5" width="13.94" height="111.42"/>
          <rect class="cls-10" x="302.12" y="208.35" width="13.94" height="115.97"/>
          <rect class="cls-13" x="316.06" y="179.52" width="13.94" height="64.8"/>
          <rect class="cls-1" x="316.06" y="259.76" width="13.94" height="64.56"/>
          <rect class="cls-3" x="330" y="179.52" width="13.94" height="128.16"/>
          <rect class="cls-13" x="343.94" y="196.5" width="13.94" height="127.82"/>
          <rect class="cls-18" x="357.88" y="196.5" width="13.94" height="111.42"/>
          <rect class="cls-10" x="371.83" y="188.73" width="13.94" height="46.9"/>
          <rect class="cls-1" x="371.83" y="250.31" width="13.94" height="46.9"/>
          <rect class="cls-3" x="385.77" y="179.52" width="13.94" height="89.49"/>
          <rect class="cls-7" x="400.89" y="200.12" width="25.46" height="124.2"/>
        </g>
        <rect class="cls-7" x="162.69" y="316.94" width="263.66" height="7.38"/>
        <g>
          <rect class="cls-35" x="204.53" y="215.3" width="47.69" height="32.47"/>
          <rect class="cls-40" x="208.03" y="218.8" width="40.69" height="25.47"/>
          <rect class="cls-20" x="204.53" y="247.77" width="47.69" height="1.94"/>
          <rect class="cls-20" x="204.53" y="213.36" width="47.69" height="1.94"/>
          <rect class="cls-35" x="226.59" y="215.3" width="3.56" height="32.47"/>
          <rect class="cls-35" x="208.03" y="229.75" width="40.69" height="3.56"/>
          <rect class="cls-20" x="252.22" y="213.36" width="1.61" height="36.34"/>
          <rect class="cls-20" x="202.92" y="213.36" width="1.6" height="36.34"/>
        </g>
        <g>
          <rect class="cls-35" x="335.71" y="215.3" width="47.69" height="32.47"/>
          <rect class="cls-40" x="339.22" y="218.8" width="40.69" height="25.47"/>
          <rect class="cls-20" x="335.71" y="247.77" width="47.69" height="1.94"/>
          <rect class="cls-20" x="335.71" y="213.36" width="47.69" height="1.94"/>
          <rect class="cls-35" x="357.78" y="215.3" width="3.56" height="32.47"/>
          <rect class="cls-35" x="339.22" y="229.75" width="40.69" height="3.56"/>
          <rect class="cls-20" x="383.41" y="213.36" width="1.61" height="36.34"/>
          <rect class="cls-20" x="334.11" y="213.36" width="1.6" height="36.34"/>
        </g>
        <rect class="cls-6" x="162.69" y="179.52" width="263.66" height="4.05"/>
        <polygon class="cls-26" points="426.35 304.94 162.69 208.35 162.69 179.52 426.35 179.52 426.35 304.94"/>
        <g>
          <path class="cls-5" d="M359.69,336.87c-25.2,0-21.99,2-21.99,4.45s-3.21,4.45,21.99,4.45,69.24-1.99,69.24-4.45-44.05-4.45-69.24-4.45Z"/>
          <g>
            <path class="cls-33" d="M342.36,339.06c-5.72,0-10.37.94-10.37,2.11s4.64,2.1,10.37,2.1,10.37-.94,10.37-2.1-4.64-2.11-10.37-2.11Z"/>
            <g>
              <rect class="cls-32" x="338.04" y="285.62" width="8.89" height="55.54"/>
              <path class="cls-31" d="M342.48,238.98c-15.33,0-27.76,31.31-27.76,46.65s12.43,27.77,27.76,27.77,27.77-12.43,27.77-27.77-12.43-46.65-27.77-46.65Z"/>
              <path class="cls-38" d="M315.32,279c-.39,2.4-.6,4.65-.6,6.62,0,15.34,12.43,27.77,27.76,27.77,3.92,0,7.65-.82,11.03-2.28-17.5-3.21-32.05-15.73-38.19-32.11Z"/>
            </g>
          </g>
        </g>
        <g>
          <path class="cls-29" d="M452.41,171.73h-158.03c-4.74,0-9.48,0-14.24,0s-9.53,0-14.33,0h-76.4c-5.51,0-11.14,0-16.89,0s-11.63,0-17.65,0h-18.5c3.75-4.71,7.12-8.95,10.27-12.9,3.15-3.96,6.07-7.63,8.92-11.21,2.85-3.58,5.62-7.06,8.47-10.64,2.85-3.58,5.77-7.25,8.92-11.21,3.15-3.96,6.52-8.2,10.27-12.9,6.35,0,12.48,0,18.41,0s11.67,0,17.24,0h16.28c5.28,0,10.44,0,15.49,0s10.02,0,14.92,0,9.73,0,14.53,0h14.33c4.77,0,9.53,0,14.33,0s9.63,0,14.52,0h14.92c5.06,0,10.22,0,15.5,0s10.69,0,16.27,0h35.66c3.75,4.71,7.12,8.95,10.27,12.9,3.15,3.96,6.07,7.63,8.92,11.21,2.85,3.58,5.62,7.06,8.47,10.64,2.85,3.58,5.77,7.25,8.92,11.21,3.15,3.96,6.51,8.19,10.26,12.9Z"/>
          <path class="cls-14" d="M153.07,171.73h-16.71c3.64-4.58,6.92-8.7,9.98-12.54,3.06-3.85,5.9-7.42,8.67-10.89,2.77-3.48,5.46-6.86,8.23-10.34,2.77-3.48,5.61-7.05,8.67-10.89s6.34-7.97,9.98-12.54h11.9c-3.26,4.58-6.19,8.7-8.92,12.54-2.74,3.85-5.27,7.42-7.75,10.89-2.48,3.48-4.89,6.86-7.36,10.34-2.48,3.48-5.02,7.05-7.75,10.89-2.74,3.85-5.67,7.96-8.92,12.54Z"/>
          <path class="cls-23" d="M188.21,142.36c-5.7,0-8.55,0-14.24,0,2.8-3.93,5.13-7.21,7.31-10.27s4.2-5.9,6.38-8.96c2.18-3.06,4.51-6.34,7.3-10.27,4.7,0,7.05,0,11.76,0-2.47,3.93-4.52,7.21-6.44,10.27-1.92,3.06-3.7,5.9-5.62,8.96-1.92,3.06-3.97,6.34-6.44,10.27Z"/>
          <path class="cls-21" d="M171.9,168.36c-3.29,0-5.75,0-8.22,0h-8.22c2.8-3.93,5.13-7.21,7.31-10.27s4.2-5.9,6.37-8.95c2.18-3.06,4.5-6.34,7.3-10.27h13.95c-2.47,3.93-4.52,7.21-6.44,10.27s-3.7,5.9-5.62,8.96c-1.92,3.06-3.98,6.33-6.44,10.27Z"/>
          <path class="cls-22" d="M198.76,149.15h-14.82c3.38-5.39,5.08-8.09,8.46-13.48h13.68c-2.93,5.39-4.39,8.09-7.32,13.48Z"/>
          <path class="cls-22" d="M208.59,131.05c-5.32,0-7.97,0-13.29,0,2.28-3.64,3.99-6.37,5.7-9.09s3.42-5.45,5.7-9.09c4.7,0,7.06,0,11.76,0-1.98,3.64-3.46,6.37-4.94,9.1s-2.97,5.46-4.94,9.09Z"/>
          <path class="cls-22" d="M186.5,171.73h-8.36c-2.51,0-5.01,0-8.35,0,2.27-3.62,3.97-6.34,5.68-9.05,1.7-2.72,3.41-5.43,5.68-9.05,6.08,0,9.11,0,15.19,0-1.97,3.62-3.44,6.34-4.92,9.06-1.48,2.72-2.95,5.43-4.91,9.05Z"/>
          <path class="cls-24" d="M203.21,171.73h-16.71c2.62-4.82,4.91-9.05,7.04-12.96s4.1-7.53,6.06-11.15c1.97-3.62,3.93-7.23,6.06-11.15,2.13-3.92,4.42-8.14,7.04-12.97,5.06,0,7.59,0,12.65,0-2.21,4.82-4.15,9.04-5.95,12.96-1.8,3.92-3.46,7.53-5.12,11.15-1.66,3.62-3.32,7.24-5.12,11.16-1.8,3.92-3.73,8.14-5.95,12.96Z"/>
          <path class="cls-28" d="M222.24,165.55h-16.2c2.42-5.27,4.54-9.88,6.5-14.16,1.97-4.28,3.78-8.23,5.59-12.18,1.81-3.95,3.63-7.9,5.59-12.18,1.97-4.28,4.08-8.89,6.5-14.16,4.71,0,7.06,0,11.76,0-1.97,5.27-3.7,9.88-5.31,14.16-1.6,4.28-3.09,8.23-4.57,12.18-1.48,3.95-2.96,7.9-4.57,12.18-1.6,4.28-3.33,8.89-5.3,14.16Z"/>
          <path class="cls-4" d="M236.64,171.73h-16.71c1.99-5.3,3.73-9.95,5.35-14.26,1.62-4.31,3.1-8.29,4.6-12.27,1.49-3.98,2.99-7.96,4.61-12.27,1.62-4.31,3.36-8.96,5.35-14.26h12.25c-1.54,5.3-2.89,9.95-4.15,14.26-1.25,4.31-2.41,8.29-3.57,12.27-1.16,3.98-2.31,7.96-3.57,12.27-1.25,4.31-2.6,8.95-4.14,14.26Z"/>
          <path class="cls-16" d="M253.3,171.96h-16.73c1.61-5.55,2.96-10.17,4.21-14.49s2.42-8.32,3.67-12.64,2.6-8.94,4.21-14.48h13.23c-1.15,5.55-2.09,10.17-2.98,14.48-.89,4.32-1.72,8.32-2.62,12.64-.89,4.32-1.85,8.94-3,14.48Z"/>
          <path class="cls-4" d="M270.06,171.73h-16.71c1.21-5.89,2.28-11.03,3.26-15.82.99-4.78,1.92-9.2,2.83-13.61.91-4.42,1.82-8.83,2.81-13.61.99-4.78,2.05-9.94,3.27-15.82,4.7,0,7.06,0,11.76,0-.72,5.89-1.35,11.04-1.94,15.82-.59,4.78-1.12,9.2-1.67,13.61-.54,4.42-1.09,8.83-1.67,13.61-.59,4.78-1.22,9.93-1.94,15.82Z"/>
          <path class="cls-17" d="M286.91,168.36c-3.29,0-5.75,0-8.21,0s-4.94,0-8.22,0c.64-5.19,1.2-9.73,1.71-13.95.52-4.22.99-8.11,1.46-12,.48-3.89.96-7.79,1.47-12,.52-4.22,1.07-8.76,1.71-13.95,4.83,0,7.24,0,12.06,0-.2,5.19-.37,9.73-.53,13.95-.16,4.22-.32,8.11-.47,12-.15,3.89-.29,7.78-.45,12-.16,4.22-.34,8.75-.54,13.94Z"/>
          <path class="cls-9" d="M303.19,165.06h-16.16c.23-6.04.43-11.07.61-15.77.18-4.7.35-9.06.53-13.75.18-4.7.37-9.73.6-15.77,4.93,0,7.4,0,12.33,0,.28,6.04.51,11.07.73,15.77.22,4.7.42,9.06.63,13.76.22,4.7.44,9.73.72,15.77Z"/>
          <path class="cls-4" d="M320.2,171.73h-16.71c-.29-6.28-.53-11.52-.75-16.41s-.43-9.43-.66-14.32c-.23-4.89-.46-10.13-.75-16.41h12.75c.82,6.29,1.5,11.52,2.13,16.41.64,4.89,1.22,9.43,1.85,14.32.64,4.89,1.32,10.13,2.13,16.41Z"/>
          <path class="cls-22" d="M329.96,139.21c-5.59,0-8.39,0-13.98,0-.69-5.27-1.2-9.22-1.71-13.17-.51-3.95-1.03-7.91-1.72-13.17,4.7,0,7.06,0,11.76,0,1.13,5.27,1.98,9.22,2.83,13.17.85,3.95,1.69,7.9,2.82,13.17Z"/>
          <path class="cls-24" d="M336.92,171.73h-16.72c-.68-5.25-1.19-9.19-1.7-13.12-.51-3.94-1.03-7.87-1.71-13.12,5.8,0,8.7,0,14.5,0,1.12,5.25,1.97,9.18,2.82,13.12.84,3.94,1.69,7.87,2.81,13.12Z"/>
          <path class="cls-15" d="M351.61,164.96c-3.23,0-5.65,0-8.07,0s-4.84,0-8.07,0c-1.11-5.21-2.09-9.77-3-14-.9-4.23-1.74-8.14-2.58-12.05-.84-3.91-1.67-7.81-2.58-12.05-.91-4.23-1.88-8.79-3-14h11.76c1.55,5.21,2.91,9.77,4.17,14,1.26,4.23,2.43,8.14,3.59,12.05,1.16,3.91,2.32,7.81,3.59,12.05,1.26,4.23,2.63,8.79,4.18,14Z"/>
          <path class="cls-22" d="M370.33,171.73h-16.7c-1.55-5.2-2.91-9.74-4.16-13.96s-2.43-8.12-3.59-12.02-2.32-7.79-3.58-12.02c-1.26-4.22-2.61-8.77-4.16-13.97h12.34c1.99,5.2,3.72,9.74,5.33,13.97s3.11,8.12,4.6,12.02c1.49,3.9,2.98,7.79,4.6,12.02,1.62,4.22,3.34,8.77,5.33,13.96Z"/>
          <path class="cls-17" d="M383.95,165.06h-16.16c-1.73-4.53-3.24-8.49-4.65-12.17-1.41-3.68-2.7-7.08-4-10.48-1.3-3.4-2.6-6.8-4.01-10.47-1.41-3.68-2.92-7.64-4.65-12.17h12.34c2.11,4.53,3.96,8.5,5.67,12.18,1.72,3.68,3.3,7.07,4.89,10.47,1.58,3.4,3.17,6.8,4.89,10.48,1.72,3.68,3.57,7.64,5.68,12.17Z"/>
          <path class="cls-4" d="M383.91,135.67h-13.67c-1.78-3.81-3.12-6.67-4.45-9.53-1.33-2.86-2.67-5.72-4.45-9.53h12.07c2.1,3.81,3.68,6.67,5.25,9.53,1.58,2.86,3.15,5.72,5.25,9.53Z"/>
          <path class="cls-24" d="M397.71,160.71h-15.79c-1.78-3.81-3.11-6.67-4.44-9.53-1.33-2.86-2.68-5.72-4.46-9.53h14.18c2.1,3.81,3.68,6.67,5.25,9.53s3.15,5.72,5.25,9.53Z"/>
          <path class="cls-15" d="M406.2,149.24c-5.93,0-8.89,0-14.82,0-2.67-4.85-4.89-8.89-6.97-12.67-2.08-3.77-4.01-7.28-6.09-11.05-2.08-3.77-4.31-7.82-6.98-12.67h11.77c3.08,4.85,5.65,8.89,8.04,12.67s4.61,7.28,7.01,11.05c2.4,3.77,4.96,7.81,8.04,12.66Z"/>
          <path class="cls-8" d="M452.41,171.73h-30.52c-3.24-5.05-6.08-9.46-8.71-13.57-2.63-4.1-5.07-7.89-7.5-11.68-2.43-3.79-4.87-7.57-7.5-11.68-2.63-4.1-5.47-8.52-8.71-13.57h22.77c3.21,4.04,6.11,7.67,8.81,11.07s5.2,6.54,7.65,9.61c2.44,3.07,4.82,6.06,7.26,9.13s4.95,6.22,7.65,9.61,5.59,7.03,8.8,11.07Z"/>
        </g>
      </g>
    </g>
  </g>
</svg>