<?xml version="1.0" encoding="UTF-8"?>
<svg xmlns="http://www.w3.org/2000/svg" version="1.1" xmlns:xlink="http://www.w3.org/1999/xlink" viewBox="0 0 500 500">
  <defs>
    <style>
      .cls-1 {
        opacity: .06;
      }

      .cls-1, .cls-2, .cls-3, .cls-4, .cls-5, .cls-6, .cls-7, .cls-8, .cls-9, .cls-10, .cls-11, .cls-12, .cls-13, .cls-14, .cls-15, .cls-16, .cls-17, .cls-18, .cls-19, .cls-20, .cls-21, .cls-22, .cls-23, .cls-24, .cls-25, .cls-26, .cls-27, .cls-28, .cls-29, .cls-30, .cls-31, .cls-32, .cls-33, .cls-34, .cls-35, .cls-36, .cls-37, .cls-38, .cls-39, .cls-40, .cls-41, .cls-42, .cls-43, .cls-44, .cls-45, .cls-46, .cls-47, .cls-48, .cls-49, .cls-50, .cls-51, .cls-52, .cls-53, .cls-54, .cls-55, .cls-56, .cls-57, .cls-58, .cls-59, .cls-60, .cls-61, .cls-62, .cls-63, .cls-64, .cls-65, .cls-66, .cls-67, .cls-68, .cls-69, .cls-70 {
        mix-blend-mode: multiply;
      }

      .cls-1, .cls-2, .cls-3, .cls-4, .cls-6, .cls-7, .cls-9, .cls-10, .cls-11, .cls-12, .cls-13, .cls-14, .cls-15, .cls-16, .cls-17, .cls-18, .cls-19, .cls-20, .cls-21, .cls-22, .cls-23, .cls-24, .cls-25, .cls-27, .cls-28, .cls-29, .cls-30, .cls-31, .cls-32, .cls-33, .cls-34, .cls-35, .cls-36, .cls-37, .cls-40, .cls-42, .cls-44, .cls-45, .cls-46, .cls-47, .cls-48, .cls-49, .cls-50, .cls-51, .cls-52, .cls-55, .cls-57, .cls-58, .cls-59, .cls-60, .cls-61, .cls-62, .cls-63, .cls-64, .cls-65, .cls-66, .cls-67, .cls-68, .cls-69, .cls-70 {
        fill: #fff;
      }

      .cls-71 {
        opacity: .65;
      }

      .cls-71, .cls-72, .cls-73, .cls-74, .cls-75, .cls-76, .cls-77, .cls-78, .cls-79, .cls-80, .cls-81, .cls-82, .cls-83, .cls-84, .cls-85, .cls-86, .cls-87, .cls-88, .cls-89, .cls-90, .cls-91, .cls-92, .cls-93, .cls-94, .cls-95, .cls-96, .cls-97, .cls-98, .cls-99, .cls-100, .cls-101, .cls-102, .cls-103, .cls-104, .cls-105, .cls-106, .cls-107, .cls-108, .cls-109, .cls-110, .cls-111, .cls-112, .cls-113, .cls-114, .cls-115, .cls-116, .cls-117, .cls-118, .cls-119, .cls-120 {
        fill: #c8c7c7;
      }

      .cls-2 {
        opacity: .33;
      }

      .cls-3 {
        opacity: .57;
      }

      .cls-72 {
        opacity: .88;
      }

      .cls-4 {
        opacity: .49;
      }

      .cls-121 {
        fill: #548b8d;
      }

      .cls-5 {
        fill: url(#linear-gradient-2);
      }

      .cls-122 {
        fill: #b4b4b4;
      }

      .cls-123, .cls-8 {
        fill: #cdcccc;
      }

      .cls-6 {
        opacity: .02;
      }

      .cls-73 {
        opacity: .6;
      }

      .cls-7 {
        opacity: .48;
      }

      .cls-124 {
        opacity: .12;
      }

      .cls-124, .cls-125, .cls-126, .cls-127, .cls-128, .cls-129, .cls-130, .cls-131, .cls-132, .cls-133, .cls-134 {
        fill: #d6cfc3;
      }

      .cls-74 {
        opacity: .5;
      }

      .cls-75 {
        opacity: .48;
      }

      .cls-76 {
        opacity: .56;
      }

      .cls-77 {
        opacity: .53;
      }

      .cls-135, .cls-136 {
        fill: #4e4d4d;
      }

      .cls-135, .cls-137 {
        mix-blend-mode: screen;
      }

      .cls-78 {
        opacity: .77;
      }

      .cls-79 {
        opacity: .86;
      }

      .cls-138 {
        fill: #d9d9d9;
      }

      .cls-9 {
        opacity: .24;
      }

      .cls-10 {
        opacity: .1;
      }

      .cls-11 {
        opacity: .6;
      }

      .cls-12 {
        opacity: .54;
      }

      .cls-13 {
        opacity: .55;
      }

      .cls-14 {
        opacity: .58;
      }

      .cls-80 {
        opacity: .86;
      }

      .cls-81 {
        opacity: .86;
      }

      .cls-139 {
        fill: #764d42;
      }

      .cls-15 {
        opacity: .35;
      }

      .cls-82 {
        opacity: .61;
      }

      .cls-16 {
        opacity: .3;
      }

      .cls-17 {
        opacity: .95;
      }

      .cls-18 {
        opacity: 0;
      }

      .cls-83 {
        opacity: .34;
      }

      .cls-19 {
        opacity: .7;
      }

      .cls-20 {
        opacity: .55;
      }

      .cls-84 {
        opacity: .54;
      }

      .cls-85 {
        opacity: .65;
      }

      .cls-140 {
        fill: none;
      }

      .cls-21 {
        opacity: .23;
      }

      .cls-22 {
        opacity: .25;
      }

      .cls-86 {
        opacity: .36;
      }

      .cls-23 {
        opacity: .39;
      }

      .cls-141 {
        fill: #659348;
      }

      .cls-24 {
        opacity: .14;
      }

      .cls-25 {
        opacity: .97;
      }

      .cls-142, .cls-38 {
        fill: #74563e;
      }

      .cls-26 {
        fill: #979797;
      }

      .cls-143 {
        fill: #a2695a;
      }

      .cls-87 {
        opacity: .35;
      }

      .cls-144 {
        clip-path: url(#clippath-1);
      }

      .cls-27 {
        opacity: .07;
      }

      .cls-88 {
        opacity: .46;
      }

      .cls-89 {
        opacity: .81;
      }

      .cls-90 {
        opacity: .39;
      }

      .cls-91 {
        opacity: .98;
      }

      .cls-145 {
        fill: #457374;
      }

      .cls-28 {
        opacity: .52;
      }

      .cls-92 {
        opacity: .39;
      }

      .cls-146 {
        fill: #5a4330;
      }

      .cls-93 {
        opacity: .86;
      }

      .cls-29 {
        opacity: .06;
      }

      .cls-147 {
        isolation: isolate;
      }

      .cls-148 {
        fill: #8c5c50;
      }

      .cls-30 {
        opacity: .22;
      }

      .cls-125 {
        opacity: .02;
      }

      .cls-126 {
        opacity: .57;
      }

      .cls-31 {
        opacity: .33;
      }

      .cls-32 {
        opacity: 0;
      }

      .cls-127 {
        opacity: .58;
      }

      .cls-33 {
        opacity: .92;
      }

      .cls-94 {
        opacity: .38;
      }

      .cls-34 {
        opacity: .94;
      }

      .cls-35 {
        opacity: .12;
      }

      .cls-95 {
        opacity: .79;
      }

      .cls-96 {
        opacity: .49;
      }

      .cls-36 {
        opacity: .82;
      }

      .cls-37 {
        opacity: .55;
      }

      .cls-97 {
        opacity: .34;
      }

      .cls-98 {
        opacity: .62;
      }

      .cls-39 {
        fill: #b0b0b0;
      }

      .cls-128 {
        opacity: .9;
      }

      .cls-99 {
        opacity: .52;
      }

      .cls-40 {
        opacity: .07;
      }

      .cls-149 {
        fill: #89a427;
      }

      .cls-41 {
        fill: #bdbdbc;
      }

      .cls-42 {
        opacity: .12;
      }

      .cls-100 {
        opacity: .85;
      }

      .cls-101 {
        opacity: .58;
      }

      .cls-150 {
        fill: #5d8840;
      }

      .cls-102 {
        opacity: .35;
      }

      .cls-130 {
        opacity: .87;
      }

      .cls-44 {
        opacity: .21;
      }

      .cls-45 {
        opacity: .58;
      }

      .cls-103 {
        opacity: .46;
      }

      .cls-104 {
        opacity: .7;
      }

      .cls-131 {
        opacity: .88;
      }

      .cls-105 {
        opacity: .74;
      }

      .cls-151 {
        fill: #52352e;
      }

      .cls-46 {
        opacity: .1;
      }

      .cls-106 {
        opacity: .82;
      }

      .cls-47 {
        opacity: .11;
      }

      .cls-48 {
        opacity: .83;
      }

      .cls-49 {
        opacity: .68;
      }

      .cls-107 {
        opacity: .93;
      }

      .cls-50 {
        opacity: .57;
      }

      .cls-137 {
        fill: #383938;
      }

      .cls-132 {
        opacity: .37;
      }

      .cls-108 {
        opacity: .51;
      }

      .cls-51 {
        opacity: .3;
      }

      .cls-133 {
        opacity: .1;
      }

      .cls-109 {
        opacity: .38;
      }

      .cls-110 {
        opacity: .42;
      }

      .cls-111 {
        opacity: .74;
      }

      .cls-52 {
        opacity: .25;
      }

      .cls-112 {
        opacity: .59;
      }

      .cls-134 {
        opacity: .42;
      }

      .cls-113 {
        opacity: .96;
      }

      .cls-53 {
        fill: #808181;
      }

      .cls-54 {
        fill: #c5c5c4;
      }

      .cls-114 {
        opacity: .38;
      }

      .cls-55 {
        opacity: .28;
      }

      .cls-115 {
        opacity: .72;
      }

      .cls-56 {
        fill: url(#linear-gradient);
      }

      .cls-57 {
        opacity: .27;
      }

      .cls-152 {
        fill: #593c31;
      }

      .cls-116 {
        opacity: .93;
      }

      .cls-153 {
        fill: #3b3328;
      }

      .cls-58 {
        opacity: .25;
      }

      .cls-154 {
        fill: #4f5450;
      }

      .cls-59 {
        opacity: .75;
      }

      .cls-117 {
        opacity: .91;
      }

      .cls-60 {
        opacity: .09;
      }

      .cls-61 {
        opacity: .96;
      }

      .cls-155 {
        clip-path: url(#clippath);
      }

      .cls-118 {
        opacity: .6;
      }

      .cls-62 {
        opacity: .52;
      }

      .cls-63 {
        opacity: .31;
      }

      .cls-64 {
        opacity: .41;
      }

      .cls-65 {
        opacity: .69;
      }

      .cls-66 {
        opacity: .36;
      }

      .cls-119 {
        opacity: .58;
      }

      .cls-67 {
        opacity: .16;
      }

      .cls-68 {
        opacity: .09;
      }

      .cls-69 {
        opacity: .97;
      }

      .cls-120 {
        opacity: .72;
      }

      .cls-70 {
        opacity: .01;
      }
    </style>
    <clipPath id="clippath">
      <polygon class="cls-154" points="188.73 193.44 308.54 136.3 360.96 83.46 427.08 194.8 188.73 193.44"/>
    </clipPath>
    <linearGradient id="linear-gradient" x1="230.81" y1="273.28" x2="346.96" y2="273.28" gradientUnits="userSpaceOnUse">
      <stop offset="0" stop-color="#d6cfc3"/>
      <stop offset="1" stop-color="#fff"/>
    </linearGradient>
    <clipPath id="clippath-1">
      <polygon class="cls-140" points="121.42 222.05 188.26 193.44 188.26 331.72 121.42 331.72 121.42 222.05"/>
    </clipPath>
    <linearGradient id="linear-gradient-2" x1="244.34" y1="163.1" x2="297.02" y2="239.92" xlink:href="#linear-gradient"/>
  </defs>
  <!-- Generator: Adobe Illustrator 28.6.0, SVG Export Plug-In . SVG Version: 1.2.0 Build 709)  -->
  <g class="cls-147">
    <g id="Calque_1">
      <g>
        <g>
          <g>
            <polygon class="cls-138" points="218.27 104.46 194.84 104.46 191.07 172.65 222.04 172.65 218.27 104.46"/>
            <polygon class="cls-123" points="191.07 172.65 189.82 195.4 223.29 195.4 222.04 172.65 191.07 172.65"/>
          </g>
          <polygon class="cls-122" points="194.4 112.55 218.71 112.55 218.66 111.62 194.45 111.62 194.4 112.55"/>
          <g class="cls-43">
            <path class="cls-35" d="M195.08,164.14c-1.37,0-2.49,0-3.54,0l-.18,3.33h3.58c.06-1.33.09-2,.15-3.33Z"/>
            <path class="cls-7" d="M192.9,139.64h8.12c.03-1.33.05-2,.08-3.33-3.24,0-5,0-8.01,0l-.18,3.33Z"/>
            <path class="cls-21" d="M193.12,135.61h3.16c.06-1.34.09-2,.15-3.34h-3.12l-.18,3.34Z"/>
            <path class="cls-6" d="M200.55,160.21h-8.79l-.19,3.33h8.89c.03-1.33.05-1.99.08-3.33Z"/>
            <path class="cls-48" d="M216.99,135.61h2.99l-.18-3.34h-2.95c.06,1.34.08,2,.14,3.34Z"/>
            <path class="cls-68" d="M193.56,127.64c.91,0,1.88,0,3.06,0,.06-1.33.08-2,.14-3.33h-3.01l-.19,3.33Z"/>
            <path class="cls-65" d="M202.13,139.64c3.54,0,5.3,0,8.85,0-.03-1.33-.03-2-.06-3.33-3.5,0-5.24,0-8.73,0-.03,1.33-.03,2-.06,3.33Z"/>
            <path class="cls-29" d="M197.38,135.61h8.71c0-1.34.01-2,.02-3.34h-8.59c-.05,1.34-.08,2-.13,3.34Z"/>
            <path class="cls-44" d="M193.34,131.68h7.84c.03-1.33.05-2,.08-3.33h-7.74l-.18,3.33Z"/>
            <path class="cls-50" d="M217.13,167.47c-.05-1.33-.08-2-.13-3.33-3.9,0-5.84,0-9.74,0,0,1.33,0,2,0,3.33h9.86Z"/>
            <path class="cls-58" d="M221.75,167.47l-.18-3.33h-3.35c.06,1.33.08,2,.14,3.33h3.39Z"/>
            <path class="cls-40" d="M221.35,160.21h-8.79c.03,1.33.04,2,.07,3.33h8.9l-.18-3.33Z"/>
            <path class="cls-61" d="M216.65,127.64h2.9l-.18-3.33h-2.86c.06,1.33.08,2,.14,3.33Z"/>
            <path class="cls-55" d="M197.08,143.58h8.99c0-1.33,0-2,0-3.33h-8.88c-.05,1.34-.08,2-.12,3.33Z"/>
            <path class="cls-31" d="M207.23,151.54h9.29c-.05-1.34-.08-2-.13-3.34-3.67,0-5.5,0-9.16,0,0,1.34,0,2,0,3.34Z"/>
            <path class="cls-19" d="M207.19,140.24c0,1.34.02,2,.02,3.33h9c-.05-1.33-.08-2-.13-3.33h-8.89Z"/>
            <path class="cls-64" d="M198.41,108.39c-.05,1.33-.08,1.99-.12,3.33,3.14,0,4.71,0,7.85,0,0-1.33,0-1.99,0-3.33h-7.73Z"/>
            <path class="cls-60" d="M217.67,151.54h3.2l-.19-3.34h-3.15c.06,1.34.08,2,.14,3.34Z"/>
            <path class="cls-20" d="M217.33,143.58h3.1l-.18-3.33h-3.05c.06,1.34.08,2,.14,3.33Z"/>
            <path class="cls-46" d="M192.46,147.61h8.37c.03-1.34.05-2,.08-3.34h-8.27l-.19,3.34Z"/>
            <path class="cls-33" d="M216.82,159.51c-.05-1.34-.08-2.01-.13-3.34h-9.45c0,1.34,0,2.01,0,3.34h9.57Z"/>
            <path class="cls-42" d="M206.06,156.17h-9.45c-.05,1.34-.08,2.01-.13,3.34h9.57c0-1.34,0-2.01,0-3.34Z"/>
            <path class="cls-32" d="M211.23,152.24h-9.32c-.03,1.33-.04,2-.07,3.34h9.44c-.03-1.34-.03-2-.05-3.34Z"/>
            <path class="cls-2" d="M220.91,152.24h-8.52c.03,1.34.04,2,.06,3.34h8.64l-.18-3.34Z"/>
            <path class="cls-17" d="M200.73,152.24h-8.53l-.18,3.34h8.64c.03-1.34.04-2,.08-3.34Z"/>
            <path class="cls-28" d="M195.75,148.21h-3.32l-.18,3.33h3.37c.06-1.33.08-2,.14-3.33Z"/>
            <path class="cls-14" d="M192.68,143.58h3.26c.06-1.33.08-2,.14-3.33h-3.22l-.19,3.33Z"/>
            <path class="cls-10" d="M221.31,159.51l-.18-3.34h-3.25c.06,1.34.08,2,.14,3.34h3.3Z"/>
            <path class="cls-59" d="M195.41,156.17h-3.43l-.18,3.34h3.47c.06-1.34.09-2.01.14-3.34Z"/>
            <path class="cls-22" d="M194.06,188.03h-3.84l-.19,3.33h3.88c.06-1.33.09-2,.14-3.33Z"/>
            <path class="cls-57" d="M222.63,183.4l-.18-3.34h-3.54c.06,1.34.07,2,.13,3.34h3.59Z"/>
            <path class="cls-34" d="M194.44,111.72h2.85c.06-1.34.08-2,.14-3.33h-2.8l-.18,3.33Z"/>
            <path class="cls-9" d="M200.02,184.1c-3.87,0-5.98,0-9.58,0l-.18,3.33h9.68c.03-1.34.05-2,.08-3.33Z"/>
            <path class="cls-66" d="M215.97,111.72h2.7l-.18-3.33h-2.67c.06,1.33.1,1.99.16,3.33Z"/>
            <path class="cls-16" d="M211.55,115.75h7.34l-.18-3.33h-7.23c.03,1.33.04,2,.08,3.33Z"/>
            <path class="cls-30" d="M205.99,188.03h-10.6c-.05,1.33-.07,2-.12,3.34h10.72c0-1.34,0-2,0-3.34Z"/>
            <path class="cls-70" d="M201.73,107.79c.03-1.33.05-1.99.08-3.33h-6.96l-.18,3.33c2.64,0,4.23,0,7.07,0Z"/>
            <path class="cls-37" d="M201.18,192.06c-.03,1.33-.04,2-.06,3.33h10.85c-.02-1.34-.03-2-.05-3.33h-10.74Z"/>
            <path class="cls-15" d="M211.78,184.1h-10.45c-.03,1.33-.03,1.99-.06,3.33,4.23,0,6.34,0,10.57,0-.03-1.34-.04-2-.06-3.33Z"/>
            <path class="cls-3" d="M213.27,192.06c.03,1.33.04,2,.07,3.33h9.94l-.18-3.33h-9.83Z"/>
            <path class="cls-36" d="M190,192.06l-.18,3.33h9.95c.03-1.34.03-2,.06-3.33h-9.83Z"/>
            <path class="cls-18" d="M222.67,184.1c-3.6,0-5.7,0-9.57,0,.03,1.33.04,1.99.07,3.33h9.68l-.18-3.33Z"/>
            <path class="cls-27" d="M218.45,107.79l-.18-3.33h-6.96c.03,1.34.05,2,.07,3.33,2.85,0,4.44,0,7.07,0Z"/>
            <path class="cls-63" d="M218.06,191.36c-.05-1.34-.09-2-.14-3.34h-10.6c0,1.33,0,2,0,3.34h10.73Z"/>
            <path class="cls-62" d="M223.07,191.36l-.18-3.34h-3.63c.06,1.33.08,2,.14,3.34h3.68Z"/>
            <path class="cls-69" d="M221.79,168.17h-9.05c.03,1.33.04,2,.08,3.33,3.7,0,5.7,0,9.16,0l-.18-3.33Z"/>
            <path class="cls-11" d="M222.19,175.43l-.15-2.78-.03-.55h-3.46c.06,1.33.09,2,.15,3.33h3.49Z"/>
            <path class="cls-4" d="M216.31,119.68h2.8l-.18-3.34h-2.75c.06,1.34.09,2,.14,3.34Z"/>
            <path class="cls-67" d="M194.74,172.1h-3.63l-.03.55-.15,2.78h3.68c.06-1.33.09-2,.15-3.33Z"/>
            <path class="cls-45" d="M211.75,123.72h7.58l-.19-3.34h-7.47c.03,1.34.04,2,.08,3.34Z"/>
            <path class="cls-52" d="M200.37,168.17h-9.05l-.19,3.33c3.45,0,5.45,0,9.16,0,.03-1.33.04-2,.07-3.33Z"/>
            <path class="cls-24" d="M207.14,116.35c0,1.34,0,2,0,3.34h8.13c-.05-1.34-.07-2-.12-3.34h-8.02Z"/>
            <path class="cls-47" d="M211.51,168.17c-3.95,0-5.94,0-9.89,0-.03,1.33-.04,2-.06,3.33h10c-.02-1.33-.02-2-.05-3.33Z"/>
            <path class="cls-51" d="M211.64,176.13c-4.07,0-6.1,0-10.17,0-.03,1.33-.03,2-.06,3.34h10.29c-.03-1.34-.03-2.01-.06-3.34Z"/>
            <path class="cls-25" d="M200.2,176.14h-9.32l-.18,3.33c3.55,0,5.61,0,9.42,0,.03-1.34.05-2,.09-3.34Z"/>
            <path class="cls-13" d="M217.74,183.4c-.05-1.34-.08-2-.13-3.34h-10.31c0,1.34,0,2,.01,3.34h10.43Z"/>
            <path class="cls-1" d="M194.4,180.06h-3.73l-.18,3.34h3.78c.06-1.34.08-2,.13-3.34Z"/>
            <path class="cls-23" d="M193.78,123.72h7.59c.03-1.34.05-2,.08-3.34h-7.48l-.18,3.34Z"/>
            <path class="cls-12" d="M222.23,176.14h-9.31c.03,1.33.04,2,.07,3.34,3.81,0,5.88,0,9.42,0l-.18-3.33Z"/>
            <path class="cls-49" d="M194,119.68h2.94c.06-1.33.09-2,.15-3.34h-2.91l-.18,3.34Z"/>
          </g>
        </g>
        <path class="cls-149" d="M424.93,294.43s-.02,0-.03,0H87.31s-.01,0-.02,0c-17.99,0-32.56,14.58-32.56,32.56s14.58,32.56,32.56,32.56h337.64c17.99,0,32.56-14.58,32.56-32.56s-14.57-32.56-32.56-32.56Z"/>
        <rect class="cls-129" x="188.26" y="193.44" width="240.55" height="138.29"/>
        <g class="cls-43">
          <polygon class="cls-154" points="188.73 193.44 308.54 136.3 360.96 83.46 427.08 194.8 188.73 193.44"/>
          <g class="cls-155">
            <rect class="cls-105" x="186.76" y="54.76" width="4.07" height="178.94"/>
            <rect class="cls-79" x="191.64" y="54.76" width="4.07" height="178.94"/>
            <rect class="cls-74" x="196.53" y="54.76" width="4.07" height="178.94"/>
            <rect class="cls-96" x="201.42" y="54.76" width="4.07" height="178.94"/>
            <rect class="cls-107" x="206.31" y="54.76" width="4.07" height="178.94"/>
            <rect class="cls-120" x="211.19" y="54.76" width="4.07" height="178.94"/>
            <rect class="cls-80" x="216.08" y="54.76" width="4.07" height="178.94"/>
            <rect class="cls-108" x="220.97" y="54.76" width="4.07" height="178.94"/>
            <rect class="cls-97" x="225.85" y="54.76" width="4.07" height="178.94"/>
            <rect class="cls-90" x="230.74" y="54.76" width="4.07" height="178.94"/>
            <rect class="cls-100" x="235.63" y="54.76" width="4.07" height="178.94"/>
            <rect class="cls-72" x="240.51" y="54.76" width="4.07" height="178.94"/>
            <rect class="cls-87" x="245.4" y="54.76" width="4.07" height="178.94"/>
            <rect class="cls-103" x="250.29" y="54.76" width="4.07" height="178.94"/>
            <rect class="cls-77" x="255.17" y="54.76" width="4.07" height="178.94"/>
            <rect class="cls-98" x="260.06" y="54.76" width="4.07" height="178.94"/>
            <rect class="cls-106" x="264.95" y="54.76" width="4.07" height="178.94"/>
            <rect class="cls-118" x="269.84" y="54.76" width="4.07" height="178.94"/>
            <rect class="cls-112" x="274.72" y="54.76" width="4.07" height="178.94"/>
            <rect class="cls-94" x="279.61" y="54.76" width="4.07" height="178.94"/>
            <rect class="cls-89" x="284.49" y="54.76" width="4.07" height="178.94"/>
            <rect class="cls-101" x="289.38" y="54.76" width="4.07" height="178.94"/>
            <rect class="cls-115" x="294.27" y="54.76" width="4.07" height="178.94"/>
            <rect class="cls-82" x="299.16" y="54.76" width="4.07" height="178.94"/>
            <rect class="cls-88" x="304.04" y="54.76" width="4.07" height="178.94"/>
            <rect class="cls-73" x="308.95" y="54.76" width="4.07" height="178.94"/>
            <rect class="cls-85" x="313.84" y="54.76" width="4.07" height="178.94"/>
            <rect class="cls-76" x="318.72" y="54.76" width="4.07" height="178.94"/>
            <rect class="cls-114" x="323.61" y="54.76" width="4.07" height="178.94"/>
            <rect class="cls-84" x="328.5" y="54.76" width="4.07" height="178.94"/>
            <rect class="cls-113" x="333.38" y="54.76" width="4.07" height="178.94"/>
            <rect class="cls-102" x="338.27" y="54.76" width="4.07" height="178.94"/>
            <rect class="cls-95" x="343.16" y="54.76" width="4.07" height="178.94"/>
            <rect class="cls-86" x="348.04" y="54.76" width="4.07" height="178.94"/>
            <rect class="cls-119" x="352.93" y="54.76" width="4.07" height="178.94"/>
            <rect class="cls-92" x="357.82" y="54.76" width="4.07" height="178.94"/>
            <rect class="cls-93" x="362.71" y="54.76" width="4.07" height="178.94"/>
            <rect class="cls-71" x="367.59" y="54.76" width="4.07" height="178.94"/>
            <rect class="cls-91" x="372.48" y="54.76" width="4.07" height="178.94"/>
            <rect class="cls-81" x="377.37" y="54.76" width="4.07" height="178.94"/>
            <rect class="cls-104" x="382.25" y="54.76" width="4.07" height="178.94"/>
            <rect class="cls-117" x="387.14" y="54.76" width="4.07" height="178.94"/>
            <rect class="cls-83" x="392.03" y="54.76" width="4.07" height="178.94"/>
            <rect class="cls-78" x="396.91" y="54.76" width="4.07" height="178.94"/>
            <rect class="cls-99" x="401.8" y="54.76" width="4.07" height="178.94"/>
            <rect class="cls-111" x="406.69" y="54.76" width="4.08" height="178.94"/>
            <rect class="cls-110" x="411.57" y="54.76" width="4.07" height="178.94"/>
            <rect class="cls-109" x="416.46" y="54.76" width="4.07" height="178.94"/>
            <rect class="cls-75" x="421.35" y="54.76" width="4.07" height="178.94"/>
            <rect class="cls-116" x="426.24" y="54.76" width="4.07" height="178.94"/>
          </g>
        </g>
        <rect class="cls-142" x="190.76" y="191.82" width="238.05" height="3.24"/>
        <rect class="cls-142" x="188.26" y="212.49" width="240.55" height="3.24"/>
        <polygon class="cls-142" points="121.42 222.05 188.26 193.44 188.26 331.72 121.42 331.72 121.42 222.05"/>
        <g class="cls-43">
          <rect class="cls-142" x="239.76" y="165.49" width="171.12" height="5.25"/>
        </g>
        <g class="cls-43">
          <rect class="cls-142" x="291.18" y="141.96" width="5.25" height="26.16"/>
        </g>
        <g class="cls-43">
          <rect class="cls-142" x="320.01" y="120.33" width="5.25" height="47.79"/>
        </g>
        <g>
          <g>
            <rect class="cls-142" x="187.86" y="193.5" width="3.24" height="20.62"/>
            <rect class="cls-142" x="184.64" y="202.18" width="26.77" height="3.24" transform="translate(-85.22 226.63) rotate(-50.43)"/>
          </g>
          <g>
            <rect class="cls-142" x="207.88" y="193.5" width="3.24" height="20.62"/>
            <rect class="cls-142" x="204.65" y="202.18" width="26.77" height="3.24" transform="translate(-77.96 242.05) rotate(-50.43)"/>
          </g>
          <g>
            <rect class="cls-142" x="227.88" y="193.5" width="3.24" height="20.62"/>
            <rect class="cls-142" x="224.66" y="202.19" width="26.77" height="3.24" transform="translate(-70.74 257.24) rotate(-50.39)"/>
          </g>
          <g>
            <rect class="cls-142" x="247.9" y="193.5" width="3.24" height="20.62"/>
            <rect class="cls-142" x="244.67" y="202.19" width="26.77" height="3.24" transform="translate(-63.43 272.9) rotate(-50.43)"/>
          </g>
          <g>
            <rect class="cls-142" x="267.91" y="193.5" width="3.24" height="20.62"/>
            <rect class="cls-142" x="264.68" y="202.19" width="26.77" height="3.24" transform="translate(-56.29 287.86) rotate(-50.35)"/>
          </g>
          <g>
            <rect class="cls-142" x="287.92" y="193.5" width="3.24" height="20.62"/>
            <rect class="cls-142" x="284.69" y="202.19" width="26.77" height="3.24" transform="translate(-48.97 303.53) rotate(-50.39)"/>
          </g>
          <g>
            <rect class="cls-142" x="307.93" y="193.5" width="3.24" height="20.62"/>
            <rect class="cls-142" x="304.7" y="202.19" width="26.77" height="3.24" transform="translate(-41.8 318.67) rotate(-50.35)"/>
          </g>
          <g>
            <rect class="cls-142" x="327.94" y="193.5" width="3.24" height="20.62"/>
            <rect class="cls-142" x="324.71" y="202.19" width="26.77" height="3.24" transform="translate(-34.46 334.37) rotate(-50.39)"/>
          </g>
          <g>
            <rect class="cls-142" x="347.95" y="193.5" width="3.24" height="20.62"/>
            <rect class="cls-142" x="344.72" y="202.19" width="26.77" height="3.24" transform="translate(-27.32 349.49) rotate(-50.35)"/>
          </g>
          <g>
            <rect class="cls-142" x="367.96" y="193.5" width="3.24" height="20.62"/>
            <rect class="cls-142" x="364.73" y="202.19" width="26.77" height="3.24" transform="translate(-20.07 364.92) rotate(-50.35)"/>
          </g>
          <g>
            <rect class="cls-142" x="387.97" y="193.5" width="3.24" height="20.62"/>
            <rect class="cls-142" x="384.74" y="202.19" width="26.77" height="3.24" transform="translate(-12.84 380.3) rotate(-50.35)"/>
          </g>
          <g>
            <rect class="cls-142" x="407.98" y="193.5" width="3.24" height="20.62"/>
            <rect class="cls-142" x="404.75" y="202.19" width="26.77" height="3.24" transform="translate(-5.58 395.74) rotate(-50.35)"/>
          </g>
        </g>
        <g class="cls-43">
          <rect class="cls-142" x="348.83" y="90.04" width="5.25" height="78.07"/>
        </g>
        <g class="cls-43">
          <rect class="cls-142" x="377.65" y="116.98" width="5.25" height="51.14"/>
        </g>
        <rect class="cls-142" x="336.92" y="235.88" width="3.24" height="41.15"/>
        <rect class="cls-142" x="378.36" y="235.88" width="3.24" height="41.15"/>
        <rect class="cls-142" x="274.15" y="214.11" width="3.24" height="86.95"/>
        <rect class="cls-142" x="317.55" y="214.11" width="3.24" height="86.95"/>
        <rect class="cls-142" x="396.42" y="214.11" width="3.24" height="86.95"/>
        <rect class="cls-142" x="233.12" y="214.11" width="3.24" height="86.95"/>
        <path class="cls-56" d="M267.46,234.31l-5.32,6.1h3.17c2.92,0,5.36,2.44,5.36,5.36s-2.44,5.35-5.36,5.35h-4.27c-2.32,0-4.32-1.55-5.04-3.65l-25.2,28.92,116.15,35.87v-40.16l-79.49-37.79Z"/>
        <g>
          <rect class="cls-151" x="236.92" y="245.29" width="37.15" height="1.78"/>
          <g>
            <path class="cls-151" d="M238.65,245.29c2.99-4.52,4.93-11.95,16.37-11.95s13.32,5.1,16.37,11.95h-32.74Z"/>
            <rect class="cls-148" x="238.82" y="236.53" width="4.73" height="8.76"/>
            <rect class="cls-148" x="244.15" y="236.53" width="4.73" height="8.76"/>
            <rect class="cls-148" x="249.49" y="235.6" width="4.72" height="9.69"/>
            <rect class="cls-148" x="254.82" y="236.53" width="4.72" height="8.76"/>
            <rect class="cls-148" x="260.15" y="236.53" width="4.73" height="8.76"/>
            <rect class="cls-148" x="265.7" y="236.53" width="4.73" height="8.76"/>
          </g>
          <rect class="cls-143" x="233.86" y="247.09" width="43.65" height="30.46"/>
          <rect class="cls-153" x="236.49" y="249.72" width="38.4" height="25.22"/>
          <rect class="cls-41" x="233.86" y="277.56" width="43.65" height="3.72"/>
          <g>
            <path class="cls-143" d="M278.56,251.34c-4.53-1.89-7.58-5.84-10.52-9.66l-.16-.21c-3.48-4.51-9.55-5.16-12.84-5.11-3.36,0-9.41.61-12.88,5.11l-.16.21c-2.94,3.81-5.99,7.76-10.52,9.66l-2.34-5.59c3.05-1.27,5.37-4.28,8.06-7.77l.16-.21c3.76-4.87,10.09-7.5,17.68-7.47.08,0,.15,0,.23,0,7.49,0,13.68,2.65,17.41,7.47l.16.21c2.69,3.49,5.01,6.5,8.06,7.77l-2.34,5.59Z"/>
            <path class="cls-137" d="M237.2,239.23l.16-.2c3.76-4.88,10.09-7.5,17.68-7.47.08,0,.15,0,.23,0,7.49,0,13.68,2.65,17.41,7.48l.16.2c2.56,3.32,4.79,6.18,7.63,7.55l.43-1.03c-3.05-1.27-5.37-4.28-8.06-7.77l-.16-.21c-3.73-4.82-9.92-7.47-17.41-7.47-.08,0-.16,0-.23,0-7.59-.03-13.92,2.6-17.68,7.47l-.16.21c-2.69,3.49-5.01,6.5-8.06,7.77l.43,1.03c2.84-1.37,5.07-4.23,7.63-7.55Z"/>
            <path class="cls-41" d="M272.84,242.45l-.16-.21c-3.73-4.82-9.92-7.47-17.41-7.47-.08,0-.16,0-.23,0-7.59-.03-13.92,2.6-17.68,7.47l-.16.21c-2.22,2.88-4.2,5.42-6.54,6.94l.82,1.96c4.53-1.89,7.58-5.84,10.52-9.66l.16-.21c3.48-4.5,9.53-5.11,12.88-5.11,3.29-.05,9.36.6,12.84,5.11l.16.21c2.95,3.81,5.99,7.76,10.52,9.66l.82-1.96c-2.34-1.52-4.32-4.06-6.54-6.94Z"/>
          </g>
          <rect class="cls-136" x="253.66" y="249.72" width="4.05" height="25.22"/>
          <rect class="cls-136" x="236.49" y="260.3" width="38.4" height="4.06"/>
          <g>
            <rect class="cls-121" x="222.49" y="249.72" width="11.37" height="27.84"/>
            <rect class="cls-145" x="225.11" y="252.34" width="6.12" height="22.59"/>
            <g>
              <rect class="cls-121" x="225.11" y="254.49" width="6.12" height="1.7"/>
              <rect class="cls-121" x="225.11" y="258.77" width="6.12" height="1.7"/>
              <rect class="cls-121" x="225.11" y="263.04" width="6.12" height="1.7"/>
              <rect class="cls-121" x="225.11" y="267.31" width="6.12" height="1.7"/>
              <rect class="cls-121" x="225.11" y="271.58" width="6.12" height="1.7"/>
            </g>
          </g>
          <g>
            <rect class="cls-121" x="277.51" y="249.72" width="11.37" height="27.84"/>
            <rect class="cls-145" x="280.13" y="252.34" width="6.12" height="22.59"/>
            <g>
              <rect class="cls-121" x="280.13" y="254.49" width="6.12" height="1.7"/>
              <rect class="cls-121" x="280.13" y="258.77" width="6.12" height="1.7"/>
              <rect class="cls-121" x="280.13" y="263.04" width="6.12" height="1.7"/>
              <rect class="cls-121" x="280.13" y="267.31" width="6.12" height="1.7"/>
              <rect class="cls-121" x="280.13" y="271.58" width="6.12" height="1.7"/>
            </g>
          </g>
        </g>
        <rect class="cls-142" x="188.26" y="234.91" width="45.6" height="3.24"/>
        <rect class="cls-142" x="319.55" y="234.91" width="78.49" height="3.24"/>
        <g class="cls-144">
          <g class="cls-43">
            <rect class="cls-77" x="121.26" y="182.11" width="4.07" height="178.94"/>
            <rect class="cls-98" x="126.15" y="182.11" width="4.07" height="178.94"/>
            <rect class="cls-106" x="131.03" y="182.11" width="4.07" height="178.94"/>
            <rect class="cls-118" x="135.92" y="182.11" width="4.07" height="178.94"/>
            <rect class="cls-112" x="140.81" y="182.11" width="4.07" height="178.94"/>
            <rect class="cls-94" x="145.7" y="182.11" width="4.07" height="178.94"/>
            <rect class="cls-89" x="150.58" y="182.11" width="4.07" height="178.94"/>
            <rect class="cls-101" x="155.47" y="182.11" width="4.07" height="178.94"/>
            <rect class="cls-115" x="160.36" y="182.11" width="4.07" height="178.94"/>
            <rect class="cls-82" x="165.24" y="182.11" width="4.07" height="178.94"/>
            <rect class="cls-88" x="170.13" y="182.11" width="4.07" height="178.94"/>
            <rect class="cls-73" x="175.03" y="182.11" width="4.07" height="178.94"/>
            <rect class="cls-85" x="179.92" y="182.11" width="4.07" height="178.94"/>
            <rect class="cls-76" x="184.81" y="182.11" width="4.07" height="178.94"/>
          </g>
        </g>
        <g>
          <rect class="cls-136" x="139.01" y="252" width="34.93" height="23.78"/>
          <rect class="cls-153" x="141.57" y="254.56" width="29.8" height="18.65"/>
          <rect class="cls-135" x="139.01" y="275.77" width="34.93" height="1.42"/>
          <rect class="cls-135" x="139.01" y="250.58" width="34.93" height="1.42"/>
          <rect class="cls-136" x="155.17" y="252" width="2.61" height="23.78"/>
          <rect class="cls-136" x="141.57" y="262.58" width="29.8" height="2.61"/>
          <rect class="cls-135" x="173.94" y="250.58" width="1.18" height="26.61"/>
          <rect class="cls-135" x="137.83" y="250.58" width="1.18" height="26.61"/>
        </g>
        <rect class="cls-142" x="84.56" y="241.42" width="5.99" height="90.31"/>
        <rect class="cls-142" x="425.46" y="193.5" width="3.24" height="19.13"/>
        <rect class="cls-39" x="184.81" y="197.6" width="3.45" height="134.12"/>
        <rect class="cls-152" x="425.44" y="201.45" width="3.24" height="99.62"/>
        <rect class="cls-142" x="347.43" y="214.11" width="3.24" height="22.42"/>
        <rect class="cls-142" x="367.53" y="214.11" width="3.24" height="22.42"/>
        <polygon class="cls-129" points="391.34 359.56 326.86 359.56 335.26 331.72 382.94 331.72 391.34 359.56"/>
        <rect class="cls-142" x="338.54" y="259.02" width="41.73" height="3.24"/>
        <g>
          <rect class="cls-38" x="405.14" y="240.05" width="14.61" height="31.08"/>
          <rect class="cls-121" x="406.76" y="241.67" width="11.37" height="27.84"/>
          <rect class="cls-145" x="409.39" y="244.29" width="6.12" height="22.59"/>
          <g>
            <rect class="cls-121" x="409.39" y="246.44" width="6.12" height="1.7"/>
            <rect class="cls-121" x="409.39" y="250.71" width="6.12" height="1.7"/>
            <rect class="cls-121" x="409.39" y="254.98" width="6.12" height="1.7"/>
            <rect class="cls-121" x="409.39" y="259.26" width="6.12" height="1.7"/>
            <rect class="cls-121" x="409.39" y="263.53" width="6.12" height="1.7"/>
          </g>
        </g>
        <rect class="cls-142" x="121.45" y="301.07" width="307.35" height="30.66"/>
        <rect class="cls-54" x="121.45" y="301.07" width="307.35" height="7.24"/>
        <rect class="cls-26" x="121.45" y="316.4" width="307.35" height="7.24"/>
        <rect class="cls-54" x="335.82" y="301.07" width="46.55" height="30.66"/>
        <g>
          <rect class="cls-143" x="338.54" y="275.44" width="41.44" height="55.96"/>
          <g>
            <path class="cls-151" d="M340.62,281.16c3.37-5.11,5.56-13.49,18.48-13.49s15.03,5.75,18.48,13.49h-36.95Z"/>
            <rect class="cls-148" x="345.45" y="271.28" width="2" height="9.88"/>
            <rect class="cls-148" x="351.47" y="271.28" width="2" height="9.88"/>
            <rect class="cls-148" x="357.49" y="270.22" width="2" height="10.94"/>
            <rect class="cls-148" x="363.5" y="271.28" width="2" height="9.88"/>
            <rect class="cls-148" x="369.52" y="271.28" width="2" height="9.88"/>
          </g>
          <g class="cls-43">
            <rect class="cls-125" x="340.62" y="281.61" width="3.45" height="49.7"/>
            <rect class="cls-128" x="343.97" y="281.61" width="3.45" height="49.7"/>
            <rect class="cls-133" x="347.32" y="281.61" width="3.45" height="49.7"/>
            <rect class="cls-129" x="350.68" y="281.61" width="3.45" height="49.7"/>
            <rect class="cls-127" x="354.03" y="281.61" width="3.44" height="49.7"/>
            <rect class="cls-132" x="357.38" y="281.61" width="3.44" height="49.7"/>
            <rect class="cls-130" x="360.73" y="281.61" width="3.45" height="49.7"/>
            <rect class="cls-126" x="364.08" y="281.61" width="3.45" height="49.7"/>
            <rect class="cls-124" x="367.43" y="281.61" width="3.45" height="49.7"/>
            <rect class="cls-131" x="370.78" y="281.61" width="3.45" height="49.7"/>
            <rect class="cls-134" x="374.12" y="281.61" width="3.45" height="49.7"/>
          </g>
          <g>
            <rect class="cls-139" x="340.62" y="288.09" width="36.95" height="2.61"/>
            <rect class="cls-53" x="340.62" y="290.7" width="36.95" height="1.05"/>
          </g>
          <g>
            <rect class="cls-139" x="340.62" y="318.73" width="36.95" height="2.61"/>
            <rect class="cls-53" x="340.62" y="321.33" width="36.95" height="1.05"/>
          </g>
          <polygon class="cls-139" points="340.62 288.31 340.62 292 377.36 321.2 377.58 320.93 377.58 317.54 340.7 288.22 340.62 288.31"/>
          <g>
            <path class="cls-143" d="M384.53,287.05c-4.89-2.04-8.18-6.31-11.36-10.43l-.17-.22c-3.76-4.87-10.31-5.57-13.87-5.52-3.63,0-10.16.66-13.92,5.52l-.17.22c-3.18,4.12-6.47,8.39-11.36,10.43l-2.53-6.05c3.29-1.37,5.8-4.63,8.71-8.39l.17-.22c4.06-5.26,10.9-8.1,19.1-8.07h.25c8.09,0,14.78,2.86,18.8,8.07l.17.22c2.91,3.76,5.41,7.02,8.71,8.39l-2.53,6.05Z"/>
            <path class="cls-137" d="M339.85,273.96l.17-.22c4.06-5.26,10.9-8.1,19.1-8.07.08,0,.16,0,.25,0,8.09,0,14.78,2.86,18.8,8.07l.17.22c2.76,3.59,5.18,6.68,8.24,8.16l.47-1.11c-3.29-1.37-5.8-4.63-8.71-8.39l-.17-.22c-4.02-5.21-10.71-8.07-18.8-8.07h-.25c-8.2-.03-15.04,2.81-19.1,8.07l-.17.22c-2.91,3.76-5.41,7.02-8.71,8.39l.47,1.11c3.06-1.48,5.48-4.57,8.24-8.16Z"/>
            <path class="cls-41" d="M378.35,277.44l-.17-.22c-4.02-5.21-10.71-8.07-18.8-8.07-.09,0-.17,0-.25,0-8.2-.03-15.04,2.81-19.1,8.07l-.17.22c-2.4,3.12-4.54,5.85-7.06,7.5l.88,2.11c4.89-2.04,8.18-6.31,11.36-10.43l.17-.22c3.76-4.87,10.29-5.51,13.92-5.52,3.56-.05,10.11.66,13.87,5.52l.17.22c3.18,4.12,6.47,8.39,11.36,10.43l.88-2.11c-2.52-1.65-4.66-4.38-7.06-7.5Z"/>
          </g>
          <polygon class="cls-53" points="340.62 292 342.81 294.7 373.23 318.73 374.24 318.73 340.62 292"/>
        </g>
        <polygon class="cls-5" points="119.89 230.98 192.83 279.42 420.92 184.03 362.45 85.98 304.04 140.24 119.89 230.98"/>
        <polygon class="cls-152" points="76.2 250.71 72.07 241.91 305.62 132.29 362.31 71.7 446.88 219.64 438.44 224.46 360.41 87.97 311.45 140.3 310.6 140.7 76.2 250.71"/>
        <g>
          <path class="cls-8" d="M206.84,339.43c-25.47,0-22.23,2.02-22.23,4.5s-3.24,4.49,22.23,4.49,70-2.01,70-4.49-44.53-4.5-70-4.5Z"/>
          <g>
            <path class="cls-146" d="M189.32,341.63c-5.78,0-10.48.95-10.48,2.13s4.69,2.12,10.48,2.12,10.48-.95,10.48-2.12-4.69-2.13-10.48-2.13Z"/>
            <g>
              <rect class="cls-142" x="184.95" y="287.61" width="8.98" height="56.15"/>
              <path class="cls-141" d="M189.45,240.45c-15.5,0-28.07,31.66-28.07,47.16s12.57,28.07,28.07,28.07,28.07-12.57,28.07-28.07-12.57-47.16-28.07-47.16Z"/>
              <path class="cls-150" d="M161.98,280.92c-.4,2.43-.61,4.7-.61,6.7,0,15.51,12.57,28.07,28.07,28.07,3.97,0,7.73-.83,11.15-2.31-17.7-3.24-32.4-15.9-38.61-32.46Z"/>
            </g>
          </g>
        </g>
      </g>
    </g>
  </g>
</svg>