<?xml version="1.0" encoding="UTF-8"?>
<svg xmlns="http://www.w3.org/2000/svg" xmlns:xlink="http://www.w3.org/1999/xlink" viewBox="0 0 424.57 379.56">
  <defs>
    <style>
      .cls-1 {
        opacity: .18;
      }

      .cls-1, .cls-2, .cls-3, .cls-4, .cls-5, .cls-6, .cls-7, .cls-8, .cls-9, .cls-10, .cls-11, .cls-12, .cls-13, .cls-14, .cls-15, .cls-16, .cls-17, .cls-18, .cls-19, .cls-20, .cls-21, .cls-22, .cls-23, .cls-24, .cls-25, .cls-26, .cls-27, .cls-28, .cls-29, .cls-30, .cls-31, .cls-32, .cls-33, .cls-34, .cls-35, .cls-36, .cls-37, .cls-38, .cls-39, .cls-40, .cls-41, .cls-42, .cls-43, .cls-44, .cls-45, .cls-46, .cls-47, .cls-48, .cls-49, .cls-50, .cls-51, .cls-52, .cls-53, .cls-54, .cls-55, .cls-56, .cls-57, .cls-58, .cls-59, .cls-60, .cls-61, .cls-62, .cls-63, .cls-64, .cls-65, .cls-66, .cls-67, .cls-68, .cls-69, .cls-70, .cls-71, .cls-72, .cls-73, .cls-74, .cls-75, .cls-76, .cls-77, .cls-78, .cls-79, .cls-80, .cls-81, .cls-82, .cls-83, .cls-84, .cls-85, .cls-86, .cls-87, .cls-88, .cls-89, .cls-90, .cls-91, .cls-92, .cls-93, .cls-94, .cls-95, .cls-96, .cls-97, .cls-98, .cls-99, .cls-100, .cls-101, .cls-102, .cls-103, .cls-104, .cls-105 {
        fill: #d2d2d2;
      }

      .cls-106 {
        opacity: .64;
      }

      .cls-106, .cls-107, .cls-108, .cls-109, .cls-110, .cls-111, .cls-112, .cls-113, .cls-114, .cls-115, .cls-116, .cls-117, .cls-118, .cls-119, .cls-120, .cls-121, .cls-122, .cls-123, .cls-124, .cls-125, .cls-126, .cls-127, .cls-128, .cls-129, .cls-130, .cls-131, .cls-132, .cls-133, .cls-134, .cls-135, .cls-136, .cls-137, .cls-138, .cls-139, .cls-140, .cls-141, .cls-142, .cls-143, .cls-144, .cls-145, .cls-146, .cls-147, .cls-148, .cls-149, .cls-150, .cls-151, .cls-152, .cls-153, .cls-154, .cls-155, .cls-156, .cls-157, .cls-158, .cls-159, .cls-160, .cls-161, .cls-162, .cls-163, .cls-164, .cls-165, .cls-166, .cls-167, .cls-168, .cls-169, .cls-170, .cls-171, .cls-172, .cls-173, .cls-174, .cls-175, .cls-176, .cls-177, .cls-178, .cls-179, .cls-180, .cls-181, .cls-182, .cls-183, .cls-184, .cls-185, .cls-186, .cls-187, .cls-188, .cls-189, .cls-190, .cls-191, .cls-192, .cls-193, .cls-194, .cls-195, .cls-196, .cls-197, .cls-198, .cls-199, .cls-200, .cls-201, .cls-202, .cls-203, .cls-204, .cls-205, .cls-206, .cls-207, .cls-208, .cls-209, .cls-210, .cls-211, .cls-212, .cls-213, .cls-214, .cls-215, .cls-216, .cls-217, .cls-218, .cls-219, .cls-220, .cls-221, .cls-222, .cls-223, .cls-224, .cls-225, .cls-226, .cls-227, .cls-228, .cls-229, .cls-230, .cls-231, .cls-232, .cls-233, .cls-234, .cls-235, .cls-236, .cls-237, .cls-238, .cls-239, .cls-240, .cls-241, .cls-242, .cls-243, .cls-244, .cls-245, .cls-246, .cls-247, .cls-248, .cls-249, .cls-250, .cls-251, .cls-252, .cls-253, .cls-254, .cls-255, .cls-256, .cls-257, .cls-258, .cls-259, .cls-260, .cls-261, .cls-262, .cls-263, .cls-264, .cls-265, .cls-266, .cls-267, .cls-268, .cls-269, .cls-270, .cls-271, .cls-272, .cls-273, .cls-274, .cls-275, .cls-276, .cls-277, .cls-278, .cls-279, .cls-280, .cls-281, .cls-282, .cls-283, .cls-284, .cls-285, .cls-286, .cls-287, .cls-288, .cls-289, .cls-290, .cls-291, .cls-292, .cls-293, .cls-294, .cls-295, .cls-296, .cls-297, .cls-298, .cls-299, .cls-300, .cls-301 {
        fill: #e7e6e6;
      }

      .cls-107 {
        opacity: .58;
      }

      .cls-108 {
        opacity: .05;
      }

      .cls-109 {
        opacity: .74;
      }

      .cls-110 {
        opacity: .47;
      }

      .cls-111 {
        opacity: .67;
      }

      .cls-2 {
        opacity: .68;
      }

      .cls-302 {
        opacity: .72;
      }

      .cls-3 {
        opacity: .96;
      }

      .cls-112 {
        opacity: .83;
      }

      .cls-4 {
        opacity: 0;
      }

      .cls-113 {
        opacity: .02;
      }

      .cls-114 {
        opacity: .08;
      }

      .cls-115 {
        opacity: .4;
      }

      .cls-116 {
        opacity: .53;
      }

      .cls-303 {
        fill: #bfbebf;
      }

      .cls-303, .cls-304, .cls-305, .cls-306, .cls-307, .cls-308 {
        mix-blend-mode: multiply;
      }

      .cls-309 {
        fill: #8e9690;
      }

      .cls-117 {
        opacity: .02;
      }

      .cls-118 {
        opacity: .04;
      }

      .cls-119 {
        opacity: .33;
      }

      .cls-5 {
        opacity: .45;
      }

      .cls-120 {
        opacity: .31;
      }

      .cls-121 {
        opacity: .89;
      }

      .cls-310 {
        opacity: .12;
      }

      .cls-310, .cls-311, .cls-312, .cls-313, .cls-314, .cls-315, .cls-316, .cls-317, .cls-318, .cls-319, .cls-320 {
        fill: #d6cfc3;
      }

      .cls-122 {
        opacity: .82;
      }

      .cls-123 {
        opacity: .09;
      }

      .cls-124 {
        opacity: .22;
      }

      .cls-304 {
        fill: #cdcccc;
      }

      .cls-125 {
        opacity: .32;
      }

      .cls-126 {
        opacity: .41;
      }

      .cls-6 {
        opacity: .2;
      }

      .cls-7 {
        opacity: .75;
      }

      .cls-8 {
        opacity: .75;
      }

      .cls-321 {
        mix-blend-mode: screen;
      }

      .cls-321, .cls-322 {
        fill: #4e4d4d;
      }

      .cls-9 {
        opacity: .17;
      }

      .cls-127 {
        opacity: .65;
      }

      .cls-128 {
        opacity: .16;
      }

      .cls-129 {
        opacity: .54;
      }

      .cls-130 {
        opacity: .57;
      }

      .cls-131 {
        opacity: .3;
      }

      .cls-132 {
        opacity: .66;
      }

      .cls-133 {
        opacity: .23;
      }

      .cls-134 {
        opacity: .46;
      }

      .cls-135 {
        opacity: .91;
      }

      .cls-136 {
        opacity: .19;
      }

      .cls-137 {
        opacity: .3;
      }

      .cls-10 {
        opacity: .32;
      }

      .cls-11 {
        opacity: .51;
      }

      .cls-138 {
        opacity: .73;
      }

      .cls-12 {
        opacity: .37;
      }

      .cls-139 {
        opacity: .34;
      }

      .cls-140 {
        opacity: .96;
      }

      .cls-141 {
        opacity: .68;
      }

      .cls-142 {
        opacity: .2;
      }

      .cls-143 {
        opacity: .19;
      }

      .cls-13 {
        opacity: .63;
      }

      .cls-144 {
        opacity: .45;
      }

      .cls-145 {
        opacity: .81;
      }

      .cls-14 {
        opacity: .69;
      }

      .cls-15 {
        opacity: .03;
      }

      .cls-16 {
        opacity: .11;
      }

      .cls-323 {
        fill: #764d42;
      }

      .cls-146 {
        opacity: .69;
      }

      .cls-17 {
        opacity: .2;
      }

      .cls-147 {
        opacity: .93;
      }

      .cls-148 {
        opacity: .44;
      }

      .cls-149 {
        opacity: .65;
      }

      .cls-18 {
        opacity: .03;
      }

      .cls-150 {
        opacity: .87;
      }

      .cls-19 {
        opacity: .67;
      }

      .cls-151 {
        opacity: .95;
      }

      .cls-20 {
        opacity: .82;
      }

      .cls-152 {
        opacity: .79;
      }

      .cls-153 {
        opacity: .84;
      }

      .cls-154 {
        opacity: .96;
      }

      .cls-21 {
        opacity: .38;
      }

      .cls-155 {
        opacity: .54;
      }

      .cls-156 {
        opacity: .79;
      }

      .cls-157 {
        opacity: .39;
      }

      .cls-22 {
        opacity: .69;
      }

      .cls-23 {
        opacity: .92;
      }

      .cls-24 {
        opacity: .33;
      }

      .cls-158 {
        opacity: .79;
      }

      .cls-159 {
        opacity: .79;
      }

      .cls-160 {
        opacity: .99;
      }

      .cls-305 {
        fill: #c0bbaf;
      }

      .cls-161 {
        opacity: .27;
      }

      .cls-162 {
        opacity: .16;
      }

      .cls-163 {
        opacity: .17;
      }

      .cls-164 {
        opacity: .47;
      }

      .cls-165 {
        opacity: .88;
      }

      .cls-25 {
        opacity: .53;
      }

      .cls-26 {
        opacity: .53;
      }

      .cls-27 {
        opacity: .85;
      }

      .cls-28 {
        opacity: .8;
      }

      .cls-166 {
        opacity: .81;
      }

      .cls-29 {
        opacity: .54;
      }

      .cls-30 {
        opacity: .35;
      }

      .cls-167 {
        opacity: .63;
      }

      .cls-31 {
        opacity: .68;
      }

      .cls-168 {
        opacity: .85;
      }

      .cls-169 {
        opacity: .84;
      }

      .cls-170 {
        opacity: .03;
      }

      .cls-32 {
        opacity: .46;
      }

      .cls-171 {
        opacity: .01;
      }

      .cls-172 {
        opacity: .03;
      }

      .cls-173 {
        opacity: .6;
      }

      .cls-324 {
        fill: #659348;
      }

      .cls-174 {
        opacity: .19;
      }

      .cls-33 {
        opacity: .78;
      }

      .cls-175 {
        opacity: .62;
      }

      .cls-176 {
        opacity: .61;
      }

      .cls-34 {
        opacity: .51;
      }

      .cls-35 {
        opacity: .53;
      }

      .cls-177 {
        opacity: .11;
      }

      .cls-178 {
        opacity: .18;
      }

      .cls-325 {
        fill: #313432;
      }

      .cls-36 {
        opacity: .54;
      }

      .cls-179 {
        opacity: .84;
      }

      .cls-180 {
        opacity: .11;
      }

      .cls-37 {
        opacity: .32;
      }

      .cls-181 {
        opacity: .3;
      }

      .cls-182 {
        opacity: .8;
      }

      .cls-38 {
        opacity: .59;
      }

      .cls-39 {
        opacity: .09;
      }

      .cls-183 {
        opacity: .46;
      }

      .cls-326 {
        fill: #74563e;
      }

      .cls-184 {
        opacity: .8;
      }

      .cls-327 {
        fill: #a2695a;
      }

      .cls-185 {
        opacity: .22;
      }

      .cls-186 {
        opacity: .87;
      }

      .cls-187 {
        opacity: .68;
      }

      .cls-188 {
        opacity: .55;
      }

      .cls-40 {
        opacity: .64;
      }

      .cls-189 {
        opacity: .51;
      }

      .cls-328 {
        fill: #5a4330;
      }

      .cls-190 {
        opacity: .35;
      }

      .cls-41 {
        opacity: .06;
      }

      .cls-42 {
        opacity: .69;
      }

      .cls-191 {
        opacity: .79;
      }

      .cls-192 {
        opacity: .2;
      }

      .cls-329 {
        isolation: isolate;
      }

      .cls-193 {
        opacity: .15;
      }

      .cls-43 {
        opacity: .39;
      }

      .cls-194 {
        opacity: .84;
      }

      .cls-195 {
        opacity: .3;
      }

      .cls-44 {
        opacity: .51;
      }

      .cls-196 {
        opacity: .97;
      }

      .cls-45 {
        opacity: .44;
      }

      .cls-197 {
        opacity: .77;
      }

      .cls-198 {
        opacity: .27;
      }

      .cls-46 {
        opacity: .26;
      }

      .cls-311 {
        opacity: .02;
      }

      .cls-199 {
        opacity: .39;
      }

      .cls-312 {
        opacity: .57;
      }

      .cls-200 {
        opacity: .76;
      }

      .cls-201 {
        opacity: .58;
      }

      .cls-202 {
        opacity: .25;
      }

      .cls-203 {
        opacity: .2;
      }

      .cls-47 {
        opacity: .88;
      }

      .cls-204 {
        opacity: .19;
      }

      .cls-205 {
        opacity: .78;
      }

      .cls-48 {
        opacity: .07;
      }

      .cls-313 {
        opacity: .58;
      }

      .cls-49 {
        opacity: .35;
      }

      .cls-206 {
        opacity: .03;
      }

      .cls-207 {
        opacity: .12;
      }

      .cls-208 {
        opacity: .39;
      }

      .cls-50 {
        opacity: .37;
      }

      .cls-51 {
        opacity: .58;
      }

      .cls-52 {
        opacity: .48;
      }

      .cls-53 {
        opacity: .15;
      }

      .cls-54 {
        opacity: .24;
      }

      .cls-209 {
        opacity: .61;
      }

      .cls-210 {
        opacity: .63;
      }

      .cls-55 {
        opacity: .61;
      }

      .cls-56 {
        opacity: .05;
      }

      .cls-57 {
        opacity: .2;
      }

      .cls-211 {
        opacity: .22;
      }

      .cls-58 {
        opacity: .45;
      }

      .cls-59 {
        opacity: .69;
      }

      .cls-60 {
        opacity: .74;
      }

      .cls-212 {
        opacity: .58;
      }

      .cls-314 {
        opacity: .9;
      }

      .cls-61 {
        opacity: .01;
      }

      .cls-213 {
        opacity: .4;
      }

      .cls-330 {
        fill: #89a427;
      }

      .cls-62 {
        opacity: .54;
      }

      .cls-214 {
        opacity: .71;
      }

      .cls-63 {
        opacity: .67;
      }

      .cls-215 {
        opacity: .79;
      }

      .cls-216 {
        opacity: .59;
      }

      .cls-64 {
        opacity: .9;
      }

      .cls-331 {
        fill: #979797;
      }

      .cls-332 {
        fill: #5d8840;
      }

      .cls-217 {
        opacity: 0;
      }

      .cls-218 {
        opacity: .54;
      }

      .cls-65 {
        opacity: .67;
      }

      .cls-66 {
        opacity: .76;
      }

      .cls-219 {
        opacity: .89;
      }

      .cls-67 {
        opacity: .71;
      }

      .cls-220 {
        opacity: .56;
      }

      .cls-221 {
        opacity: .66;
      }

      .cls-68 {
        opacity: .16;
      }

      .cls-333 {
        fill: #202121;
      }

      .cls-222 {
        opacity: .11;
      }

      .cls-223 {
        opacity: .24;
      }

      .cls-224 {
        opacity: .15;
      }

      .cls-69 {
        opacity: .97;
      }

      .cls-70 {
        opacity: .33;
      }

      .cls-225 {
        opacity: .01;
      }

      .cls-226 {
        opacity: .83;
      }

      .cls-227 {
        opacity: .74;
      }

      .cls-316 {
        opacity: .87;
      }

      .cls-228 {
        opacity: 0;
      }

      .cls-71 {
        opacity: .13;
      }

      .cls-229 {
        opacity: .6;
      }

      .cls-230 {
        opacity: .82;
      }

      .cls-231 {
        opacity: .32;
      }

      .cls-72 {
        opacity: .59;
      }

      .cls-73 {
        opacity: .21;
      }

      .cls-74 {
        opacity: .58;
      }

      .cls-232 {
        opacity: .07;
      }

      .cls-317 {
        opacity: .88;
      }

      .cls-75 {
        opacity: .67;
      }

      .cls-233 {
        opacity: .04;
      }

      .cls-76 {
        opacity: .1;
      }

      .cls-77 {
        opacity: .91;
      }

      .cls-234 {
        opacity: .83;
      }

      .cls-235 {
        opacity: .32;
      }

      .cls-78 {
        opacity: .68;
      }

      .cls-79 {
        opacity: .3;
      }

      .cls-236 {
        opacity: .47;
      }

      .cls-237 {
        opacity: .23;
      }

      .cls-80 {
        opacity: .55;
      }

      .cls-81 {
        opacity: .05;
      }

      .cls-238 {
        opacity: .19;
      }

      .cls-239 {
        opacity: .74;
      }

      .cls-240 {
        opacity: .65;
      }

      .cls-318 {
        opacity: .37;
      }

      .cls-319 {
        opacity: .1;
      }

      .cls-241 {
        opacity: .66;
      }

      .cls-242 {
        opacity: .5;
      }

      .cls-243 {
        opacity: .42;
      }

      .cls-244 {
        opacity: .21;
      }

      .cls-82 {
        opacity: .05;
      }

      .cls-245 {
        opacity: .96;
      }

      .cls-246 {
        opacity: .72;
      }

      .cls-83 {
        opacity: .2;
      }

      .cls-247 {
        opacity: .13;
      }

      .cls-84 {
        opacity: .93;
      }

      .cls-248 {
        opacity: .32;
      }

      .cls-249 {
        opacity: .67;
      }

      .cls-250 {
        opacity: .39;
      }

      .cls-251 {
        opacity: .65;
      }

      .cls-252 {
        opacity: .7;
      }

      .cls-320 {
        opacity: .42;
      }

      .cls-253 {
        opacity: .26;
      }

      .cls-85 {
        opacity: .73;
      }

      .cls-254 {
        opacity: .13;
      }

      .cls-255 {
        opacity: .39;
      }

      .cls-256 {
        opacity: .66;
      }

      .cls-307 {
        fill: #808181;
      }

      .cls-257 {
        opacity: .52;
      }

      .cls-258 {
        opacity: .92;
      }

      .cls-259 {
        opacity: .03;
      }

      .cls-260 {
        opacity: .6;
      }

      .cls-86 {
        opacity: .06;
      }

      .cls-87 {
        opacity: .25;
      }

      .cls-88 {
        opacity: .91;
      }

      .cls-261 {
        opacity: .3;
      }

      .cls-308 {
        fill: url(#linear-gradient);
      }

      .cls-262 {
        opacity: .91;
      }

      .cls-263 {
        opacity: .48;
      }

      .cls-264 {
        opacity: .94;
      }

      .cls-265 {
        opacity: .06;
      }

      .cls-89 {
        opacity: .57;
      }

      .cls-266 {
        opacity: .24;
      }

      .cls-267 {
        opacity: .9;
      }

      .cls-268 {
        opacity: .27;
      }

      .cls-269 {
        opacity: .75;
      }

      .cls-270 {
        opacity: .4;
      }

      .cls-334 {
        fill: #3b3328;
      }

      .cls-90 {
        opacity: .26;
      }

      .cls-271 {
        opacity: .98;
      }

      .cls-91 {
        opacity: .48;
      }

      .cls-92 {
        opacity: .24;
      }

      .cls-272 {
        opacity: .9;
      }

      .cls-273 {
        opacity: .33;
      }

      .cls-274 {
        opacity: .26;
      }

      .cls-335 {
        fill: #4f5450;
      }

      .cls-336 {
        fill: #c6b5a5;
      }

      .cls-337 {
        fill: #363836;
      }

      .cls-93 {
        opacity: .48;
      }

      .cls-275 {
        opacity: .67;
      }

      .cls-94 {
        opacity: .89;
      }

      .cls-276 {
        opacity: .13;
      }

      .cls-277 {
        opacity: .56;
      }

      .cls-278 {
        opacity: .55;
      }

      .cls-279 {
        opacity: .43;
      }

      .cls-280 {
        opacity: .45;
      }

      .cls-281 {
        opacity: .58;
      }

      .cls-282 {
        opacity: .08;
      }

      .cls-95 {
        opacity: .35;
      }

      .cls-283 {
        opacity: .45;
      }

      .cls-284 {
        opacity: .19;
      }

      .cls-285 {
        opacity: .76;
      }

      .cls-286 {
        opacity: .14;
      }

      .cls-338 {
        clip-path: url(#clippath);
      }

      .cls-96 {
        opacity: .51;
      }

      .cls-339 {
        opacity: .91;
      }

      .cls-287 {
        opacity: .6;
      }

      .cls-97 {
        opacity: .27;
      }

      .cls-98 {
        opacity: .6;
      }

      .cls-288 {
        opacity: .24;
      }

      .cls-289 {
        opacity: .15;
      }

      .cls-99 {
        opacity: .98;
      }

      .cls-290 {
        opacity: .94;
      }

      .cls-291 {
        opacity: .93;
      }

      .cls-292 {
        opacity: .29;
      }

      .cls-293 {
        opacity: .4;
      }

      .cls-294 {
        opacity: .4;
      }

      .cls-295 {
        opacity: .28;
      }

      .cls-100 {
        opacity: .18;
      }

      .cls-101 {
        opacity: .09;
      }

      .cls-102 {
        opacity: .57;
      }

      .cls-296 {
        opacity: .37;
      }

      .cls-297 {
        opacity: .37;
      }

      .cls-103 {
        opacity: .07;
      }

      .cls-298 {
        opacity: .09;
      }

      .cls-299 {
        opacity: .68;
      }

      .cls-104 {
        opacity: .35;
      }

      .cls-300 {
        opacity: .84;
      }

      .cls-301 {
        opacity: .77;
      }

      .cls-105 {
        opacity: .25;
      }
    </style>
    <clipPath id="clippath">
      <path class="cls-336" d="M307.74,351.92H116.39s34.81-104.64,34.81-200.08c0-30.43,121.74-30.43,121.74,0,0,95.44,34.81,200.08,34.81,200.08Z"/>
    </clipPath>
    <linearGradient id="linear-gradient" x1="272.66" y1="223.33" x2="211.45" y2="161.34" gradientUnits="userSpaceOnUse">
      <stop offset="0" stop-color="#fff"/>
      <stop offset="1" stop-color="#d6cfc3"/>
    </linearGradient>
  </defs>
  <g class="cls-329">
    <g id="Calque_1">
      <g>
        <path class="cls-330" d="M390.25,310.91s-.02,0-.03,0H34.35s-.02,0-.03,0c-18.96,0-34.33,15.37-34.33,34.33s15.37,34.33,34.33,34.33h355.92c18.96,0,34.32-15.37,34.32-34.33s-15.36-34.33-34.32-34.33Z"/>
        <g>
          <path class="cls-304" d="M362.5,327.74c-17.68,0-15.44,1.4-15.44,3.12s-2.24,3.12,15.44,3.12,48.61-1.39,48.61-3.12-30.92-3.12-48.61-3.12Z"/>
          <g>
            <path class="cls-328" d="M352.86,329.51c-4.75,0-8.6.78-8.6,1.75s3.85,1.75,8.6,1.75,8.61-.78,8.61-1.75-3.85-1.75-8.61-1.75Z"/>
            <rect class="cls-326" x="350.04" y="294.82" width="5.83" height="36.45"/>
            <polygon class="cls-326" points="355.87 318.04 355.87 321.36 358.84 318.04 363.46 307.69 357.66 316.64 355.87 318.04"/>
            <polygon class="cls-326" points="342.45 307.69 347.06 318.04 350.04 321.36 350.04 318.04 348.25 316.64 342.45 307.69"/>
            <path class="cls-324" d="M334.73,306.3c0,10.07,8.16,6.74,18.22,6.74s18.23,3.33,18.23-6.74-18.23-62.25-18.23-62.25c0,0-18.22,52.19-18.22,62.25Z"/>
            <path class="cls-332" d="M336.25,297.47c-.94,3.91-1.52,7.04-1.52,8.83,0,10.07,8.16,6.74,18.22,6.74,9.24,0,16.86,2.77,18.05-4.57-.88.05-1.75.07-2.64.07-11.99,0-23.15-4.16-32.11-11.08Z"/>
          </g>
        </g>
        <g>
          <path class="cls-336" d="M307.74,351.92H116.39s34.81-104.64,34.81-200.08c0-30.43,121.74-30.43,121.74,0,0,95.44,34.81,200.08,34.81,200.08Z"/>
          <g class="cls-338">
            <g class="cls-306">
              <path class="cls-235" d="M118.98,159.28h-20.03v-7.44h20.03v7.44Z"/>
              <path class="cls-201" d="M141.51,151.84h-20.03v7.44h20.03v-7.44Z"/>
              <path class="cls-135" d="M164.04,151.84h-20.02v7.44h20.02v-7.44Z"/>
              <path class="cls-230" d="M186.59,151.84h-20.03v7.44h20.03v-7.44Z"/>
              <path class="cls-237" d="M209.12,151.84h-20.03v7.44h20.03v-7.44Z"/>
              <path class="cls-195" d="M231.66,151.84h-20.03v7.44h20.03v-7.44Z"/>
              <path class="cls-225" d="M254.19,151.84h-20.02v7.44h20.02v-7.44Z"/>
              <path class="cls-292" d="M276.73,151.84h-20.02v7.44h20.02v-7.44Z"/>
              <path class="cls-289" d="M299.26,151.84h-20.02v7.44h20.02v-7.44Z"/>
              <path class="cls-211" d="M130.44,160.61h-20.03v7.44h20.03v-7.44Z"/>
              <path class="cls-229" d="M152.97,160.61h-6.98c-2.08,0-4,0-6.08,0s-4.3,0-6.97,0v7.44h20.03v-7.44Z"/>
              <path class="cls-231" d="M175.51,160.61h-20.02v7.44h20.02v-7.44Z"/>
              <path class="cls-280" d="M198.04,160.61h-20.02v7.44h13.05c2.08,0,4.3,0,6.97,0v-7.43Z"/>
              <path class="cls-223" d="M220.58,160.61h-20.02v7.44h20.02v-7.44Z"/>
              <path class="cls-271" d="M243.12,160.61h-20.03v7.44h20.03v-7.44Z"/>
              <path class="cls-256" d="M265.66,160.61h-20.02v7.44h20.02v-7.44Z"/>
              <path class="cls-212" d="M288.19,160.61h-20.03v7.44h20.03v-7.44Z"/>
              <path class="cls-234" d="M118.98,169.61h-20.03v7.44h20.03v-7.44Z"/>
              <path class="cls-144" d="M141.51,169.61h-20.03v7.44h20.03v-7.44Z"/>
              <path class="cls-166" d="M164.04,169.61h-20.02v7.44h20.02v-7.44Z"/>
              <path class="cls-124" d="M186.59,169.61h-20.03v7.44h20.03v-7.44Z"/>
              <path class="cls-270" d="M209.12,169.61h-20.03v7.44h20.03v-7.44Z"/>
              <path class="cls-184" d="M231.66,169.61h-20.03v7.44h20.03v-7.44Z"/>
              <path class="cls-106" d="M254.19,169.61h-20.02v7.44h20.02v-7.44Z"/>
              <path class="cls-174" d="M276.73,169.61h-20.02v7.44h20.02v-7.44Z"/>
              <path class="cls-127" d="M299.26,169.61h-20.02v7.44h20.02v-7.44Z"/>
              <path class="cls-215" d="M130.44,178.39h-20.03v7.44h20.03v-7.44Z"/>
              <path class="cls-177" d="M152.97,178.39h-20.03v7.44h20.03v-7.44Z"/>
              <path class="cls-183" d="M175.51,178.39h-6.97c-2.07,0-4,0-6.08,0s-4.3,0-6.97,0v7.44h20.02v-7.44Z"/>
              <path class="cls-153" d="M198.04,178.39h-20.02v7.44h20.02v-7.44Z"/>
              <path class="cls-227" d="M220.58,178.39h-20.02v7.44h20.02v-7.44Z"/>
              <path class="cls-148" d="M243.12,178.39h-20.03v7.44h20.03v-7.44Z"/>
              <path class="cls-190" d="M265.66,178.39h-20.02v7.44h20.02v-7.44Z"/>
              <path class="cls-109" d="M288.19,178.39h-20.03v7.44h20.03v-7.44Z"/>
              <path class="cls-145" d="M118.98,187.39h-20.03v7.44h20.03v-7.44Z"/>
              <path class="cls-226" d="M141.51,187.39h-20.03v7.44h20.03v-7.44Z"/>
              <path class="cls-107" d="M164.04,187.39h-20.02v7.44h20.02v-7.44Z"/>
              <path class="cls-123" d="M186.59,187.39h-20.03v7.44h20.03v-7.44Z"/>
              <path class="cls-299" d="M209.12,187.39h-20.03v7.44h20.03v-7.44Z"/>
              <path class="cls-267" d="M231.66,187.39h-20.03v7.44h20.03v-7.44Z"/>
              <path class="cls-240" d="M254.19,187.39h-20.02v7.44h20.02v-7.44Z"/>
              <path class="cls-254" d="M276.73,187.39h-20.02v7.44h20.02v-7.44Z"/>
              <path class="cls-257" d="M299.26,187.39h-20.02v7.44h20.02v-7.44Z"/>
              <path class="cls-238" d="M130.44,196.16h-20.03v7.43h20.03v-7.43Z"/>
              <path class="cls-156" d="M152.97,196.16h-20.03v7.43h20.03v-7.43Z"/>
              <path class="cls-293" d="M175.51,196.16h-20.02v7.43h20.02v-7.43Z"/>
              <path class="cls-218" d="M198.04,196.16c-2.67,0-4.89,0-6.97,0h-13.05v7.43h20.02v-7.44Z"/>
              <path class="cls-281" d="M220.58,196.16h-20.02v7.43h20.02v-7.43Z"/>
              <path class="cls-263" d="M243.12,196.16h-20.03v7.43h20.03v-7.43Z"/>
              <path class="cls-274" d="M265.66,196.16h-20.02v7.43h20.02v-7.43Z"/>
              <path class="cls-273" d="M288.19,196.16h-20.03v7.43h20.03v-7.43Z"/>
              <path class="cls-140" d="M118.98,205.17h-20.03v7.44h20.03v-7.44Z"/>
              <path class="cls-143" d="M141.51,205.17h-20.03v7.44h20.03v-7.44Z"/>
              <path class="cls-186" d="M164.04,205.17h-6.96c-2.08,0-4,0-6.08,0s-4.3,0-6.97,0v7.44h20.02v-7.44Z"/>
              <path class="cls-291" d="M186.59,205.17h-20.03v7.44h20.03v-7.44Z"/>
              <path class="cls-131" d="M209.12,205.17h-20.03v7.44h20.03v-7.44Z"/>
              <path class="cls-108" d="M231.66,205.17h-20.03v7.44h20.03v-7.44Z"/>
              <path class="cls-206" d="M254.19,205.17h-20.02v7.44h20.02v-7.44Z"/>
              <path class="cls-141" d="M276.73,205.17h-20.02v7.44h20.02v-7.44Z"/>
              <path class="cls-129" d="M299.26,205.17h-20.02v7.44h20.02v-7.44Z"/>
              <path class="cls-205" d="M130.44,213.93h-20.03v7.45h20.03v-7.45Z"/>
              <path class="cls-161" d="M152.97,213.93h-20.03v7.45h20.03v-7.45Z"/>
              <path class="cls-121" d="M175.51,213.93h-20.02v7.45h20.02v-7.45Z"/>
              <path class="cls-210" d="M198.04,213.93h-20.02v7.45c2.67,0,4.9,0,6.97,0s4,0,6.08,0,4.3,0,6.97,0v-7.44Z"/>
              <path class="cls-171" d="M220.58,213.93h-20.02v7.45h20.02v-7.45Z"/>
              <path class="cls-233" d="M243.12,213.93h-20.03v7.45h20.03v-7.45Z"/>
              <path class="cls-176" d="M265.66,213.93h-20.02v7.45h20.02v-7.45Z"/>
              <path class="cls-187" d="M288.19,213.93h-20.03v7.45h20.03v-7.45Z"/>
              <path class="cls-119" d="M118.98,222.94h-20.03v7.44h20.03v-7.44Z"/>
              <path class="cls-258" d="M141.51,222.94h-20.03v7.44h20.03v-7.44Z"/>
              <path class="cls-173" d="M164.04,222.93c-2.67,0-4.89,0-6.96,0h-13.06v7.44h20.02v-7.45Z"/>
              <path class="cls-110" d="M186.59,222.94h-20.03v7.44h20.03v-7.44Z"/>
              <path class="cls-214" d="M209.12,222.94h-20.03v7.44h20.03v-7.44Z"/>
              <path class="cls-248" d="M231.66,222.94h-20.03v7.44h20.03v-7.44Z"/>
              <path class="cls-179" d="M254.19,222.94h-20.02v7.44h20.02v-7.44Z"/>
              <path class="cls-199" d="M276.73,222.94h-20.02v7.44h20.02v-7.44Z"/>
              <path class="cls-193" d="M299.26,222.94h-20.02v7.44h20.02v-7.44Z"/>
              <path class="cls-192" d="M130.44,231.71h-20.03v7.45h20.03v-7.45Z"/>
              <path class="cls-118" d="M152.97,231.71h-20.03v7.45h20.03v-7.45Z"/>
              <path class="cls-175" d="M175.51,231.71h-20.02v7.45h20.02v-7.45Z"/>
              <path class="cls-260" d="M198.04,231.71h-20.02v7.45h20.02v-7.45Z"/>
              <path class="cls-221" d="M220.58,231.71h-20.02v7.45h20.02v-7.45Z"/>
              <path class="cls-194" d="M243.12,231.71h-20.03v7.45h20.03v-7.45Z"/>
              <path class="cls-275" d="M265.66,231.71h-20.02v7.45h20.02v-7.45Z"/>
              <path class="cls-150" d="M288.19,231.71h-20.03v7.45h20.03v-7.45Z"/>
              <path class="cls-284" d="M118.98,240.72h-20.03v7.44h20.03v-7.44Z"/>
              <path class="cls-250" d="M141.51,240.72h-20.03v7.44h20.03v-7.44Z"/>
              <path class="cls-113" d="M164.04,240.72h-20.02v7.44h20.02v-7.44Z"/>
              <path class="cls-117" d="M186.59,240.72h-20.03v7.44h20.03v-7.44Z"/>
              <path class="cls-217" d="M209.12,240.72h-20.03v7.44h20.03v-7.44Z"/>
              <path class="cls-167" d="M231.66,240.72h-20.03v7.44h20.03v-7.44Z"/>
              <path class="cls-132" d="M254.19,240.72h-20.02v7.44h20.02v-7.44Z"/>
              <path class="cls-282" d="M276.73,240.72h-20.02v7.44h20.02v-7.44Z"/>
              <path class="cls-276" d="M299.26,240.72h-20.02v7.44h20.02v-7.44Z"/>
              <path class="cls-269" d="M130.44,249.48h-20.03v7.45h20.03v-7.45Z"/>
              <path class="cls-279" d="M152.97,249.48h-20.03v7.45h20.03v-7.45Z"/>
              <path class="cls-203" d="M175.51,249.48h-20.02v7.45h20.02v-7.45Z"/>
              <path class="cls-216" d="M198.04,249.48h-20.02v7.45h20.02v-7.45Z"/>
              <path class="cls-251" d="M220.58,249.48h-20.02v7.45h20.02v-7.45Z"/>
              <path class="cls-296" d="M243.12,249.48h-20.03v7.45h20.03v-7.45Z"/>
              <path class="cls-294" d="M265.66,249.48h-20.02v7.45h20.02v-7.45Z"/>
              <path class="cls-272" d="M288.19,249.48h-20.03v7.45h20.03v-7.45Z"/>
              <path class="cls-159" d="M118.98,258.49h-20.03v7.44h20.03v-7.44Z"/>
              <path class="cls-112" d="M141.51,258.49h-20.03v7.44h20.03v-7.44Z"/>
              <path class="cls-155" d="M164.04,258.49h-20.02v7.44h20.02v-7.44Z"/>
              <path class="cls-151" d="M186.59,258.49h-20.03v7.44h20.03v-7.44Z"/>
              <path class="cls-297" d="M209.12,258.49h-20.03v7.44h20.03v-7.44Z"/>
              <path class="cls-264" d="M231.66,258.49h-20.03v7.44h20.03v-7.44Z"/>
              <path class="cls-285" d="M254.19,258.49h-20.02v7.44h20.02v-7.44Z"/>
              <path class="cls-228" d="M276.73,258.49h-20.02v7.44h20.02v-7.44Z"/>
              <path class="cls-258" d="M299.26,258.49h-20.02v7.44h20.02v-7.44Z"/>
              <path class="cls-126" d="M130.44,267.25h-20.03v7.45h20.03v-7.45Z"/>
              <path class="cls-147" d="M152.97,267.25h-20.03v7.45h20.03v-7.45Z"/>
              <path class="cls-154" d="M175.51,267.25h-20.02v7.45h20.02v-7.45Z"/>
              <path class="cls-249" d="M198.04,267.25h-20.02v7.45h20.02v-7.45Z"/>
              <path class="cls-172" d="M220.58,267.25h-20.02v7.45h20.02v-7.45Z"/>
              <path class="cls-198" d="M243.12,267.25h-20.03v7.45h20.03v-7.45Z"/>
              <path class="cls-128" d="M265.66,267.25h-20.02v7.45h20.02v-7.45Z"/>
              <path class="cls-246" d="M288.19,267.25h-20.03v7.45h20.03v-7.45Z"/>
              <path class="cls-288" d="M118.98,276.27h-20.03v7.44h20.03v-7.44Z"/>
              <path class="cls-298" d="M141.51,276.27h-20.03v7.44h20.03v-7.44Z"/>
              <path class="cls-242" d="M164.04,276.27h-20.02v7.44c2.67,0,4.9,0,6.97,0s4,0,6.08,0h6.96v-7.44Z"/>
              <path class="cls-301" d="M186.59,276.27h-20.03v7.44h20.03v-7.44Z"/>
              <path class="cls-283" d="M209.12,276.27h-13.06c-2.08,0-4.31,0-6.97,0v7.43h20.03v-7.44Z"/>
              <path class="cls-111" d="M231.66,276.27h-20.03v7.44h20.03v-7.44Z"/>
              <path class="cls-261" d="M254.19,276.27h-20.02v7.44h20.02v-7.44Z"/>
              <path class="cls-287" d="M276.73,276.27h-20.02v7.44h20.02v-7.44Z"/>
              <path class="cls-290" d="M299.26,276.27h-20.02v7.44h20.02v-7.44Z"/>
              <path class="cls-207" d="M130.44,285.04h-20.03v7.44h20.03v-7.44Z"/>
              <path class="cls-222" d="M152.97,285.04h-20.03v7.44h20.03v-7.44Z"/>
              <path class="cls-149" d="M175.51,285.04h-20.02v7.44h20.02v-7.44Z"/>
              <path class="cls-213" d="M198.04,285.04h-20.02v7.44h20.02v-7.44Z"/>
              <path class="cls-262" d="M220.58,285.04h-20.02v7.44h20.02v-7.44Z"/>
              <path class="cls-286" d="M243.12,285.04h-20.03v7.44h20.03v-7.44Z"/>
              <path class="cls-130" d="M265.66,285.04h-20.02v7.44h20.02v-7.44Z"/>
              <path class="cls-202" d="M288.19,285.04h-20.03v7.44h20.03v-7.44Z"/>
              <path class="cls-277" d="M118.98,294.05h-20.03v7.44h20.03v-7.44Z"/>
              <path class="cls-146" d="M141.51,294.05h-20.03v7.44h20.03v-7.44Z"/>
              <path class="cls-160" d="M164.04,294.05h-20.02v7.44h20.02v-7.44Z"/>
              <path class="cls-220" d="M186.59,294.05h-20.03v7.44h20.03c0-2.98,0-4.46,0-7.44Z"/>
              <path class="cls-300" d="M209.12,294.05h-20.03v7.44c2.67,0,4.9,0,6.97,0s4,0,6.08,0h6.97v-7.44Z"/>
              <path class="cls-200" d="M231.66,294.05h-20.03v7.44h20.03v-7.44Z"/>
              <path class="cls-191" d="M254.19,294.05h-20.02v7.44h20.03c0-2.98,0-4.46,0-7.44Z"/>
              <path class="cls-139" d="M276.73,294.05h-20.02v7.44h20.02c0-2.98,0-4.46,0-7.44Z"/>
              <path class="cls-182" d="M299.26,294.05h-20.02v7.44h20.02v-7.44Z"/>
              <path class="cls-208" d="M130.44,302.81h-20.03v7.45h20.03v-7.45Z"/>
              <path class="cls-157" d="M152.97,302.81h-20.03v7.45h20.03v-7.45Z"/>
              <path class="cls-189" d="M175.51,302.81h-20.02v7.45h20.02v-7.45Z"/>
              <path class="cls-185" d="M198.04,302.81h-20.02v7.45h20.02v-7.45Z"/>
              <path class="cls-181" d="M220.58,302.81h-20.02v7.45h20.02v-7.45Z"/>
              <path class="cls-255" d="M243.12,302.81h-20.03v7.45h20.03v-7.45Z"/>
              <path class="cls-158" d="M265.66,302.81h-20.02v7.45h20.02v-7.45Z"/>
              <path class="cls-152" d="M288.19,302.81h-20.03v7.45h20.03v-7.45Z"/>
              <path class="cls-278" d="M118.98,311.82h-20.03v7.44h20.03v-7.44Z"/>
              <path class="cls-115" d="M141.51,311.82h-20.03v7.44h20.03v-7.44Z"/>
              <path class="cls-178" d="M164.04,311.83c-2.67,0-4.89,0-6.96,0h-13.06v7.44h20.02v-7.43Z"/>
              <path class="cls-163" d="M186.59,311.82h-20.03v7.44h20.03v-7.44Z"/>
              <path class="cls-295" d="M209.12,311.82h-6.97c-2.08,0-4,0-6.08,0s-4.31,0-6.97,0v7.44h20.03v-7.44Z"/>
              <path class="cls-241" d="M231.66,311.82h-20.03v7.44h20.03v-7.44Z"/>
              <path class="cls-232" d="M254.19,311.82h-20.02v7.44h20.02v-7.44Z"/>
              <path class="cls-125" d="M276.73,311.82h-20.02v7.44h20.02v-7.44Z"/>
              <path class="cls-162" d="M299.26,311.82h-20.02v7.44h20.02v-7.44Z"/>
              <path class="cls-265" d="M130.44,320.59h-20.03v7.44h20.03v-7.44Z"/>
              <path class="cls-116" d="M152.97,320.59h-20.03v7.44h20.03v-7.44Z"/>
              <path class="cls-236" d="M175.51,320.59c-2.67,0-4.9,0-6.97,0s-4,0-6.08,0h-6.97v7.44h20.02v-7.44Z"/>
              <path class="cls-136" d="M198.04,320.59h-20.02v7.44h20.02v-7.44Z"/>
              <path class="cls-114" d="M220.59,320.59h-20.03v7.44h20.03v-7.44Z"/>
              <path class="cls-170" d="M243.12,320.59h-20.03v7.44h20.03v-7.44Z"/>
              <path class="cls-243" d="M265.66,320.59h-20.02v7.44h20.02v-7.44Z"/>
              <path class="cls-169" d="M288.19,320.59h-20.03v7.44h20.03v-7.44Z"/>
              <path class="cls-244" d="M118.98,329.6c-2.67,0-4.9,0-6.97,0s-4.01,0-6.08,0h-6.97v7.44h20.03v-7.44Z"/>
              <path class="cls-266" d="M141.51,329.6c-2.67,0-4.89,0-6.97,0s-4.01,0-6.09,0h-6.97v7.44h20.03v-7.44Z"/>
              <path class="cls-204" d="M164.04,329.6c-2.67,0-4.89,0-6.96,0s-4,0-6.08,0h-6.97v7.44h20.02v-7.44Z"/>
              <path class="cls-122" d="M186.59,329.6c-2.67,0-4.9,0-6.97,0s-4.01,0-6.08,0h-6.97v7.44h20.03v-7.44Z"/>
              <path class="cls-120" d="M209.12,329.6c-2.67,0-4.9,0-6.97,0s-4,0-6.08,0h-6.97v7.44h20.03v-7.44Z"/>
              <path class="cls-209" d="M231.66,329.6c-2.67,0-4.9,0-6.97,0s-4.01,0-6.08,0h-6.97v7.44h20.03v-7.44Z"/>
              <path class="cls-268" d="M254.19,329.6c-2.67,0-4.89,0-6.96,0s-4,0-6.08,0h-6.98v7.44h20.02v-7.44Z"/>
              <path class="cls-239" d="M276.73,329.6c-2.67,0-4.89,0-6.97,0s-4.01,0-6.09,0h-6.97v7.44h20.02v-7.44Z"/>
              <path class="cls-142" d="M299.26,329.6c-2.67,0-4.89,0-6.96,0s-4,0-6.08,0h-6.97v7.44h20.02v-7.44Z"/>
              <path class="cls-164" d="M130.44,338.36h-20.03v7.44h20.03v-7.44Z"/>
              <path class="cls-196" d="M152.97,338.36c-2.67,0-4.9,0-6.98,0h-13.05v7.44h20.03v-7.44Z"/>
              <path class="cls-188" d="M175.51,338.36h-20.02v7.44h20.02v-7.44Z"/>
              <path class="cls-253" d="M198.04,338.36h-20.02v7.44h13.05c2.08,0,4.3,0,6.97,0v-7.44Z"/>
              <path class="cls-165" d="M220.58,338.36h-20.02v7.44h20.02v-7.44Z"/>
              <path class="cls-197" d="M243.12,338.36h-20.03v7.44h20.03v-7.44Z"/>
              <path class="cls-224" d="M265.66,338.36h-20.02v7.44h20.02v-7.44Z"/>
              <path class="cls-137" d="M288.19,338.36h-20.03v7.44h20.03v-7.44Z"/>
              <path class="cls-259" d="M118.98,347.37h-20.03v7.44h20.03v-7.44Z"/>
              <path class="cls-247" d="M141.51,347.37h-20.03v7.44h20.03v-7.44Z"/>
              <path class="cls-252" d="M164.04,347.37h-20.02v7.44h20.02v-7.44Z"/>
              <path class="cls-133" d="M186.59,347.37h-20.03v7.44h20.03v-7.44Z"/>
              <path class="cls-180" d="M209.12,347.37h-20.03v7.44h20.03v-7.44Z"/>
              <path class="cls-219" d="M231.66,347.37h-20.03v7.44h20.03v-7.44Z"/>
              <path class="cls-134" d="M254.19,347.37h-20.02v7.44h20.02v-7.44Z"/>
              <path class="cls-168" d="M276.73,347.37h-20.02v7.44h20.02v-7.44Z"/>
              <path class="cls-138" d="M299.26,347.37h-20.02v7.44h20.02v-7.44Z"/>
              <g class="cls-302">
                <path class="cls-245" d="M299.26,213.93h-8.61v7.44h8.61v-7.44Z"/>
                <path class="cls-245" d="M299.26,231.71h-8.61v7.44h8.61v-7.44Z"/>
                <path class="cls-245" d="M299.26,249.48h-8.61v7.43h8.61v-7.43Z"/>
                <path class="cls-245" d="M299.26,160.61h-8.61v7.44h8.61v-7.44Z"/>
                <path class="cls-245" d="M299.26,196.16h-8.61v7.44h8.61v-7.44Z"/>
                <path class="cls-245" d="M299.26,178.39h-8.61v7.44h8.61v-7.44Z"/>
                <path class="cls-245" d="M299.26,338.36h-8.61v7.44h8.61v-7.44Z"/>
                <path class="cls-245" d="M299.26,320.58h-8.61v7.44h8.61v-7.44Z"/>
                <path class="cls-245" d="M299.26,267.25h-8.61v7.44h8.61v-7.44Z"/>
                <path class="cls-245" d="M299.26,285.03h-8.61v7.44h8.61v-7.44Z"/>
                <path class="cls-245" d="M299.26,302.8h-8.61v7.44h8.61v-7.44Z"/>
              </g>
              <g class="cls-339">
                <path class="cls-245" d="M107.56,213.93h-8.61v7.44h8.61v-7.44Z"/>
                <path class="cls-245" d="M107.56,231.71h-8.61v7.44h8.61v-7.44Z"/>
                <path class="cls-245" d="M107.56,249.48h-8.61v7.43h8.61v-7.43Z"/>
                <path class="cls-245" d="M107.56,160.61h-8.61v7.44h8.61v-7.44Z"/>
                <path class="cls-245" d="M107.56,196.16h-8.61v7.44h8.61v-7.44Z"/>
                <path class="cls-245" d="M107.56,178.39h-8.61v7.44h8.61v-7.44Z"/>
                <path class="cls-245" d="M107.56,338.36h-8.61v7.44h8.61v-7.44Z"/>
                <path class="cls-245" d="M107.56,320.58h-8.61v7.44h8.61v-7.44Z"/>
                <path class="cls-245" d="M107.56,267.25h-8.61v7.44h8.61v-7.44Z"/>
                <path class="cls-245" d="M107.56,285.03h-8.61v7.44h8.61v-7.44Z"/>
                <path class="cls-245" d="M107.56,302.8h-8.61v7.44h8.61v-7.44Z"/>
              </g>
            </g>
          </g>
        </g>
        <polygon class="cls-335" points="255.45 86.62 212.06 59.59 168.67 86.62 144.1 135.76 144.1 161.96 212.06 161.96 280.03 161.96 280.03 135.76 255.45 86.62"/>
        <g>
          <path class="cls-305" d="M212.09,239.33c-5.18,0-17.01,4.66-17.01,4.66v35.27h33.95v-35.27s-11.78-4.66-16.95-4.66Z"/>
          <g>
            <rect class="cls-322" x="202.14" y="246.64" width="19.86" height="29.17"/>
            <rect class="cls-334" x="204.28" y="248.79" width="15.58" height="24.88"/>
            <rect class="cls-321" x="200.95" y="246.64" width="1.18" height="29.17"/>
            <rect class="cls-321" x="221.99" y="246.64" width="1.18" height="29.17"/>
            <rect class="cls-322" x="202.14" y="260.14" width="19.86" height="2.18"/>
            <rect class="cls-322" x="210.97" y="248.79" width="2.18" height="24.88"/>
            <rect class="cls-321" x="200.95" y="275.81" width="22.23" height=".98"/>
            <rect class="cls-321" x="200.95" y="245.66" width="22.23" height=".98"/>
          </g>
        </g>
        <g>
          <path class="cls-305" d="M212.09,180.39c-3.95,0-12.98,3.56-12.98,3.56v26.91h25.91v-26.91s-8.99-3.55-12.93-3.56Z"/>
          <g>
            <rect class="cls-322" x="204.49" y="185.97" width="15.15" height="22.26"/>
            <rect class="cls-334" x="206.12" y="187.6" width="11.89" height="18.99"/>
            <rect class="cls-321" x="203.58" y="185.97" width=".9" height="22.26"/>
            <rect class="cls-321" x="219.64" y="185.97" width=".9" height="22.26"/>
            <rect class="cls-322" x="204.49" y="196.27" width="15.15" height="1.66"/>
            <rect class="cls-322" x="211.23" y="187.6" width="1.67" height="18.99"/>
            <rect class="cls-321" x="203.58" y="208.23" width="16.96" height=".75"/>
            <rect class="cls-321" x="203.58" y="185.22" width="16.96" height=".75"/>
          </g>
        </g>
        <rect class="cls-305" x="192.93" y="302.81" width="38.73" height="49.04"/>
        <g>
          <rect class="cls-327" x="194.99" y="305.46" width="34.4" height="46.46"/>
          <g class="cls-306">
            <rect class="cls-311" x="195.08" y="305.46" width="3.17" height="46.38"/>
            <rect class="cls-314" x="198.16" y="305.46" width="3.17" height="46.38"/>
            <rect class="cls-319" x="201.24" y="305.46" width="3.17" height="46.38"/>
            <rect class="cls-315" x="204.32" y="305.46" width="3.17" height="46.38"/>
            <rect class="cls-313" x="207.4" y="305.46" width="3.17" height="46.38"/>
            <rect class="cls-318" x="210.48" y="305.46" width="3.16" height="46.38"/>
            <rect class="cls-316" x="213.56" y="305.46" width="3.16" height="46.38"/>
            <rect class="cls-312" x="216.64" y="305.46" width="3.16" height="46.38"/>
            <rect class="cls-310" x="219.71" y="305.46" width="3.17" height="46.38"/>
            <rect class="cls-317" x="222.79" y="305.46" width="3.17" height="46.38"/>
            <rect class="cls-320" x="225.87" y="305.46" width="3.17" height="46.38"/>
          </g>
          <g>
            <rect class="cls-323" x="196.73" y="315.97" width="30.68" height="2.16"/>
            <rect class="cls-307" x="196.73" y="318.13" width="30.68" height=".87"/>
          </g>
          <g>
            <rect class="cls-323" x="196.73" y="341.4" width="30.68" height="2.16"/>
            <rect class="cls-307" x="196.73" y="343.56" width="30.68" height=".88"/>
          </g>
          <polygon class="cls-323" points="196.73 316.15 196.73 319.21 227.22 343.45 227.4 343.23 227.4 340.41 196.79 316.07 196.73 316.15"/>
          <polygon class="cls-307" points="196.73 319.21 198.54 321.45 223.79 341.4 224.63 341.4 196.73 319.21"/>
        </g>
        <polygon class="cls-305" points="250.54 161.96 173.58 161.96 174.45 127.14 183.56 99.18 212.29 86.93 240.56 99.18 249.67 127.14 250.54 161.96"/>
        <g class="cls-306">
          <path class="cls-66" d="M151.97,161.96h-7.88v-10.91c3.15-.17,4.73-.26,7.88-.42v11.33Z"/>
          <path class="cls-36" d="M161.12,161.96c-3.15,0-4.73,0-7.88,0v-11.39c3.15-.17,4.73-.26,7.88-.42,0,4.73,0,7.09,0,11.82Z"/>
          <path class="cls-19" d="M170.27,161.96h-7.88v-11.88c3.15-.17,4.73-.26,7.88-.42,0,4.92,0,7.39,0,12.31Z"/>
          <path class="cls-20" d="M179.42,161.96h-7.88c0-4.95,0-7.42,0-12.37,3.15-.17,4.72-.25,7.87-.42,0,5.12,0,7.68,0,12.79Z"/>
          <path class="cls-76" d="M188.56,161.96c-3.15,0-4.73,0-7.88,0,0-5.14,0-7.72,0-12.86,3.15-.17,4.73-.25,7.88-.42,0,5.31,0,7.97,0,13.28Z"/>
          <path class="cls-21" d="M197.71,161.96h-7.87v-13.35c3.15-.17,4.72-.26,7.87-.42,0,2.75,0,4.82,0,6.89v6.88Z"/>
          <path class="cls-5" d="M206.85,161.96c-3.15,0-4.72,0-7.88,0v-13.84c3.15-.17,4.72-.25,7.88-.42v14.26Z"/>
          <path class="cls-59" d="M216,161.96c-3.15,0-4.72,0-7.87,0v-14.33c3.15-.17,4.73-.17,7.88,0,0,2.87,0,5.02,0,7.17v7.16Z"/>
          <path class="cls-29" d="M225.15,161.96h-7.87v-14.26c3.15.17,4.73.26,7.88.42,0,2.77,0,4.84,0,6.92v6.92Z"/>
          <path class="cls-31" d="M234.29,161.96h-7.88v-13.77c3.15.17,4.73.26,7.88.42,0,5.34,0,8.01,0,13.35Z"/>
          <path class="cls-56" d="M243.44,161.96h-7.88c0-5.31,0-7.97,0-13.28,3.15.17,4.73.25,7.88.42v12.86Z"/>
          <path class="cls-86" d="M252.59,161.96h-7.88v-12.79c3.15.17,4.73.25,7.88.42,0,4.95,0,7.42,0,12.37Z"/>
          <path class="cls-90" d="M261.74,161.96h-7.88v-12.31c3.15.17,4.72.25,7.87.42,0,4.76,0,7.13,0,11.88Z"/>
          <path class="cls-97" d="M270.88,161.96c-3.15,0-4.73,0-7.88,0v-11.82c3.15.17,4.73.25,7.88.42v11.39Z"/>
          <path class="cls-10" d="M280.03,161.96h-7.88c0-4.53,0-6.8,0-11.33,3.15.17,4.73.25,7.88.42,0,4.36,0,6.54,0,10.91Z"/>
          <path class="cls-1" d="M151.97,149.8c-3.15.18-4.73.27-7.88.45v-10.91c3.15-.35,4.73-.52,7.88-.87,0,4.53,0,6.8,0,11.33Z"/>
          <path class="cls-92" d="M161.12,149.28c-3.15.18-4.72.27-7.87.45v-11.4c3.15-.35,4.73-.52,7.88-.87,0,4.73,0,7.09,0,11.82Z"/>
          <path class="cls-77" d="M170.27,148.75c-3.15.18-4.73.27-7.88.45v-11.88c3.15-.35,4.73-.52,7.88-.87v12.3Z"/>
          <path class="cls-80" d="M179.42,148.23c-3.15.18-4.73.27-7.88.45v-12.37c3.15-.35,4.73-.52,7.88-.87,0,5.12,0,7.68,0,12.79Z"/>
          <path class="cls-73" d="M188.56,147.7c-3.15.18-4.73.28-7.88.46,0-5.15,0-7.72,0-12.86,3.15-.35,4.73-.53,7.88-.87v13.28Z"/>
          <path class="cls-32" d="M197.71,147.18c-3.15.18-4.72.27-7.87.45v-13.35c3.15-.35,4.72-.53,7.87-.87,0,2.75,0,4.82,0,6.88s0,4.13,0,6.89Z"/>
          <path class="cls-78" d="M206.86,146.65c-3.15.18-4.73.27-7.88.45v-13.84c3.15-.35,4.73-.52,7.88-.87,0,2.85,0,4.99,0,7.13s0,4.28,0,7.13Z"/>
          <path class="cls-99" d="M216,146.58c-3.15-.18-4.72-.18-7.87,0v-7.16c0-2.15,0-4.3,0-7.16,3.15-.35,4.72-.35,7.87,0v14.33Z"/>
          <path class="cls-100" d="M225.14,147.1c-3.15-.18-4.72-.27-7.87-.45v-7.13c0-2.14,0-4.28,0-7.13,3.15.35,4.73.52,7.88.87,0,2.77,0,4.84,0,6.92s0,4.15,0,6.92Z"/>
          <path class="cls-88" d="M234.29,147.63c-3.15-.18-4.72-.27-7.87-.45,0-2.76,0-4.82,0-6.89s0-4.13,0-6.88c3.15.35,4.72.52,7.87.87v13.35Z"/>
          <path class="cls-46" d="M243.44,148.16c-3.15-.18-4.73-.27-7.88-.45,0-5.31,0-7.97,0-13.28,3.15.35,4.73.52,7.88.87v12.86Z"/>
          <path class="cls-89" d="M252.59,148.68c-3.15-.18-4.73-.27-7.88-.45v-12.79c3.15.35,4.73.52,7.88.87v12.37Z"/>
          <path class="cls-67" d="M261.73,149.2c-3.15-.18-4.72-.27-7.87-.45,0-4.92,0-7.38,0-12.3,3.15.35,4.73.53,7.88.87,0,4.75,0,7.13,0,11.88Z"/>
          <path class="cls-98" d="M270.88,149.73c-3.15-.18-4.72-.27-7.88-.45v-11.82c3.15.35,4.73.52,7.88.87v11.4Z"/>
          <path class="cls-79" d="M280.03,150.25c-3.15-.18-4.73-.27-7.88-.45,0-4.53,0-6.8,0-11.33,3.15.35,4.72.52,7.87.87,0,4.36,0,6.55,0,10.91Z"/>
          <path class="cls-45" d="M151.98,137.64c-3.15.36-4.74.54-7.89.9,0-4.36,1.68-6.15,3.63-10.05,2.98-.53,4.48-.79,7.46-1.32-1.73,4.07-3.2,5.94-3.2,10.47Z"/>
          <path class="cls-61" d="M161.12,136.59c-3.15.36-4.73.54-7.88.9,0-4.56,1.45-6.44,3.14-10.54,2.98-.53,4.47-.79,7.46-1.32-1.46,4.26-2.71,6.23-2.71,10.96Z"/>
          <path class="cls-53" d="M170.27,135.55c-3.15.36-4.72.54-7.87.9,0-4.75,1.23-6.73,2.65-11.03,2.98-.53,4.47-.79,7.46-1.32-1.2,4.46-2.24,6.53-2.24,11.45Z"/>
          <path class="cls-42" d="M179.42,134.5c-3.15.36-4.73.54-7.88.9,0-4.95.99-7.03,2.16-11.52,2.98-.53,4.48-.79,7.46-1.32-.93,4.66-1.74,6.82-1.74,11.94Z"/>
          <path class="cls-6" d="M188.56,133.45c-3.15.36-4.72.54-7.87.9,0-5.14.77-7.32,1.67-12.01,2.98-.53,4.48-.79,7.46-1.32-.67,4.85-1.26,7.11-1.26,12.43Z"/>
          <path class="cls-17" d="M197.7,132.39c-3.15.36-4.72.55-7.87.91,0-5.34.54-7.62,1.18-12.49,2.98-.53,4.47-.8,7.46-1.33-.41,5.05-.76,7.41-.76,12.92Z"/>
          <path class="cls-60" d="M206.85,131.35c-3.15.36-4.72.54-7.88.9,0-5.54.32-7.9.69-12.98,2.98-.53,4.47-.8,7.46-1.32-.15,5.24-.27,7.7-.27,13.4Z"/>
          <path class="cls-94" d="M216,131.2c-3.15-.36-4.72-.36-7.87,0,0-2.86.03-4.91.07-6.88.04-1.98.09-3.95.14-6.58,2.98-.53,4.47-.54,7.46,0,.06,2.63.1,4.61.14,6.59.04,1.98.06,4.02.06,6.89Z"/>
          <path class="cls-43" d="M225.14,132.25c-3.15-.36-4.72-.54-7.87-.9,0-5.7-.13-8.16-.28-13.4,2.98.53,4.47.79,7.45,1.32.37,5.07.7,7.45.7,12.98Z"/>
          <path class="cls-82" d="M234.3,133.3c-3.15-.36-4.73-.54-7.88-.9,0-5.51-.36-7.87-.77-12.92,2.98.53,4.48.8,7.46,1.33.64,4.88,1.19,7.15,1.19,12.49Z"/>
          <path class="cls-38" d="M243.44,134.35c-3.15-.36-4.72-.54-7.87-.9,0-5.31-.58-7.58-1.26-12.43,2.98.53,4.47.8,7.45,1.33.9,4.68,1.68,6.86,1.68,12.01Z"/>
          <path class="cls-11" d="M252.58,135.4c-3.15-.36-4.72-.54-7.88-.9,0-5.12-.81-7.28-1.75-11.94,2.98.53,4.47.79,7.46,1.32,1.16,4.49,2.17,6.57,2.17,11.52Z"/>
          <path class="cls-65" d="M261.73,136.45c-3.15-.36-4.72-.54-7.87-.9,0-4.92-1.04-6.99-2.24-11.45,2.98.53,4.48.8,7.46,1.33,1.42,4.29,2.65,6.28,2.65,11.03Z"/>
          <path class="cls-14" d="M270.88,137.5c-3.15-.36-4.72-.54-7.87-.9,0-4.73-1.26-6.69-2.72-10.96,2.98.53,4.47.79,7.45,1.32,1.69,4.1,3.15,5.98,3.15,10.54Z"/>
          <path class="cls-54" d="M280.03,138.55c-3.15-.36-4.73-.54-7.88-.9,0-4.53-1.49-6.4-3.21-10.47,2.98.53,4.47.8,7.46,1.32,1.95,3.9,3.63,5.69,3.63,10.05Z"/>
          <path class="cls-48" d="M155.5,126.43c-2.96.54-4.45.81-7.41,1.35,1.95-3.9,2.92-5.85,4.87-9.75,2.74-.71,4.12-1.07,6.85-1.78-1.72,4.07-2.59,6.11-4.32,10.18Z"/>
          <path class="cls-50" d="M164.11,124.86c-2.96.54-4.45.81-7.41,1.35,1.69-4.1,2.53-6.15,4.22-10.24,2.74-.71,4.1-1.06,6.84-1.77-1.46,4.26-2.19,6.4-3.65,10.67Z"/>
          <path class="cls-81" d="M172.72,123.28c-2.96.54-4.45.81-7.41,1.35,1.43-4.29,2.14-6.44,3.56-10.73,2.74-.71,4.11-1.07,6.85-1.78-1.2,4.46-1.8,6.69-2.99,11.15Z"/>
          <path class="cls-70" d="M181.33,121.7c-2.97.54-4.45.81-7.41,1.36,1.16-4.49,1.74-6.73,2.9-11.22,2.74-.71,4.11-1.07,6.85-1.78-.93,4.66-1.4,6.99-2.34,11.64Z"/>
          <path class="cls-12" d="M189.94,120.13c-2.97.54-4.45.81-7.42,1.35.9-4.68,1.35-7.02,2.25-11.71,2.74-.71,4.11-1.07,6.85-1.78-.67,4.85-1,7.28-1.68,12.13Z"/>
          <path class="cls-8" d="M198.55,118.56c-2.96.54-4.45.81-7.41,1.36.64-4.88.96-7.32,1.6-12.2,2.74-.71,4.1-1.07,6.84-1.78-.41,5.05-.61,7.58-1.03,12.62Z"/>
          <path class="cls-27" d="M207.15,116.98c-2.97.54-4.44.81-7.41,1.36.38-5.08.56-7.61.94-12.69,2.74-.71,4.11-1.06,6.85-1.78-.15,5.24-.23,7.87-.38,13.11Z"/>
          <path class="cls-33" d="M215.77,116.76c-2.96-.54-4.44-.54-7.41,0,.11-5.27.17-7.91.28-13.18,2.74-.71,4.11-.71,6.84,0,.11,5.27.17,7.91.29,13.18Z"/>
          <path class="cls-23" d="M224.37,118.34c-2.96-.54-4.44-.81-7.41-1.36-.15-5.24-.23-7.87-.38-13.11,2.74.71,4.1,1.06,6.84,1.78.38,5.07.57,7.61.94,12.69Z"/>
          <path class="cls-83" d="M232.98,119.91c-2.96-.54-4.44-.81-7.41-1.35-.41-5.05-.62-7.57-1.03-12.62,2.74.71,4.11,1.07,6.84,1.78.64,4.88.96,7.32,1.6,12.2Z"/>
          <path class="cls-40" d="M241.6,121.48c-2.96-.54-4.45-.81-7.41-1.36-.67-4.85-1.01-7.28-1.69-12.13,2.74.71,4.1,1.07,6.84,1.78.9,4.68,1.35,7.02,2.25,11.71Z"/>
          <path class="cls-9" d="M250.21,123.06c-2.96-.54-4.45-.81-7.41-1.35-.93-4.66-1.41-6.99-2.35-11.65,2.74.71,4.11,1.07,6.85,1.78,1.16,4.49,1.75,6.73,2.91,11.22Z"/>
          <path class="cls-35" d="M258.82,124.63c-2.96-.54-4.45-.81-7.41-1.35-1.2-4.46-1.8-6.7-3-11.16,2.74.71,4.1,1.07,6.84,1.78,1.43,4.29,2.14,6.44,3.56,10.73Z"/>
          <path class="cls-51" d="M267.43,126.21c-2.97-.54-4.45-.81-7.41-1.35-1.46-4.26-2.2-6.4-3.66-10.67,2.74.71,4.11,1.07,6.85,1.78,1.69,4.1,2.54,6.15,4.22,10.24Z"/>
          <path class="cls-91" d="M276.04,127.78c-2.97-.54-4.45-.81-7.42-1.35-1.72-4.07-2.59-6.11-4.31-10.18,2.74.71,4.11,1.07,6.85,1.78,1.95,3.9,2.93,5.85,4.88,9.75Z"/>
          <path class="cls-74" d="M160.13,115.51c-2.72.72-4.09,1.08-6.81,1.81,1.95-3.9,2.93-5.85,4.88-9.75,2.5-.89,3.74-1.34,6.24-2.23-1.73,4.07-2.58,6.11-4.3,10.18Z"/>
          <path class="cls-85" d="M168.04,113.41c-2.72.72-4.08,1.08-6.8,1.81,1.69-4.1,2.52-6.15,4.21-10.25,2.5-.89,3.75-1.34,6.24-2.23-1.46,4.26-2.19,6.4-3.65,10.67Z"/>
          <path class="cls-18" d="M175.94,111.31c-2.72.72-4.09,1.09-6.81,1.81,1.43-4.29,2.14-6.44,3.56-10.73,2.5-.89,3.75-1.34,6.24-2.23-1.2,4.46-1.8,6.69-2.99,11.15Z"/>
          <path class="cls-44" d="M183.85,109.21c-2.72.72-4.08,1.08-6.8,1.81,1.16-4.49,1.74-6.73,2.9-11.22,2.5-.89,3.75-1.34,6.25-2.23-.94,4.66-1.4,6.99-2.34,11.65Z"/>
          <path class="cls-84" d="M191.75,107.11c-2.72.72-4.09,1.09-6.81,1.81.9-4.69,1.35-7.03,2.25-11.71,2.5-.89,3.74-1.33,6.24-2.23-.68,4.85-1,7.28-1.68,12.13Z"/>
          <path class="cls-25" d="M199.66,105.01c-2.72.72-4.08,1.09-6.8,1.81.64-4.88.95-7.32,1.59-12.2,2.5-.89,3.74-1.34,6.24-2.23-.41,5.05-.61,7.57-1.03,12.62Z"/>
          <path class="cls-103" d="M207.56,102.91c-2.72.72-4.08,1.08-6.81,1.81.38-5.08.56-7.61.94-12.69,2.5-.89,3.74-1.33,6.24-2.22-.15,5.24-.22,7.86-.37,13.11Z"/>
          <path class="cls-96" d="M215.47,102.62c-2.72-.72-4.09-.72-6.8,0,.11-5.27.17-7.91.28-13.18,2.5-.89,3.74-.89,6.24,0,.11,5.27.17,7.91.29,13.18Z"/>
          <path class="cls-95" d="M223.37,104.72c-2.72-.72-4.07-1.08-6.8-1.81-.15-5.24-.23-7.87-.38-13.11,2.5.89,3.73,1.34,6.23,2.23.38,5.08.57,7.61.95,12.69Z"/>
          <path class="cls-105" d="M231.28,106.82c-2.72-.72-4.08-1.08-6.81-1.81-.41-5.05-.62-7.57-1.03-12.62,2.5.89,3.74,1.33,6.24,2.23.64,4.88.96,7.32,1.6,12.2Z"/>
          <path class="cls-52" d="M239.18,108.92c-2.72-.72-4.08-1.09-6.8-1.81-.68-4.85-1.01-7.28-1.69-12.13,2.5.89,3.74,1.34,6.24,2.23.9,4.69,1.35,7.03,2.25,11.71Z"/>
          <path class="cls-69" d="M247.08,111.01c-2.72-.72-4.08-1.08-6.8-1.81-.94-4.66-1.41-6.99-2.35-11.64,2.5.89,3.75,1.34,6.25,2.23,1.16,4.49,1.74,6.73,2.91,11.22Z"/>
          <path class="cls-104" d="M254.99,113.12c-2.72-.72-4.08-1.09-6.8-1.81-1.2-4.46-1.8-6.69-3-11.15,2.5.89,3.74,1.34,6.24,2.23,1.43,4.29,2.14,6.44,3.56,10.73Z"/>
          <path class="cls-34" d="M262.9,115.21c-2.72-.72-4.08-1.09-6.8-1.81-1.46-4.26-2.2-6.4-3.66-10.66,2.5.89,3.74,1.34,6.24,2.23,1.69,4.1,2.54,6.15,4.22,10.25Z"/>
          <path class="cls-49" d="M270.8,117.31c-2.72-.72-4.08-1.09-6.81-1.81-1.72-4.07-2.59-6.1-4.32-10.17,2.5.89,3.75,1.34,6.24,2.23,1.95,3.9,2.93,5.85,4.88,9.75Z"/>
          <path class="cls-15" d="M164.76,104.58c-2.48.9-3.72,1.35-6.21,2.26,1.95-3.9,2.93-5.85,4.88-9.75,2.26-1.07,3.38-1.61,5.63-2.68-1.72,4.07-2.58,6.1-4.3,10.17Z"/>
          <path class="cls-13" d="M171.96,101.96c-2.48.9-3.72,1.36-6.2,2.26,1.69-4.1,2.53-6.15,4.21-10.24,2.26-1.07,3.38-1.61,5.63-2.68-1.46,4.26-2.19,6.39-3.65,10.66Z"/>
          <path class="cls-87" d="M179.16,99.33c-2.48.9-3.72,1.36-6.2,2.26,1.43-4.29,2.14-6.44,3.56-10.73,2.26-1.07,3.38-1.61,5.64-2.68-1.2,4.46-1.8,6.69-2.99,11.15Z"/>
          <path class="cls-39" d="M186.36,96.71c-2.48.9-3.72,1.36-6.2,2.26,1.16-4.49,1.74-6.73,2.9-11.22,2.26-1.07,3.38-1.61,5.64-2.68-.93,4.66-1.4,6.98-2.34,11.64Z"/>
          <path class="cls-72" d="M193.56,94.09c-2.48.9-3.71,1.36-6.2,2.26.9-4.69,1.34-7.03,2.24-11.71,2.26-1.07,3.39-1.61,5.64-2.68-.67,4.85-1,7.27-1.68,12.13Z"/>
          <path class="cls-93" d="M200.76,91.46c-2.48.9-3.71,1.36-6.19,2.26.64-4.88.95-7.32,1.59-12.2,2.26-1.07,3.38-1.61,5.63-2.68-.41,5.05-.61,7.57-1.03,12.62Z"/>
          <path class="cls-22" d="M207.96,88.84c-2.48.9-3.72,1.35-6.2,2.26.38-5.08.55-7.61.93-12.68,2.26-1.07,3.38-1.61,5.64-2.68-.15,5.24-.22,7.86-.37,13.11Z"/>
          <path class="cls-55" d="M215.17,88.47c-2.48-.9-3.73-.9-6.21,0,.11-5.27.17-7.91.28-13.18,2.25-1.07,3.38-1.07,5.64,0,.11,5.27.18,7.9.29,13.18Z"/>
          <path class="cls-101" d="M222.36,91.1c-2.48-.9-3.71-1.36-6.19-2.26-.15-5.24-.23-7.86-.38-13.11,2.26,1.07,3.38,1.61,5.63,2.68.38,5.08.57,7.61.94,12.69Z"/>
          <path class="cls-16" d="M229.57,93.72c-2.48-.9-3.72-1.35-6.21-2.26-.41-5.05-.62-7.57-1.03-12.62,2.25,1.07,3.39,1.61,5.64,2.68.64,4.88.95,7.32,1.6,12.2Z"/>
          <path class="cls-47" d="M236.77,96.35c-2.48-.9-3.72-1.36-6.2-2.26-.68-4.85-1.02-7.28-1.69-12.13,2.25,1.07,3.38,1.61,5.64,2.68.9,4.68,1.35,7.03,2.25,11.71Z"/>
          <path class="cls-63" d="M243.97,98.97c-2.48-.9-3.72-1.35-6.2-2.26-.94-4.66-1.41-6.99-2.35-11.64,2.25,1.07,3.38,1.61,5.64,2.68,1.16,4.49,1.75,6.73,2.91,11.22Z"/>
          <path class="cls-4" d="M251.17,101.6c-2.48-.9-3.72-1.36-6.2-2.26-1.2-4.46-1.8-6.69-3-11.15,2.26,1.07,3.38,1.61,5.64,2.68,1.43,4.29,2.14,6.44,3.56,10.73Z"/>
          <path class="cls-26" d="M258.37,104.22c-2.48-.9-3.71-1.36-6.2-2.26-1.46-4.26-2.2-6.4-3.66-10.66,2.26,1.07,3.38,1.61,5.63,2.68,1.69,4.1,2.53,6.14,4.23,10.24Z"/>
          <path class="cls-62" d="M265.57,106.84c-2.48-.9-3.71-1.36-6.2-2.26-1.72-4.07-2.59-6.1-4.32-10.17,2.26,1.07,3.38,1.61,5.64,2.68,1.95,3.9,2.93,5.85,4.88,9.75Z"/>
          <path class="cls-30" d="M169.38,93.66c-2.24,1.08-3.35,1.63-5.59,2.71,1.95-3.9,2.93-5.85,4.88-9.75,2.01-1.25,3.02-1.88,5.03-3.13-1.73,4.07-2.6,6.1-4.32,10.17Z"/>
          <path class="cls-102" d="M175.87,90.51c-2.24,1.08-3.35,1.62-5.58,2.71,1.69-4.1,2.53-6.14,4.22-10.24,2.01-1.25,3.02-1.88,5.03-3.13-1.46,4.26-2.2,6.4-3.66,10.66Z"/>
          <path class="cls-37" d="M182.38,87.37c-2.24,1.08-3.36,1.63-5.6,2.71,1.43-4.29,2.15-6.44,3.57-10.73,2.01-1.25,3.02-1.88,5.03-3.13-1.2,4.46-1.81,6.69-3,11.15Z"/>
          <path class="cls-24" d="M188.87,84.21c-2.24,1.08-3.36,1.63-5.59,2.71,1.16-4.49,1.75-6.73,2.91-11.22,2.01-1.25,3.02-1.88,5.03-3.13-.93,4.66-1.41,6.98-2.35,11.64Z"/>
          <path class="cls-68" d="M195.37,81.07c-2.24,1.08-3.36,1.62-5.6,2.71.9-4.69,1.35-7.02,2.25-11.71,2.02-1.25,3.02-1.88,5.03-3.13-.68,4.85-1.01,7.28-1.69,12.13Z"/>
          <path class="cls-71" d="M201.86,77.92c-2.24,1.08-3.36,1.63-5.6,2.71.64-4.88.96-7.32,1.6-12.2,2.01-1.25,3.02-1.88,5.03-3.13-.41,5.05-.62,7.57-1.04,12.62Z"/>
          <path class="cls-7" d="M208.36,74.77c-2.24,1.08-3.36,1.62-5.6,2.71.37-5.08.56-7.61.94-12.68,2.01-1.25,3.02-1.88,5.04-3.13-.15,5.24-.23,7.86-.38,13.11Z"/>
          <path class="cls-64" d="M214.86,74.33c-2.24-1.08-3.36-1.08-5.6,0,.11-5.27.17-7.91.28-13.18,2.01-1.25,3.02-1.25,5.03,0,.11,5.27.17,7.9.28,13.17Z"/>
          <path class="cls-2" d="M221.35,77.48c-2.24-1.08-3.35-1.62-5.59-2.71-.15-5.24-.22-7.86-.37-13.11,2.01,1.25,3.01,1.88,5.02,3.13.38,5.08.56,7.61.94,12.68Z"/>
          <path class="cls-57" d="M227.85,80.63c-2.24-1.08-3.36-1.63-5.59-2.71-.41-5.05-.62-7.57-1.03-12.61,2.01,1.25,3.02,1.88,5.03,3.13.64,4.88.95,7.32,1.6,12.2Z"/>
          <path class="cls-3" d="M234.34,83.77c-2.24-1.08-3.35-1.63-5.59-2.71-.67-4.85-1.01-7.28-1.69-12.13,2.01,1.25,3.02,1.88,5.03,3.13.9,4.68,1.35,7.02,2.25,11.71Z"/>
          <path class="cls-75" d="M240.84,86.92c-2.24-1.08-3.36-1.62-5.6-2.71-.94-4.66-1.41-6.98-2.35-11.64,2.01,1.25,3.02,1.88,5.03,3.13,1.16,4.49,1.75,6.73,2.91,11.22Z"/>
          <path class="cls-41" d="M247.34,90.07c-2.24-1.08-3.35-1.63-5.59-2.71-1.2-4.46-1.8-6.69-3-11.15,2.01,1.25,3.02,1.88,5.03,3.13,1.43,4.29,2.14,6.44,3.56,10.73Z"/>
          <path class="cls-58" d="M253.83,93.22c-2.24-1.08-3.35-1.63-5.59-2.71-1.46-4.26-2.2-6.39-3.66-10.66,2.01,1.25,3.02,1.88,5.03,3.13,1.69,4.1,2.53,6.14,4.22,10.24Z"/>
          <path class="cls-28" d="M260.33,96.37c-2.24-1.08-3.36-1.63-5.6-2.71-1.73-4.07-2.59-6.1-4.31-10.17,2.01,1.25,3.02,1.88,5.03,3.13,1.95,3.9,2.93,5.85,4.88,9.75Z"/>
        </g>
        <rect class="cls-303" x="151.97" y="161.96" width="120.8" height="7.37"/>
        <g>
          <rect class="cls-322" x="221.58" y="120.48" width="14.59" height="21.44"/>
          <rect class="cls-333" x="223.16" y="122.06" width="11.45" height="18.28"/>
          <rect class="cls-321" x="220.71" y="120.48" width=".87" height="21.44"/>
          <rect class="cls-321" x="236.17" y="120.48" width=".87" height="21.44"/>
          <rect class="cls-322" x="221.58" y="130.4" width="14.59" height="1.6"/>
          <rect class="cls-322" x="228.07" y="122.06" width="1.61" height="18.28"/>
          <rect class="cls-321" x="220.71" y="141.92" width="16.33" height=".72"/>
          <rect class="cls-321" x="220.71" y="119.76" width="16.33" height=".72"/>
        </g>
        <g>
          <rect class="cls-322" x="185.56" y="120.48" width="14.59" height="21.44"/>
          <rect class="cls-333" x="187.13" y="122.06" width="11.45" height="18.28"/>
          <rect class="cls-321" x="184.69" y="120.48" width=".87" height="21.44"/>
          <rect class="cls-321" x="200.15" y="120.48" width=".87" height="21.44"/>
          <rect class="cls-322" x="185.56" y="130.4" width="14.59" height="1.6"/>
          <rect class="cls-322" x="192.05" y="122.06" width="1.61" height="18.28"/>
          <rect class="cls-321" x="184.69" y="141.92" width="16.33" height=".72"/>
          <rect class="cls-321" x="184.69" y="119.76" width="16.33" height=".72"/>
        </g>
        <g>
          <path class="cls-304" d="M113.57,353.69c-26.85,0-23.43,2.13-23.43,4.74s-3.42,4.74,23.43,4.74,73.79-2.12,73.79-4.74-46.94-4.74-73.79-4.74Z"/>
          <g>
            <path class="cls-328" d="M95.1,356.02c-6.1,0-11.04,1-11.04,2.25s4.95,2.24,11.04,2.24,11.05-1,11.05-2.24-4.94-2.25-11.05-2.25Z"/>
            <g>
              <rect class="cls-326" x="90.5" y="299.07" width="9.47" height="59.19"/>
              <path class="cls-324" d="M95.23,249.36c-16.34,0-29.59,33.37-29.59,49.71s13.25,29.59,29.59,29.59,29.59-13.25,29.59-29.59-13.25-49.71-29.59-49.71Z"/>
              <path class="cls-332" d="M66.28,292.02c-.42,2.56-.64,4.95-.64,7.06,0,16.35,13.25,29.59,29.59,29.59,4.18,0,8.15-.87,11.75-2.43-18.66-3.41-34.15-16.76-40.7-34.22Z"/>
            </g>
          </g>
        </g>
        <path class="cls-308" d="M272.15,161.96h-120.18l137.49,121.83c-7.48-33.43-14.72-75.29-16.23-116.61l-1.08-5.21Z"/>
        <g>
          <g>
            <rect class="cls-327" x="70.03" y="119.39" width="281.33" height="8.07" transform="translate(-25.58 185.1) rotate(-44.99)"/>
            <g>
              <path class="cls-327" d="M266.37,114.53l-25.88-25.88,67.75-67.75,25.88,25.88-67.75,67.75ZM242.77,88.65l23.6,23.6,65.46-65.46-23.6-23.6-65.46,65.47Z"/>
              <rect class="cls-327" x="259.24" y="77.48" width="1.61" height="34.99" transform="translate(9.01 211.7) rotate(-45)"/>
              <rect class="cls-327" x="265.31" y="71.41" width="1.61" height="34.99" transform="translate(15.07 214.2) rotate(-45)"/>
              <rect class="cls-327" x="271.36" y="65.36" width="1.61" height="34.99" transform="translate(21.12 216.71) rotate(-45)"/>
              <rect class="cls-327" x="277.41" y="59.31" width="1.61" height="34.99" transform="translate(27.17 219.21) rotate(-45)"/>
              <rect class="cls-327" x="283.47" y="53.25" width="1.61" height="34.99" transform="translate(33.24 221.73) rotate(-45)"/>
              <rect class="cls-327" x="289.52" y="47.2" width="1.61" height="34.99" transform="translate(39.29 224.24) rotate(-45)"/>
              <rect class="cls-327" x="295.58" y="41.13" width="1.61" height="34.99" transform="translate(45.37 226.77) rotate(-45)"/>
              <rect class="cls-327" x="301.63" y="35.09" width="1.61" height="34.99" transform="translate(51.4 229.26) rotate(-45)"/>
              <rect class="cls-327" x="307.68" y="29.04" width="1.61" height="34.99" transform="translate(57.45 231.76) rotate(-45)"/>
              <rect class="cls-327" x="313.75" y="22.97" width="1.61" height="34.99" transform="translate(63.52 234.28) rotate(-45)"/>
              <rect class="cls-327" x="248.45" y="75.15" width="94.19" height="1.61" transform="translate(32.85 231.23) rotate(-45)"/>
              <rect class="cls-327" x="244.33" y="71.04" width="94.19" height="1.61" transform="translate(34.53 227.08) rotate(-44.99)"/>
              <rect class="cls-327" x="240.2" y="66.91" width="94.2" height="1.61" transform="translate(36.24 222.95) rotate(-44.99)"/>
              <rect class="cls-327" x="236.08" y="62.78" width="94.2" height="1.61" transform="translate(37.98 218.86) rotate(-45)"/>
              <rect class="cls-327" x="231.96" y="58.67" width="94.19" height="1.61" transform="translate(39.68 214.74) rotate(-45)"/>
            </g>
            <g>
              <path class="cls-327" d="M114.22,225.24l-25.88-25.88,67.75-67.75,25.88,25.88-67.75,67.75ZM90.63,199.36l23.6,23.6,65.46-65.46-23.6-23.6-65.46,65.46Z"/>
              <rect class="cls-327" x="107.09" y="188.18" width="1.61" height="34.99" transform="translate(-113.83 136.54) rotate(-45)"/>
              <rect class="cls-327" x="113.16" y="182.12" width="1.61" height="34.99" transform="translate(-107.77 139.05) rotate(-45)"/>
              <rect class="cls-327" x="119.21" y="176.07" width="1.61" height="34.99" transform="translate(-101.72 141.57) rotate(-45)"/>
              <rect class="cls-327" x="125.26" y="170.02" width="1.61" height="34.99" transform="translate(-95.67 144.08) rotate(-45)"/>
              <rect class="cls-327" x="131.32" y="163.95" width="1.61" height="34.99" transform="translate(-89.6 146.57) rotate(-45)"/>
              <rect class="cls-327" x="137.37" y="157.9" width="1.61" height="34.99" transform="translate(-83.55 149.08) rotate(-45)"/>
              <rect class="cls-327" x="143.44" y="151.84" width="1.61" height="34.99" transform="translate(-77.49 151.6) rotate(-45)"/>
              <rect class="cls-327" x="149.49" y="145.79" width="1.61" height="34.99" transform="translate(-71.44 154.1) rotate(-45)"/>
              <rect class="cls-327" x="155.54" y="139.74" width="1.61" height="34.99" transform="translate(-65.39 156.6) rotate(-45)"/>
              <rect class="cls-327" x="161.6" y="133.68" width="1.61" height="34.99" transform="translate(-59.32 159.12) rotate(-45)"/>
              <rect class="cls-327" x="96.3" y="185.86" width="94.2" height="1.61" transform="translate(-89.99 156.07) rotate(-45)"/>
              <rect class="cls-327" x="92.18" y="181.74" width="94.19" height="1.61" transform="translate(-88.29 151.95) rotate(-45)"/>
              <rect class="cls-327" x="88.06" y="177.62" width="94.19" height="1.61" transform="translate(-86.58 147.83) rotate(-45)"/>
              <rect class="cls-327" x="83.93" y="173.49" width="94.19" height="1.61" transform="translate(-84.86 143.67) rotate(-44.99)"/>
              <rect class="cls-327" x="79.81" y="169.37" width="94.19" height="1.61" transform="translate(-83.16 139.58) rotate(-45)"/>
            </g>
            <rect class="cls-309" x="223.76" y="52.81" width="98.03" height="2.34" transform="translate(41.82 208.84) rotate(-45.04)"/>
            <rect class="cls-309" x="100.85" y="191.3" width="96.83" height="2.34" transform="translate(-92.39 162.04) rotate(-45.03)"/>
            <rect class="cls-309" x="169.83" y="118.09" width="84.32" height="8.07" transform="translate(-24.26 185.7) rotate(-45.01)"/>
            <path class="cls-337" d="M213,123.52c-.51.51-1.33.51-1.84,0-.51-.51-.5-1.33,0-1.84.51-.51,1.33-.51,1.85,0,.51.51.51,1.33,0,1.84Z"/>
            <path class="cls-331" d="M212.9,123.05c-.51.51-1.33.51-1.84,0-.51-.51-.51-1.33,0-1.84.51-.51,1.33-.51,1.84,0,.51.51.51,1.33,0,1.84Z"/>
          </g>
          <g>
            <rect class="cls-327" x="209.25" y="-17.24" width="8.07" height="281.32" transform="translate(-24.8 187) rotate(-45.01)"/>
            <g>
              <path class="cls-327" d="M178.51,93.63L110.76,25.88,136.64,0l67.75,67.75-25.88,25.88ZM113.05,25.88l65.46,65.46,23.6-23.6L136.64,2.28l-23.6,23.6Z"/>
              <rect class="cls-327" x="167.33" y="73.26" width="34.99" height="1.61" transform="translate(1.76 152.39) rotate(-45)"/>
              <rect class="cls-327" x="161.27" y="67.19" width="34.99" height="1.61" transform="translate(4.27 146.32) rotate(-45)"/>
              <rect class="cls-327" x="155.22" y="61.14" width="34.99" height="1.61" transform="translate(6.78 140.27) rotate(-45)"/>
              <rect class="cls-327" x="149.17" y="55.1" width="34.99" height="1.61" transform="translate(9.29 134.22) rotate(-45)"/>
              <rect class="cls-327" x="143.11" y="49.03" width="34.99" height="1.61" transform="translate(11.8 128.16) rotate(-45)"/>
              <rect class="cls-327" x="137.06" y="42.98" width="34.99" height="1.61" transform="translate(14.29 122.09) rotate(-44.99)"/>
              <rect class="cls-327" x="130.99" y="36.92" width="34.99" height="1.61" transform="translate(16.82 116.05) rotate(-45)"/>
              <rect class="cls-327" x="124.94" y="30.87" width="34.99" height="1.61" transform="translate(19.32 110) rotate(-45)"/>
              <rect class="cls-327" x="118.89" y="24.82" width="34.99" height="1.61" transform="translate(21.83 103.95) rotate(-45)"/>
              <rect class="cls-327" x="112.83" y="18.75" width="34.99" height="1.61" transform="translate(24.34 97.88) rotate(-45)"/>
              <rect class="cls-327" x="165.01" y="-8.53" width="1.61" height="94.19" transform="translate(21.3 128.55) rotate(-45)"/>
              <rect class="cls-327" x="160.89" y="-4.41" width="1.61" height="94.19" transform="translate(17.18 126.84) rotate(-45)"/>
              <rect class="cls-327" x="156.77" y="-.28" width="1.61" height="94.19" transform="translate(13.05 125.13) rotate(-45)"/>
              <rect class="cls-327" x="152.64" y="3.84" width="1.61" height="94.19" transform="translate(8.93 123.43) rotate(-45)"/>
              <rect class="cls-327" x="148.53" y="7.96" width="1.61" height="94.19" transform="translate(4.81 121.72) rotate(-45)"/>
            </g>
            <g>
              <path class="cls-327" d="M289.21,245.77l-67.75-67.75,25.88-25.88,67.75,67.75-25.88,25.88ZM223.75,178.03l65.46,65.46,23.6-23.6-65.46-65.46-23.6,23.6Z"/>
              <rect class="cls-327" x="278.04" y="225.41" width="34.99" height="1.61" transform="translate(-73.4 275.23) rotate(-45)"/>
              <rect class="cls-327" x="271.98" y="219.34" width="34.99" height="1.61" transform="translate(-70.89 269.17) rotate(-45)"/>
              <rect class="cls-327" x="265.93" y="213.29" width="34.99" height="1.61" transform="translate(-68.37 263.17) rotate(-45.01)"/>
              <rect class="cls-327" x="259.88" y="207.24" width="34.99" height="1.61" transform="translate(-65.87 257.07) rotate(-45)"/>
              <rect class="cls-327" x="253.81" y="201.18" width="34.99" height="1.61" transform="translate(-63.36 251) rotate(-45)"/>
              <rect class="cls-327" x="247.76" y="195.13" width="34.99" height="1.61" transform="translate(-60.86 244.95) rotate(-45)"/>
              <rect class="cls-327" x="241.7" y="189.07" width="34.99" height="1.61" transform="translate(-58.34 238.89) rotate(-45)"/>
              <rect class="cls-327" x="235.65" y="183.02" width="34.99" height="1.61" transform="translate(-55.84 232.84) rotate(-45)"/>
              <rect class="cls-327" x="229.6" y="176.97" width="34.99" height="1.61" transform="translate(-53.33 226.79) rotate(-45)"/>
              <rect class="cls-327" x="223.53" y="170.9" width="34.99" height="1.61" transform="translate(-50.82 220.72) rotate(-45)"/>
              <rect class="cls-327" x="275.72" y="143.62" width="1.61" height="94.19" transform="translate(-53.87 251.39) rotate(-45)"/>
              <rect class="cls-327" x="271.6" y="147.74" width="1.61" height="94.19" transform="translate(-57.98 249.68) rotate(-45)"/>
              <rect class="cls-327" x="267.47" y="151.86" width="1.61" height="94.2" transform="translate(-62.11 247.99) rotate(-45)"/>
              <rect class="cls-327" x="263.35" y="155.99" width="1.61" height="94.19" transform="translate(-66.24 246.26) rotate(-45)"/>
              <rect class="cls-327" x="259.23" y="160.11" width="1.61" height="94.19" transform="translate(-70.35 244.56) rotate(-45)"/>
            </g>
            <rect class="cls-309" x="142.67" y="12.32" width="2.34" height="98.03" transform="translate(-1.28 119.6) rotate(-44.97)"/>
            <rect class="cls-309" x="281.15" y="136.44" width="2.34" height="96.82" transform="translate(-48.02 253.77) rotate(-45)"/>
            <rect class="cls-309" x="207.95" y="76.46" width="8.08" height="91.34" transform="translate(-24.27 185.66) rotate(-45)"/>
            <rect class="cls-325" x="207.95" y="111.36" width="8.07" height="21.52" transform="translate(-24.28 185.63) rotate(-44.99)"/>
            <path class="cls-337" d="M213.38,121.12c.51.51.51,1.33,0,1.84-.51.51-1.33.51-1.84,0-.51-.51-.51-1.33,0-1.84.51-.51,1.33-.51,1.84,0Z"/>
            <path class="cls-331" d="M212.91,121.21c.51.51.51,1.33,0,1.84-.51.51-1.33.51-1.84,0-.51-.51-.51-1.33,0-1.84s1.33-.51,1.84,0Z"/>
          </g>
        </g>
      </g>
    </g>
  </g>
</svg>